<svg xmlns="http://www.w3.org/2000/svg" xmlns:xlink="http://www.w3.org/1999/xlink" width="1000" zoomAndPan="magnify" viewBox="0 0 750 749.999995" height="1000" preserveAspectRatio="xMidYMid meet" version="1.0"><defs><clipPath id="7e8bd327a4"><path d="M 1 17 L 749 17 L 749 733.363281 L 1 733.363281 Z M 1 17 " clip-rule="nonzero"/></clipPath></defs><g clip-path="url(#7e8bd327a4)"><path fill="#ffffff" d="M 641.699219 733.441406 L 474.042969 733.441406 C 467.574219 733.441406 462.328125 728.199219 462.328125 721.734375 L 462.328125 483.96875 L 291.796875 483.96875 L 291.796875 721.734375 C 291.796875 728.199219 286.550781 733.441406 280.082031 733.441406 L 108.238281 733.441406 C 101.769531 733.441406 96.527344 728.199219 96.527344 721.734375 L 96.527344 372.585938 L 12.773438 372.585938 C 7.945312 372.585938 3.609375 369.621094 1.859375 365.121094 C 0.105469 360.621094 1.300781 355.507812 4.863281 352.246094 L 367.058594 20.53125 C 371.535156 16.429688 378.402344 16.429688 382.882812 20.53125 L 745.078125 352.246094 C 748.640625 355.507812 749.832031 360.621094 748.082031 365.121094 C 746.328125 369.621094 741.996094 372.585938 737.164062 372.585938 L 653.414062 372.585938 L 653.414062 721.734375 C 653.414062 728.199219 648.167969 733.441406 641.699219 733.441406 Z M 641.699219 733.441406 " fill-opacity="1" fill-rule="nonzero"/></g></svg>