<svg xmlns="http://www.w3.org/2000/svg" xmlns:xlink="http://www.w3.org/1999/xlink" width="1000" zoomAndPan="magnify" viewBox="0 0 750 749.999995" height="1000" preserveAspectRatio="xMidYMid meet" version="1.0"><defs><clipPath id="12dcf0567a"><path d="M 0 8.71875 L 749 8.71875 L 749 742.96875 L 0 742.96875 Z M 0 8.71875 " clip-rule="nonzero"/></clipPath><clipPath id="652e500e6b"><path d="M 0 8.71875 L 749 8.71875 L 749 742.96875 L 0 742.96875 Z M 0 8.71875 " clip-rule="nonzero"/></clipPath><clipPath id="871a8b331b"><path d="M 0 7.96875 L 749 7.96875 L 749 742.21875 L 0 742.21875 Z M 0 7.96875 " clip-rule="nonzero"/></clipPath></defs><g clip-path="url(#12dcf0567a)"><path fill="#ffffff" d="M 729.363281 333.464844 C 728.113281 346.4375 717.40625 353.761719 705.609375 355.421875 C 708.960938 347.957031 710.007812 339.664062 708.046875 331.234375 C 703.078125 309.925781 664.144531 293.664062 654.574219 321.207031 C 648.800781 337.832031 657.011719 355.042969 672.414062 364.769531 C 667.8125 367.03125 662.5625 368.566406 656.964844 369.261719 C 656.03125 369.375 655.207031 369.578125 654.464844 369.847656 C 654.464844 369.847656 654.464844 369.832031 654.449219 369.832031 C 638.460938 343.699219 615.289062 319.765625 585.652344 299.21875 C 558.105469 280.140625 526.425781 265.015625 492.046875 254.277344 C 513.410156 228.316406 526.253906 195.097656 526.253906 158.933594 C 526.253906 76.105469 458.882812 8.71875 376.074219 8.71875 C 293.269531 8.71875 225.898438 76.105469 225.898438 158.933594 C 225.898438 177.347656 229.21875 195.003906 235.324219 211.3125 C 213.515625 193.167969 179.9375 178.109375 128.367188 173.203125 C 124.207031 172.808594 120.113281 174.4375 117.390625 177.617188 C 114.671875 180.765625 113.628906 185.050781 114.625 189.117188 L 141.492188 298.886719 C 107.777344 322.136719 81.777344 350.5 65.613281 381.632812 L 42.191406 381.632812 C 19.070312 381.632812 0.265625 398.433594 0.265625 419.078125 L 0.265625 516.648438 C 0.265625 537.277344 19.070312 554.074219 42.191406 554.074219 L 76.226562 554.074219 C 96.832031 585.082031 127.480469 612.445312 165.5625 633.867188 L 165.5625 705.542969 C 165.5625 726.183594 184.367188 742.96875 207.488281 742.96875 L 262.714844 742.96875 C 285.835938 742.96875 304.640625 726.183594 304.640625 705.542969 L 304.640625 678.695312 C 323.917969 681.242188 343.589844 682.507812 363.28125 682.507812 C 389.644531 682.507812 415.722656 680.246094 441.011719 675.769531 L 441.011719 705.527344 C 441.011719 726.167969 459.816406 742.953125 482.9375 742.953125 L 538.144531 742.953125 C 561.265625 742.953125 580.070312 726.167969 580.070312 705.527344 L 580.070312 626.777344 C 580.070312 625.308594 579.976562 623.851562 579.785156 622.414062 C 643.773438 580.253906 680.226562 521.09375 680.226562 458.859375 C 680.226562 433.25 674.25 408.351562 662.71875 384.941406 C 674.3125 383.375 684.640625 378.738281 692.578125 372.15625 C 692.703125 372.171875 692.816406 372.207031 692.941406 372.222656 C 722.183594 376.300781 746.347656 357.527344 748.6875 333.464844 C 749.734375 322.976562 730.375 323.023438 729.363281 333.464844 Z M 376.074219 34.535156 C 444.664062 34.535156 500.460938 90.34375 500.460938 158.949219 C 500.460938 193.152344 486.605469 224.171875 464.195312 246.683594 C 456.144531 254.78125 446.988281 261.773438 436.960938 267.421875 C 418.949219 277.578125 398.183594 283.367188 376.074219 283.367188 C 351.816406 283.367188 329.152344 276.390625 310.015625 264.320312 C 300.273438 258.199219 291.464844 250.78125 283.78125 242.269531 C 263.851562 220.203125 251.675781 190.96875 251.675781 158.933594 C 251.691406 90.34375 307.488281 34.535156 376.074219 34.535156 Z M 557.898438 605.789062 C 552.078125 609.347656 550.054688 616.84375 553.265625 622.871094 C 553.960938 624.167969 554.308594 625.496094 554.308594 626.792969 L 554.308594 705.542969 C 554.308594 711.742188 546.765625 717.167969 538.160156 717.167969 L 482.953125 717.167969 C 474.347656 717.167969 466.820312 711.742188 466.820312 705.542969 L 466.820312 660.109375 C 466.820312 656.21875 465.050781 652.515625 462.027344 650.0625 C 459.71875 648.199219 456.84375 647.199219 453.933594 647.199219 C 453.015625 647.199219 452.113281 647.296875 451.210938 647.484375 C 422.871094 653.609375 393.296875 656.722656 363.296875 656.722656 C 339.890625 656.722656 316.53125 654.792969 293.886719 651.011719 C 290.136719 650.378906 286.324219 651.441406 283.433594 653.890625 C 280.539062 656.328125 278.863281 659.933594 278.863281 663.730469 L 278.863281 705.527344 C 278.863281 711.726562 271.316406 717.152344 262.730469 717.152344 L 207.503906 717.152344 C 198.902344 717.152344 191.375 711.726562 191.375 705.527344 L 191.375 627.175781 C 191.390625 627 191.390625 626.8125 191.40625 626.621094 C 191.5625 621.699219 188.90625 617.128906 184.574219 614.820312 C 144.78125 593.71875 113.566406 565.90625 94.285156 534.445312 C 91.945312 530.617188 87.785156 528.273438 83.277344 528.273438 L 42.191406 528.273438 C 33.589844 528.273438 26.046875 522.847656 26.046875 516.648438 L 26.046875 419.078125 C 26.046875 412.875 33.589844 407.449219 42.191406 407.449219 L 73.648438 407.449219 C 78.675781 407.449219 83.246094 404.523438 85.351562 399.96875 C 100.136719 367.964844 127.039062 338.734375 163.144531 315.429688 C 167.761719 312.441406 169.976562 306.859375 168.679688 301.527344 L 144.117188 201.203125 C 209.894531 211.753906 234.878906 241.777344 244.132812 266.15625 C 246.472656 272.324219 253.066406 275.726562 259.441406 274.066406 C 264.691406 272.6875 269.988281 271.421875 275.335938 270.269531 C 286.121094 280.042969 298.3125 288.285156 311.597656 294.613281 L 311.613281 294.613281 C 260.910156 301.003906 235.875 313.199219 234.484375 313.898438 C 229.707031 316.285156 227.78125 322.074219 230.152344 326.851562 C 232.523438 331.628906 238.328125 333.574219 243.105469 331.234375 C 243.53125 331.027344 286.992188 310.148438 376.089844 310.148438 C 465.191406 310.148438 508.652344 331.027344 509.046875 331.21875 C 510.4375 331.914062 511.910156 332.246094 513.363281 332.246094 C 516.921875 332.246094 520.339844 330.285156 522.03125 326.882812 C 524.417969 322.105469 522.472656 316.285156 517.699219 313.898438 C 516.304688 313.199219 491.285156 301.003906 440.570312 294.613281 C 451.589844 289.347656 461.871094 282.78125 471.21875 275.109375 C 578.503906 304.292969 654.480469 375.667969 654.480469 458.878906 C 654.480469 514.605469 619.277344 568.152344 557.898438 605.789062 Z M 689.527344 342.59375 C 689.066406 346.339844 687.847656 349.742188 686.046875 352.78125 C 678.441406 349.300781 672.730469 342.78125 672.160156 333.210938 C 671.78125 326.742188 673.742188 319.941406 682.457031 325.066406 C 688.957031 328.894531 690.300781 336.296875 689.527344 342.59375 Z M 689.527344 342.59375 " fill-opacity="1" fill-rule="nonzero"/></g><path fill="#ffffff" d="M 172.855469 409.355469 C 172.96875 410.050781 173.046875 410.75 173.09375 411.453125 C 173.136719 412.15625 173.144531 412.859375 173.121094 413.5625 C 173.09375 414.265625 173.035156 414.964844 172.941406 415.664062 C 172.847656 416.363281 172.71875 417.054688 172.558594 417.738281 C 172.398438 418.421875 172.203125 419.097656 171.972656 419.765625 C 171.746094 420.429688 171.484375 421.085938 171.191406 421.726562 C 170.902344 422.367188 170.578125 422.992188 170.222656 423.597656 C 169.871094 424.207031 169.488281 424.796875 169.078125 425.367188 C 168.664062 425.941406 168.226562 426.488281 167.761719 427.019531 C 167.292969 427.546875 166.804688 428.050781 166.289062 428.53125 C 165.773438 429.007812 165.238281 429.464844 164.675781 429.890625 C 164.117188 430.316406 163.539062 430.714844 162.941406 431.085938 C 162.339844 431.457031 161.726562 431.796875 161.09375 432.105469 C 160.460938 432.414062 159.816406 432.691406 159.15625 432.9375 C 158.496094 433.183594 157.824219 433.398438 157.144531 433.578125 C 156.464844 433.757812 155.777344 433.90625 155.082031 434.019531 C 154.386719 434.132812 153.6875 434.210938 152.988281 434.253906 C 152.285156 434.296875 151.582031 434.308594 150.878906 434.28125 C 150.175781 434.257812 149.472656 434.199219 148.777344 434.105469 C 148.078125 434.011719 147.386719 433.882812 146.703125 433.71875 C 146.015625 433.558594 145.339844 433.363281 144.675781 433.136719 C 144.011719 432.90625 143.355469 432.648438 142.714844 432.355469 C 142.074219 432.0625 141.453125 431.738281 140.84375 431.386719 C 140.234375 431.03125 139.644531 430.648438 139.074219 430.238281 C 138.503906 429.824219 137.953125 429.386719 137.425781 428.921875 C 136.898438 428.453125 136.394531 427.964844 135.914062 427.449219 C 135.433594 426.933594 134.980469 426.394531 134.554688 425.835938 C 134.125 425.277344 133.726562 424.699219 133.359375 424.097656 C 132.988281 423.5 132.648438 422.882812 132.339844 422.25 C 132.03125 421.617188 131.75 420.972656 131.503906 420.3125 C 131.257812 419.652344 131.046875 418.984375 130.867188 418.304688 C 130.6875 417.621094 130.539062 416.933594 130.425781 416.238281 C 130.3125 415.542969 130.234375 414.847656 130.191406 414.144531 C 130.148438 413.441406 130.136719 412.738281 130.164062 412.035156 C 130.1875 411.328125 130.246094 410.628906 130.339844 409.929688 C 130.433594 409.234375 130.5625 408.542969 130.726562 407.855469 C 130.886719 407.171875 131.082031 406.496094 131.308594 405.828125 C 131.539062 405.164062 131.796875 404.511719 132.089844 403.871094 C 132.382812 403.230469 132.707031 402.605469 133.058594 401.996094 C 133.414062 401.386719 133.796875 400.796875 134.207031 400.226562 C 134.617188 399.65625 135.058594 399.105469 135.523438 398.578125 C 135.988281 398.050781 136.480469 397.546875 136.992188 397.066406 C 137.507812 396.585938 138.046875 396.132812 138.605469 395.707031 C 139.164062 395.277344 139.746094 394.878906 140.34375 394.507812 C 140.941406 394.140625 141.558594 393.800781 142.191406 393.488281 C 142.824219 393.179688 143.46875 392.902344 144.128906 392.65625 C 144.789062 392.410156 145.457031 392.195312 146.136719 392.015625 C 146.816406 391.835938 147.503906 391.691406 148.199219 391.578125 C 148.894531 391.464844 149.59375 391.386719 150.296875 391.34375 C 151 391.296875 151.703125 391.289062 152.40625 391.3125 C 153.109375 391.339844 153.808594 391.398438 154.507812 391.492188 C 155.203125 391.585938 155.894531 391.714844 156.582031 391.875 C 157.265625 392.039062 157.941406 392.230469 158.609375 392.460938 C 159.273438 392.6875 159.925781 392.949219 160.566406 393.242188 C 161.207031 393.535156 161.832031 393.855469 162.441406 394.210938 C 163.050781 394.5625 163.640625 394.945312 164.210938 395.359375 C 164.78125 395.769531 165.332031 396.210938 165.859375 396.675781 C 166.386719 397.140625 166.890625 397.632812 167.371094 398.144531 C 167.847656 398.660156 168.304688 399.199219 168.730469 399.757812 C 169.15625 400.320312 169.554688 400.898438 169.925781 401.496094 C 170.296875 402.097656 170.636719 402.710938 170.945312 403.34375 C 171.253906 403.976562 171.53125 404.621094 171.777344 405.28125 C 172.023438 405.941406 172.238281 406.613281 172.417969 407.292969 C 172.597656 407.972656 172.746094 408.660156 172.855469 409.355469 Z M 172.855469 409.355469 " fill-opacity="1" fill-rule="nonzero"/><path fill="#ffffff" d="M 355.644531 201.125 C 352.605469 197.105469 350.519531 192.34375 349.425781 186.808594 L 322.335938 189.71875 C 324.425781 203.355469 329.183594 213.90625 336.664062 221.386719 C 344.128906 228.855469 353.855469 233.332031 365.828125 234.769531 L 365.828125 253.675781 L 380.867188 253.675781 L 380.867188 234.265625 C 394.355469 232.335938 404.90625 227.066406 412.480469 218.492188 C 420.054688 209.902344 423.851562 199.351562 423.851562 186.824219 C 423.851562 175.609375 420.847656 166.433594 414.820312 159.265625 C 408.796875 152.101562 397.488281 146.265625 380.882812 141.773438 L 380.882812 101.148438 C 387.589844 104.058594 391.746094 109.597656 393.328125 117.757812 L 419.582031 114.324219 C 417.777344 103.949219 413.636719 95.660156 407.136719 89.457031 C 400.636719 83.257812 391.875 79.507812 380.882812 78.195312 L 380.882812 67.914062 L 365.84375 67.914062 L 365.84375 78.195312 C 353.933594 79.367188 344.414062 83.828125 337.25 91.53125 C 330.085938 99.25 326.511719 108.789062 326.511719 120.132812 C 326.511719 131.347656 329.675781 140.871094 336.015625 148.730469 C 342.34375 156.578125 352.289062 162.445312 365.859375 166.324219 L 365.859375 209.824219 C 362.078125 208.050781 358.695312 205.140625 355.644531 201.125 Z M 380.867188 170.816406 C 387.097656 172.617188 391.574219 175.195312 394.308594 178.550781 C 397.03125 181.902344 398.40625 185.90625 398.40625 190.542969 C 398.40625 195.730469 396.777344 200.238281 393.535156 204.082031 C 390.277344 207.925781 386.054688 210.332031 380.867188 211.296875 Z M 355.753906 129.132812 C 353.539062 125.984375 352.433594 122.582031 352.433594 118.898438 C 352.433594 114.878906 353.648438 111.210938 356.070312 107.886719 C 358.488281 104.566406 361.746094 102.207031 365.828125 100.832031 L 365.828125 136.742188 C 361.320312 134.828125 357.96875 132.28125 355.753906 129.132812 Z M 355.753906 129.132812 " fill-opacity="1" fill-rule="nonzero"/><g clip-path="url(#652e500e6b)"><path fill="#ffffff" d="M 729.363281 333.464844 C 728.113281 346.4375 717.40625 353.761719 705.609375 355.421875 C 708.960938 347.957031 710.007812 339.664062 708.046875 331.234375 C 703.078125 309.925781 664.144531 293.664062 654.574219 321.207031 C 648.800781 337.832031 657.011719 355.042969 672.414062 364.769531 C 667.8125 367.03125 662.5625 368.566406 656.964844 369.261719 C 656.03125 369.375 655.207031 369.578125 654.464844 369.847656 C 654.464844 369.847656 654.464844 369.832031 654.449219 369.832031 C 638.460938 343.699219 615.289062 319.765625 585.652344 299.21875 C 558.105469 280.140625 526.425781 265.015625 492.046875 254.277344 C 513.410156 228.316406 526.253906 195.097656 526.253906 158.933594 C 526.253906 76.105469 458.882812 8.71875 376.074219 8.71875 C 293.269531 8.71875 225.898438 76.105469 225.898438 158.933594 C 225.898438 177.347656 229.21875 195.003906 235.324219 211.3125 C 213.515625 193.167969 179.9375 178.109375 128.367188 173.203125 C 124.207031 172.808594 120.113281 174.4375 117.390625 177.617188 C 114.671875 180.765625 113.628906 185.050781 114.625 189.117188 L 141.492188 298.886719 C 107.777344 322.136719 81.777344 350.5 65.613281 381.632812 L 42.191406 381.632812 C 19.070312 381.632812 0.265625 398.433594 0.265625 419.078125 L 0.265625 516.648438 C 0.265625 537.277344 19.070312 554.074219 42.191406 554.074219 L 76.226562 554.074219 C 96.832031 585.082031 127.480469 612.445312 165.5625 633.867188 L 165.5625 705.542969 C 165.5625 726.183594 184.367188 742.96875 207.488281 742.96875 L 262.714844 742.96875 C 285.835938 742.96875 304.640625 726.183594 304.640625 705.542969 L 304.640625 678.695312 C 323.917969 681.242188 343.589844 682.507812 363.28125 682.507812 C 389.644531 682.507812 415.722656 680.246094 441.011719 675.769531 L 441.011719 705.527344 C 441.011719 726.167969 459.816406 742.953125 482.9375 742.953125 L 538.144531 742.953125 C 561.265625 742.953125 580.070312 726.167969 580.070312 705.527344 L 580.070312 626.777344 C 580.070312 625.308594 579.976562 623.851562 579.785156 622.414062 C 643.773438 580.253906 680.226562 521.09375 680.226562 458.859375 C 680.226562 433.25 674.25 408.351562 662.71875 384.941406 C 674.3125 383.375 684.640625 378.738281 692.578125 372.15625 C 692.703125 372.171875 692.816406 372.207031 692.941406 372.222656 C 722.183594 376.300781 746.347656 357.527344 748.6875 333.464844 C 749.734375 322.976562 730.375 323.023438 729.363281 333.464844 Z M 376.074219 34.535156 C 444.664062 34.535156 500.460938 90.34375 500.460938 158.949219 C 500.460938 193.152344 486.605469 224.171875 464.195312 246.683594 C 456.144531 254.78125 446.988281 261.773438 436.960938 267.421875 C 418.949219 277.578125 398.183594 283.367188 376.074219 283.367188 C 351.816406 283.367188 329.152344 276.390625 310.015625 264.320312 C 300.273438 258.199219 291.464844 250.78125 283.78125 242.269531 C 263.851562 220.203125 251.675781 190.96875 251.675781 158.933594 C 251.691406 90.34375 307.488281 34.535156 376.074219 34.535156 Z M 557.898438 605.789062 C 552.078125 609.347656 550.054688 616.84375 553.265625 622.871094 C 553.960938 624.167969 554.308594 625.496094 554.308594 626.792969 L 554.308594 705.542969 C 554.308594 711.742188 546.765625 717.167969 538.160156 717.167969 L 482.953125 717.167969 C 474.347656 717.167969 466.820312 711.742188 466.820312 705.542969 L 466.820312 660.109375 C 466.820312 656.21875 465.050781 652.515625 462.027344 650.0625 C 459.71875 648.199219 456.84375 647.199219 453.933594 647.199219 C 453.015625 647.199219 452.113281 647.296875 451.210938 647.484375 C 422.871094 653.609375 393.296875 656.722656 363.296875 656.722656 C 339.890625 656.722656 316.53125 654.792969 293.886719 651.011719 C 290.136719 650.378906 286.324219 651.441406 283.433594 653.890625 C 280.539062 656.328125 278.863281 659.933594 278.863281 663.730469 L 278.863281 705.527344 C 278.863281 711.726562 271.316406 717.152344 262.730469 717.152344 L 207.503906 717.152344 C 198.902344 717.152344 191.375 711.726562 191.375 705.527344 L 191.375 627.175781 C 191.390625 627 191.390625 626.8125 191.40625 626.621094 C 191.5625 621.699219 188.90625 617.128906 184.574219 614.820312 C 144.78125 593.71875 113.566406 565.90625 94.285156 534.445312 C 91.945312 530.617188 87.785156 528.273438 83.277344 528.273438 L 42.191406 528.273438 C 33.589844 528.273438 26.046875 522.847656 26.046875 516.648438 L 26.046875 419.078125 C 26.046875 412.875 33.589844 407.449219 42.191406 407.449219 L 73.648438 407.449219 C 78.675781 407.449219 83.246094 404.523438 85.351562 399.96875 C 100.136719 367.964844 127.039062 338.734375 163.144531 315.429688 C 167.761719 312.441406 169.976562 306.859375 168.679688 301.527344 L 144.117188 201.203125 C 209.894531 211.753906 234.878906 241.777344 244.132812 266.15625 C 246.472656 272.324219 253.066406 275.726562 259.441406 274.066406 C 264.691406 272.6875 269.988281 271.421875 275.335938 270.269531 C 286.121094 280.042969 298.3125 288.285156 311.597656 294.613281 L 311.613281 294.613281 C 260.910156 301.003906 235.875 313.199219 234.484375 313.898438 C 229.707031 316.285156 227.78125 322.074219 230.152344 326.851562 C 232.523438 331.628906 238.328125 333.574219 243.105469 331.234375 C 243.53125 331.027344 286.992188 310.148438 376.089844 310.148438 C 465.191406 310.148438 508.652344 331.027344 509.046875 331.21875 C 510.4375 331.914062 511.910156 332.246094 513.363281 332.246094 C 516.921875 332.246094 520.339844 330.285156 522.03125 326.882812 C 524.417969 322.105469 522.472656 316.285156 517.699219 313.898438 C 516.304688 313.199219 491.285156 301.003906 440.570312 294.613281 C 451.589844 289.347656 461.871094 282.78125 471.21875 275.109375 C 578.503906 304.292969 654.480469 375.667969 654.480469 458.878906 C 654.480469 514.605469 619.277344 568.152344 557.898438 605.789062 Z M 689.527344 342.59375 C 689.066406 346.339844 687.847656 349.742188 686.046875 352.78125 C 678.441406 349.300781 672.730469 342.78125 672.160156 333.210938 C 671.78125 326.742188 673.742188 319.941406 682.457031 325.066406 C 688.957031 328.894531 690.300781 336.296875 689.527344 342.59375 Z M 689.527344 342.59375 " fill-opacity="1" fill-rule="nonzero"/></g><path fill="#ffffff" d="M 172.855469 409.355469 C 172.96875 410.050781 173.046875 410.75 173.09375 411.453125 C 173.136719 412.15625 173.144531 412.859375 173.121094 413.5625 C 173.09375 414.265625 173.035156 414.964844 172.941406 415.664062 C 172.847656 416.363281 172.71875 417.054688 172.558594 417.738281 C 172.398438 418.421875 172.203125 419.097656 171.972656 419.765625 C 171.746094 420.429688 171.484375 421.085938 171.191406 421.726562 C 170.902344 422.367188 170.578125 422.992188 170.222656 423.597656 C 169.871094 424.207031 169.488281 424.796875 169.078125 425.367188 C 168.664062 425.941406 168.226562 426.488281 167.761719 427.019531 C 167.292969 427.546875 166.804688 428.050781 166.289062 428.53125 C 165.773438 429.007812 165.238281 429.464844 164.675781 429.890625 C 164.117188 430.316406 163.539062 430.714844 162.941406 431.085938 C 162.339844 431.457031 161.726562 431.796875 161.09375 432.105469 C 160.460938 432.414062 159.816406 432.691406 159.15625 432.9375 C 158.496094 433.183594 157.824219 433.398438 157.144531 433.578125 C 156.464844 433.757812 155.777344 433.90625 155.082031 434.019531 C 154.386719 434.132812 153.6875 434.210938 152.988281 434.253906 C 152.285156 434.296875 151.582031 434.308594 150.878906 434.28125 C 150.175781 434.257812 149.472656 434.199219 148.777344 434.105469 C 148.078125 434.011719 147.386719 433.882812 146.703125 433.71875 C 146.015625 433.558594 145.339844 433.363281 144.675781 433.136719 C 144.011719 432.90625 143.355469 432.648438 142.714844 432.355469 C 142.074219 432.0625 141.453125 431.738281 140.84375 431.386719 C 140.234375 431.03125 139.644531 430.648438 139.074219 430.238281 C 138.503906 429.824219 137.953125 429.386719 137.425781 428.921875 C 136.898438 428.453125 136.394531 427.964844 135.914062 427.449219 C 135.433594 426.933594 134.980469 426.394531 134.554688 425.835938 C 134.125 425.277344 133.726562 424.699219 133.359375 424.097656 C 132.988281 423.5 132.648438 422.882812 132.339844 422.25 C 132.03125 421.617188 131.75 420.972656 131.503906 420.3125 C 131.257812 419.652344 131.046875 418.984375 130.867188 418.304688 C 130.6875 417.621094 130.539062 416.933594 130.425781 416.238281 C 130.3125 415.542969 130.234375 414.847656 130.191406 414.144531 C 130.148438 413.441406 130.136719 412.738281 130.164062 412.035156 C 130.1875 411.328125 130.246094 410.628906 130.339844 409.929688 C 130.433594 409.234375 130.5625 408.542969 130.726562 407.855469 C 130.886719 407.171875 131.082031 406.496094 131.308594 405.828125 C 131.539062 405.164062 131.796875 404.511719 132.089844 403.871094 C 132.382812 403.230469 132.707031 402.605469 133.058594 401.996094 C 133.414062 401.386719 133.796875 400.796875 134.207031 400.226562 C 134.617188 399.65625 135.058594 399.105469 135.523438 398.578125 C 135.988281 398.050781 136.480469 397.546875 136.992188 397.066406 C 137.507812 396.585938 138.046875 396.132812 138.605469 395.707031 C 139.164062 395.277344 139.746094 394.878906 140.34375 394.507812 C 140.941406 394.140625 141.558594 393.800781 142.191406 393.488281 C 142.824219 393.179688 143.46875 392.902344 144.128906 392.65625 C 144.789062 392.410156 145.457031 392.195312 146.136719 392.015625 C 146.816406 391.835938 147.503906 391.691406 148.199219 391.578125 C 148.894531 391.464844 149.59375 391.386719 150.296875 391.34375 C 151 391.296875 151.703125 391.289062 152.40625 391.3125 C 153.109375 391.339844 153.808594 391.398438 154.507812 391.492188 C 155.203125 391.585938 155.894531 391.714844 156.582031 391.875 C 157.265625 392.039062 157.941406 392.230469 158.609375 392.460938 C 159.273438 392.6875 159.925781 392.949219 160.566406 393.242188 C 161.207031 393.535156 161.832031 393.855469 162.441406 394.210938 C 163.050781 394.5625 163.640625 394.945312 164.210938 395.359375 C 164.78125 395.769531 165.332031 396.210938 165.859375 396.675781 C 166.386719 397.140625 166.890625 397.632812 167.371094 398.144531 C 167.847656 398.660156 168.304688 399.199219 168.730469 399.757812 C 169.15625 400.320312 169.554688 400.898438 169.925781 401.496094 C 170.296875 402.097656 170.636719 402.710938 170.945312 403.34375 C 171.253906 403.976562 171.53125 404.621094 171.777344 405.28125 C 172.023438 405.941406 172.238281 406.613281 172.417969 407.292969 C 172.597656 407.972656 172.746094 408.660156 172.855469 409.355469 Z M 172.855469 409.355469 " fill-opacity="1" fill-rule="nonzero"/><path fill="#ffffff" d="M 355.644531 201.125 C 352.605469 197.105469 350.519531 192.34375 349.425781 186.808594 L 322.335938 189.71875 C 324.425781 203.355469 329.183594 213.90625 336.664062 221.386719 C 344.128906 228.855469 353.855469 233.332031 365.828125 234.769531 L 365.828125 253.675781 L 380.867188 253.675781 L 380.867188 234.265625 C 394.355469 232.335938 404.90625 227.066406 412.480469 218.492188 C 420.054688 209.902344 423.851562 199.351562 423.851562 186.824219 C 423.851562 175.609375 420.847656 166.433594 414.820312 159.265625 C 408.796875 152.101562 397.488281 146.265625 380.882812 141.773438 L 380.882812 101.148438 C 387.589844 104.058594 391.746094 109.597656 393.328125 117.757812 L 419.582031 114.324219 C 417.777344 103.949219 413.636719 95.660156 407.136719 89.457031 C 400.636719 83.257812 391.875 79.507812 380.882812 78.195312 L 380.882812 67.914062 L 365.84375 67.914062 L 365.84375 78.195312 C 353.933594 79.367188 344.414062 83.828125 337.25 91.53125 C 330.085938 99.25 326.511719 108.789062 326.511719 120.132812 C 326.511719 131.347656 329.675781 140.871094 336.015625 148.730469 C 342.34375 156.578125 352.289062 162.445312 365.859375 166.324219 L 365.859375 209.824219 C 362.078125 208.050781 358.695312 205.140625 355.644531 201.125 Z M 380.867188 170.816406 C 387.097656 172.617188 391.574219 175.195312 394.308594 178.550781 C 397.03125 181.902344 398.40625 185.90625 398.40625 190.542969 C 398.40625 195.730469 396.777344 200.238281 393.535156 204.082031 C 390.277344 207.925781 386.054688 210.332031 380.867188 211.296875 Z M 355.753906 129.132812 C 353.539062 125.984375 352.433594 122.582031 352.433594 118.898438 C 352.433594 114.878906 353.648438 111.210938 356.070312 107.886719 C 358.488281 104.566406 361.746094 102.207031 365.828125 100.832031 L 365.828125 136.742188 C 361.320312 134.828125 357.96875 132.28125 355.753906 129.132812 Z M 355.753906 129.132812 " fill-opacity="1" fill-rule="nonzero"/><g clip-path="url(#871a8b331b)"><path fill="#ffffff" d="M 729.363281 332.714844 C 728.113281 345.6875 717.40625 353.011719 705.609375 354.671875 C 708.960938 347.207031 710.007812 338.914062 708.046875 330.484375 C 703.078125 309.175781 664.144531 292.914062 654.574219 320.457031 C 648.800781 337.082031 657.011719 354.292969 672.414062 364.019531 C 667.8125 366.28125 662.5625 367.816406 656.964844 368.511719 C 656.03125 368.625 655.207031 368.828125 654.464844 369.097656 C 654.464844 369.097656 654.464844 369.082031 654.449219 369.082031 C 638.460938 342.949219 615.289062 319.015625 585.652344 298.46875 C 558.105469 279.390625 526.425781 264.265625 492.046875 253.527344 C 513.410156 227.566406 526.253906 194.347656 526.253906 158.183594 C 526.253906 75.355469 458.882812 7.96875 376.074219 7.96875 C 293.269531 7.96875 225.898438 75.355469 225.898438 158.183594 C 225.898438 176.597656 229.21875 194.253906 235.324219 210.5625 C 213.515625 192.417969 179.9375 177.359375 128.367188 172.453125 C 124.207031 172.058594 120.113281 173.6875 117.390625 176.867188 C 114.671875 180.015625 113.628906 184.300781 114.625 188.367188 L 141.492188 298.136719 C 107.777344 321.386719 81.777344 349.75 65.613281 380.882812 L 42.191406 380.882812 C 19.070312 380.882812 0.265625 397.683594 0.265625 418.328125 L 0.265625 515.898438 C 0.265625 536.527344 19.070312 553.324219 42.191406 553.324219 L 76.226562 553.324219 C 96.832031 584.332031 127.480469 611.695312 165.5625 633.117188 L 165.5625 704.792969 C 165.5625 725.433594 184.367188 742.21875 207.488281 742.21875 L 262.714844 742.21875 C 285.835938 742.21875 304.640625 725.433594 304.640625 704.792969 L 304.640625 677.945312 C 323.917969 680.492188 343.589844 681.757812 363.28125 681.757812 C 389.644531 681.757812 415.722656 679.496094 441.011719 675.019531 L 441.011719 704.777344 C 441.011719 725.417969 459.816406 742.203125 482.9375 742.203125 L 538.144531 742.203125 C 561.265625 742.203125 580.070312 725.417969 580.070312 704.777344 L 580.070312 626.027344 C 580.070312 624.558594 579.976562 623.101562 579.785156 621.664062 C 643.773438 579.503906 680.226562 520.34375 680.226562 458.109375 C 680.226562 432.5 674.25 407.601562 662.71875 384.191406 C 674.3125 382.625 684.640625 377.988281 692.578125 371.40625 C 692.703125 371.421875 692.816406 371.457031 692.941406 371.472656 C 722.183594 375.550781 746.347656 356.777344 748.6875 332.714844 C 749.734375 322.226562 730.375 322.273438 729.363281 332.714844 Z M 376.074219 33.785156 C 444.664062 33.785156 500.460938 89.59375 500.460938 158.199219 C 500.460938 192.402344 486.605469 223.421875 464.195312 245.933594 C 456.144531 254.03125 446.988281 261.023438 436.960938 266.671875 C 418.949219 276.828125 398.183594 282.617188 376.074219 282.617188 C 351.816406 282.617188 329.152344 275.640625 310.015625 263.570312 C 300.273438 257.449219 291.464844 250.03125 283.78125 241.519531 C 263.851562 219.453125 251.675781 190.21875 251.675781 158.183594 C 251.691406 89.59375 307.488281 33.785156 376.074219 33.785156 Z M 557.898438 605.039062 C 552.078125 608.597656 550.054688 616.09375 553.265625 622.121094 C 553.960938 623.417969 554.308594 624.746094 554.308594 626.042969 L 554.308594 704.792969 C 554.308594 710.992188 546.765625 716.417969 538.160156 716.417969 L 482.953125 716.417969 C 474.347656 716.417969 466.820312 710.992188 466.820312 704.792969 L 466.820312 659.359375 C 466.820312 655.46875 465.050781 651.765625 462.027344 649.3125 C 459.71875 647.449219 456.84375 646.449219 453.933594 646.449219 C 453.015625 646.449219 452.113281 646.546875 451.210938 646.734375 C 422.871094 652.859375 393.296875 655.972656 363.296875 655.972656 C 339.890625 655.972656 316.53125 654.042969 293.886719 650.261719 C 290.136719 649.628906 286.324219 650.691406 283.433594 653.140625 C 280.539062 655.578125 278.863281 659.183594 278.863281 662.980469 L 278.863281 704.777344 C 278.863281 710.976562 271.316406 716.402344 262.730469 716.402344 L 207.503906 716.402344 C 198.902344 716.402344 191.375 710.976562 191.375 704.777344 L 191.375 626.425781 C 191.390625 626.25 191.390625 626.0625 191.40625 625.871094 C 191.5625 620.949219 188.90625 616.378906 184.574219 614.070312 C 144.78125 592.96875 113.566406 565.15625 94.285156 533.695312 C 91.945312 529.867188 87.785156 527.523438 83.277344 527.523438 L 42.191406 527.523438 C 33.589844 527.523438 26.046875 522.097656 26.046875 515.898438 L 26.046875 418.328125 C 26.046875 412.125 33.589844 406.699219 42.191406 406.699219 L 73.648438 406.699219 C 78.675781 406.699219 83.246094 403.773438 85.351562 399.21875 C 100.136719 367.214844 127.039062 337.984375 163.144531 314.679688 C 167.761719 311.691406 169.976562 306.109375 168.679688 300.777344 L 144.117188 200.453125 C 209.894531 211.003906 234.878906 241.027344 244.132812 265.40625 C 246.472656 271.574219 253.066406 274.976562 259.441406 273.316406 C 264.691406 271.9375 269.988281 270.671875 275.335938 269.519531 C 286.121094 279.292969 298.3125 287.535156 311.597656 293.863281 L 311.613281 293.863281 C 260.910156 300.253906 235.875 312.449219 234.484375 313.148438 C 229.707031 315.535156 227.78125 321.324219 230.152344 326.101562 C 232.523438 330.878906 238.328125 332.824219 243.105469 330.484375 C 243.53125 330.277344 286.992188 309.398438 376.089844 309.398438 C 465.191406 309.398438 508.652344 330.277344 509.046875 330.46875 C 510.4375 331.164062 511.910156 331.496094 513.363281 331.496094 C 516.921875 331.496094 520.339844 329.535156 522.03125 326.132812 C 524.417969 321.355469 522.472656 315.535156 517.699219 313.148438 C 516.304688 312.449219 491.285156 300.253906 440.570312 293.863281 C 451.589844 288.597656 461.871094 282.03125 471.21875 274.359375 C 578.503906 303.542969 654.480469 374.917969 654.480469 458.128906 C 654.480469 513.855469 619.277344 567.402344 557.898438 605.039062 Z M 689.527344 341.84375 C 689.066406 345.589844 687.847656 348.992188 686.046875 352.03125 C 678.441406 348.550781 672.730469 342.03125 672.160156 332.460938 C 671.78125 325.992188 673.742188 319.191406 682.457031 324.316406 C 688.957031 328.144531 690.300781 335.546875 689.527344 341.84375 Z M 689.527344 341.84375 " fill-opacity="1" fill-rule="nonzero"/></g><path fill="#ffffff" d="M 172.855469 408.605469 C 172.96875 409.300781 173.046875 410 173.09375 410.703125 C 173.136719 411.40625 173.144531 412.109375 173.121094 412.8125 C 173.09375 413.515625 173.035156 414.214844 172.941406 414.914062 C 172.847656 415.613281 172.71875 416.304688 172.558594 416.988281 C 172.398438 417.671875 172.203125 418.347656 171.972656 419.015625 C 171.746094 419.679688 171.484375 420.335938 171.191406 420.976562 C 170.902344 421.617188 170.578125 422.242188 170.222656 422.847656 C 169.871094 423.457031 169.488281 424.046875 169.078125 424.617188 C 168.664062 425.191406 168.226562 425.738281 167.761719 426.269531 C 167.292969 426.796875 166.804688 427.300781 166.289062 427.78125 C 165.773438 428.257812 165.238281 428.714844 164.675781 429.140625 C 164.117188 429.566406 163.539062 429.964844 162.941406 430.335938 C 162.339844 430.707031 161.726562 431.046875 161.09375 431.355469 C 160.460938 431.664062 159.816406 431.941406 159.15625 432.1875 C 158.496094 432.433594 157.824219 432.648438 157.144531 432.828125 C 156.464844 433.007812 155.777344 433.15625 155.082031 433.269531 C 154.386719 433.382812 153.6875 433.460938 152.988281 433.503906 C 152.285156 433.546875 151.582031 433.558594 150.878906 433.53125 C 150.175781 433.507812 149.472656 433.449219 148.777344 433.355469 C 148.078125 433.261719 147.386719 433.132812 146.703125 432.96875 C 146.015625 432.808594 145.339844 432.613281 144.675781 432.386719 C 144.011719 432.15625 143.355469 431.898438 142.714844 431.605469 C 142.074219 431.3125 141.453125 430.988281 140.84375 430.636719 C 140.234375 430.28125 139.644531 429.898438 139.074219 429.488281 C 138.503906 429.074219 137.953125 428.636719 137.425781 428.171875 C 136.898438 427.703125 136.394531 427.214844 135.914062 426.699219 C 135.433594 426.183594 134.980469 425.644531 134.554688 425.085938 C 134.125 424.527344 133.726562 423.949219 133.359375 423.347656 C 132.988281 422.75 132.648438 422.132812 132.339844 421.5 C 132.03125 420.867188 131.75 420.222656 131.503906 419.5625 C 131.257812 418.902344 131.046875 418.234375 130.867188 417.554688 C 130.6875 416.871094 130.539062 416.183594 130.425781 415.488281 C 130.3125 414.792969 130.234375 414.097656 130.191406 413.394531 C 130.148438 412.691406 130.136719 411.988281 130.164062 411.285156 C 130.1875 410.578125 130.246094 409.878906 130.339844 409.179688 C 130.433594 408.484375 130.5625 407.792969 130.726562 407.105469 C 130.886719 406.421875 131.082031 405.746094 131.308594 405.078125 C 131.539062 404.414062 131.796875 403.761719 132.089844 403.121094 C 132.382812 402.480469 132.707031 401.855469 133.058594 401.246094 C 133.414062 400.636719 133.796875 400.046875 134.207031 399.476562 C 134.617188 398.90625 135.058594 398.355469 135.523438 397.828125 C 135.988281 397.300781 136.480469 396.796875 136.992188 396.316406 C 137.507812 395.835938 138.046875 395.382812 138.605469 394.957031 C 139.164062 394.527344 139.746094 394.128906 140.34375 393.757812 C 140.941406 393.390625 141.558594 393.050781 142.191406 392.738281 C 142.824219 392.429688 143.46875 392.152344 144.128906 391.90625 C 144.789062 391.660156 145.457031 391.445312 146.136719 391.265625 C 146.816406 391.085938 147.503906 390.941406 148.199219 390.828125 C 148.894531 390.714844 149.59375 390.636719 150.296875 390.59375 C 151 390.546875 151.703125 390.539062 152.40625 390.5625 C 153.109375 390.589844 153.808594 390.648438 154.507812 390.742188 C 155.203125 390.835938 155.894531 390.964844 156.582031 391.125 C 157.265625 391.289062 157.941406 391.480469 158.609375 391.710938 C 159.273438 391.9375 159.925781 392.199219 160.566406 392.492188 C 161.207031 392.785156 161.832031 393.105469 162.441406 393.460938 C 163.050781 393.8125 163.640625 394.195312 164.210938 394.609375 C 164.78125 395.019531 165.332031 395.460938 165.859375 395.925781 C 166.386719 396.390625 166.890625 396.882812 167.371094 397.394531 C 167.847656 397.910156 168.304688 398.449219 168.730469 399.007812 C 169.15625 399.570312 169.554688 400.148438 169.925781 400.746094 C 170.296875 401.347656 170.636719 401.960938 170.945312 402.59375 C 171.253906 403.226562 171.53125 403.871094 171.777344 404.53125 C 172.023438 405.191406 172.238281 405.863281 172.417969 406.542969 C 172.597656 407.222656 172.746094 407.910156 172.855469 408.605469 Z M 172.855469 408.605469 " fill-opacity="1" fill-rule="nonzero"/><path fill="#ffffff" d="M 355.644531 200.375 C 352.605469 196.355469 350.519531 191.59375 349.425781 186.058594 L 322.335938 188.96875 C 324.425781 202.605469 329.183594 213.15625 336.664062 220.636719 C 344.128906 228.105469 353.855469 232.582031 365.828125 234.019531 L 365.828125 252.925781 L 380.867188 252.925781 L 380.867188 233.515625 C 394.355469 231.585938 404.90625 226.316406 412.480469 217.742188 C 420.054688 209.152344 423.851562 198.601562 423.851562 186.074219 C 423.851562 174.859375 420.847656 165.683594 414.820312 158.515625 C 408.796875 151.351562 397.488281 145.515625 380.882812 141.023438 L 380.882812 100.398438 C 387.589844 103.308594 391.746094 108.847656 393.328125 117.007812 L 419.582031 113.574219 C 417.777344 103.199219 413.636719 94.910156 407.136719 88.707031 C 400.636719 82.507812 391.875 78.757812 380.882812 77.445312 L 380.882812 67.164062 L 365.84375 67.164062 L 365.84375 77.445312 C 353.933594 78.617188 344.414062 83.078125 337.25 90.78125 C 330.085938 98.5 326.511719 108.039062 326.511719 119.382812 C 326.511719 130.597656 329.675781 140.121094 336.015625 147.980469 C 342.34375 155.828125 352.289062 161.695312 365.859375 165.574219 L 365.859375 209.074219 C 362.078125 207.300781 358.695312 204.390625 355.644531 200.375 Z M 380.867188 170.066406 C 387.097656 171.867188 391.574219 174.445312 394.308594 177.800781 C 397.03125 181.152344 398.40625 185.15625 398.40625 189.792969 C 398.40625 194.980469 396.777344 199.488281 393.535156 203.332031 C 390.277344 207.175781 386.054688 209.582031 380.867188 210.546875 Z M 355.753906 128.382812 C 353.539062 125.234375 352.433594 121.832031 352.433594 118.148438 C 352.433594 114.128906 353.648438 110.460938 356.070312 107.136719 C 358.488281 103.816406 361.746094 101.457031 365.828125 100.082031 L 365.828125 135.992188 C 361.320312 134.078125 357.96875 131.53125 355.753906 128.382812 Z M 355.753906 128.382812 " fill-opacity="1" fill-rule="nonzero"/></svg>