<svg xmlns="http://www.w3.org/2000/svg" xmlns:xlink="http://www.w3.org/1999/xlink" width="1000" zoomAndPan="magnify" viewBox="0 0 750 749.999995" height="1000" preserveAspectRatio="xMidYMid meet" version="1.0"><path fill="#ffffff" d="M 737.847656 749.945312 L 12.210938 749.945312 C 5.644531 749.945312 0.316406 744.621094 0.316406 738.050781 L 0.316406 670.265625 C 0.316406 557.484375 92.070312 465.734375 204.847656 465.734375 L 545.210938 465.734375 C 657.992188 465.734375 749.742188 557.484375 749.742188 670.265625 L 749.742188 738.050781 C 749.742188 744.621094 744.417969 749.945312 737.847656 749.945312 Z M 375.03125 433.753906 C 255.445312 433.753906 158.152344 336.464844 158.152344 216.875 C 158.152344 97.289062 255.445312 0 375.03125 0 C 494.617188 0 591.90625 97.289062 591.90625 216.875 C 591.90625 336.464844 494.617188 433.753906 375.03125 433.753906 Z M 375.03125 433.753906 " fill-opacity="1" fill-rule="nonzero"/></svg>