<svg xmlns="http://www.w3.org/2000/svg" xmlns:xlink="http://www.w3.org/1999/xlink" width="1000" zoomAndPan="magnify" viewBox="0 0 750 749.999995" height="1000" preserveAspectRatio="xMidYMid meet" version="1.0"><path fill="#000000" d="M 524.0625 304.6875 C 515.695312 270.796875 489.070312 234.375 433.59375 234.375 C 388.875 234.375 370.335938 271.195312 358.289062 304.6875 L 274.59375 304.6875 C 284.8125 283.96875 308.015625 281.390625 316.546875 281.25 C 329.414062 281.179688 339.84375 270.703125 339.84375 257.8125 C 339.84375 244.875 329.34375 234.375 316.40625 234.375 C 283.359375 234.375 236.226562 253.59375 225.09375 304.6875 L 210.9375 304.6875 C 198 304.6875 187.5 315.1875 187.5 328.125 C 187.5 341.0625 198 351.5625 210.9375 351.5625 L 225.09375 351.5625 C 236.226562 402.65625 283.359375 421.875 316.40625 421.875 C 361.125 421.875 379.664062 385.054688 391.710938 351.5625 L 475.078125 351.5625 C 469.429688 363.398438 457.921875 375 433.59375 375 C 420.632812 375 410.15625 385.5 410.15625 398.4375 C 410.15625 411.398438 420.632812 421.875 433.59375 421.875 C 489.070312 421.875 515.71875 385.453125 524.0625 351.5625 L 539.0625 351.5625 C 552.023438 351.5625 562.5 341.0625 562.5 328.125 C 562.5 315.1875 552.023438 304.6875 539.0625 304.6875 Z M 316.40625 375 C 310.3125 375 285.421875 373.335938 274.664062 351.5625 L 341.273438 351.5625 C 334.242188 367.265625 327.257812 375 316.40625 375 Z M 408.703125 304.6875 C 415.734375 288.984375 422.742188 281.25 433.59375 281.25 C 457.757812 281.25 469.289062 292.734375 474.984375 304.6875 Z M 656.25 375 L 656.25 70.3125 C 656.25 18.726562 614.203125 0 585.9375 0 L 164.0625 0 C 112.476562 0 93.75 42.046875 93.75 70.3125 L 93.75 375 L 0 375 L 0 515.625 L 750 515.625 L 750 375 Z M 93.75 468.75 L 46.875 468.75 L 46.875 421.875 L 93.75 421.875 Z M 140.625 70.59375 C 140.90625 59.765625 145.195312 46.875 164.0625 46.875 L 183.1875 46.875 C 176.109375 66.726562 160.476562 82.359375 140.625 89.4375 Z M 609.375 468.75 L 140.625 468.75 L 140.625 138.257812 C 186.46875 128.90625 222.65625 92.71875 232.007812 46.875 L 517.992188 46.875 C 527.34375 92.71875 563.53125 128.90625 609.375 138.257812 Z M 609.375 89.4375 C 589.523438 82.359375 573.890625 66.726562 566.8125 46.875 L 585.65625 46.875 C 596.484375 47.15625 609.375 51.445312 609.375 70.3125 Z M 703.125 468.75 L 656.25 468.75 L 656.25 421.875 L 703.125 421.875 Z M 485.320312 616.242188 C 494.484375 625.40625 494.484375 640.21875 485.320312 649.382812 L 391.570312 743.132812 C 387 747.703125 381 750 375 750 C 369 750 363 747.703125 358.429688 743.132812 L 264.679688 649.382812 C 255.515625 640.21875 255.515625 625.40625 264.679688 616.242188 C 273.84375 607.078125 288.65625 607.078125 297.820312 616.242188 L 351.5625 669.984375 L 351.5625 562.5 C 351.5625 549.539062 362.0625 539.0625 375 539.0625 C 387.9375 539.0625 398.4375 549.539062 398.4375 562.5 L 398.4375 669.984375 L 452.179688 616.242188 C 461.34375 607.078125 476.15625 607.078125 485.320312 616.242188 Z M 485.320312 616.242188 " fill-opacity="1" fill-rule="nonzero"/><path fill="#ffffff" d="M 524.0625 304.6875 C 515.695312 270.796875 489.070312 234.375 433.59375 234.375 C 388.875 234.375 370.335938 271.195312 358.289062 304.6875 L 274.59375 304.6875 C 284.8125 283.96875 308.015625 281.390625 316.546875 281.25 C 329.414062 281.179688 339.84375 270.703125 339.84375 257.8125 C 339.84375 244.875 329.34375 234.375 316.40625 234.375 C 283.359375 234.375 236.226562 253.59375 225.09375 304.6875 L 210.9375 304.6875 C 198 304.6875 187.5 315.1875 187.5 328.125 C 187.5 341.0625 198 351.5625 210.9375 351.5625 L 225.09375 351.5625 C 236.226562 402.65625 283.359375 421.875 316.40625 421.875 C 361.125 421.875 379.664062 385.054688 391.710938 351.5625 L 475.078125 351.5625 C 469.429688 363.398438 457.921875 375 433.59375 375 C 420.632812 375 410.15625 385.5 410.15625 398.4375 C 410.15625 411.398438 420.632812 421.875 433.59375 421.875 C 489.070312 421.875 515.71875 385.453125 524.0625 351.5625 L 539.0625 351.5625 C 552.023438 351.5625 562.5 341.0625 562.5 328.125 C 562.5 315.1875 552.023438 304.6875 539.0625 304.6875 Z M 316.40625 375 C 310.3125 375 285.421875 373.335938 274.664062 351.5625 L 341.273438 351.5625 C 334.242188 367.265625 327.257812 375 316.40625 375 Z M 408.703125 304.6875 C 415.734375 288.984375 422.742188 281.25 433.59375 281.25 C 457.757812 281.25 469.289062 292.734375 474.984375 304.6875 Z M 656.25 375 L 656.25 70.3125 C 656.25 18.726562 614.203125 0 585.9375 0 L 164.0625 0 C 112.476562 0 93.75 42.046875 93.75 70.3125 L 93.75 375 L 0 375 L 0 515.625 L 750 515.625 L 750 375 Z M 93.75 468.75 L 46.875 468.75 L 46.875 421.875 L 93.75 421.875 Z M 140.625 70.59375 C 140.90625 59.765625 145.195312 46.875 164.0625 46.875 L 183.1875 46.875 C 176.109375 66.726562 160.476562 82.359375 140.625 89.4375 Z M 609.375 468.75 L 140.625 468.75 L 140.625 138.257812 C 186.46875 128.90625 222.65625 92.71875 232.007812 46.875 L 517.992188 46.875 C 527.34375 92.71875 563.53125 128.90625 609.375 138.257812 Z M 609.375 89.4375 C 589.523438 82.359375 573.890625 66.726562 566.8125 46.875 L 585.65625 46.875 C 596.484375 47.15625 609.375 51.445312 609.375 70.3125 Z M 703.125 468.75 L 656.25 468.75 L 656.25 421.875 L 703.125 421.875 Z M 485.320312 616.242188 C 494.484375 625.40625 494.484375 640.21875 485.320312 649.382812 L 391.570312 743.132812 C 387 747.703125 381 750 375 750 C 369 750 363 747.703125 358.429688 743.132812 L 264.679688 649.382812 C 255.515625 640.21875 255.515625 625.40625 264.679688 616.242188 C 273.84375 607.078125 288.65625 607.078125 297.820312 616.242188 L 351.5625 669.984375 L 351.5625 562.5 C 351.5625 549.539062 362.0625 539.0625 375 539.0625 C 387.9375 539.0625 398.4375 549.539062 398.4375 562.5 L 398.4375 669.984375 L 452.179688 616.242188 C 461.34375 607.078125 476.15625 607.078125 485.320312 616.242188 Z M 485.320312 616.242188 " fill-opacity="1" fill-rule="nonzero"/></svg>