<svg xmlns="http://www.w3.org/2000/svg" xmlns:xlink="http://www.w3.org/1999/xlink" width="1000" zoomAndPan="magnify" viewBox="0 0 750 749.999995" height="1000" preserveAspectRatio="xMidYMid meet" version="1.0"><path fill="#ffffff" d="M 129.671875 363.597656 C 129.671875 364.363281 129.597656 365.125 129.449219 365.878906 C 129.296875 366.628906 129.078125 367.359375 128.785156 368.070312 C 128.488281 368.777344 128.128906 369.449219 127.703125 370.089844 C 127.277344 370.726562 126.792969 371.316406 126.25 371.859375 C 125.707031 372.402344 125.117188 372.886719 124.480469 373.3125 C 123.84375 373.738281 123.167969 374.097656 122.460938 374.390625 C 121.753906 374.683594 121.023438 374.90625 120.269531 375.054688 C 119.515625 375.207031 118.757812 375.28125 117.992188 375.28125 C 117.222656 375.28125 116.464844 375.207031 115.710938 375.054688 C 114.960938 374.90625 114.230469 374.683594 113.519531 374.390625 C 112.8125 374.097656 112.136719 373.738281 111.5 373.3125 C 110.863281 372.886719 110.273438 372.402344 109.730469 371.859375 C 109.1875 371.316406 108.703125 370.726562 108.277344 370.089844 C 107.851562 369.449219 107.492188 368.777344 107.199219 368.070312 C 106.902344 367.359375 106.683594 366.628906 106.53125 365.878906 C 106.382812 365.125 106.308594 364.363281 106.308594 363.597656 C 106.308594 362.832031 106.382812 362.070312 106.53125 361.320312 C 106.683594 360.566406 106.902344 359.835938 107.199219 359.128906 C 107.492188 358.417969 107.851562 357.746094 108.277344 357.109375 C 108.703125 356.46875 109.1875 355.878906 109.730469 355.335938 C 110.273438 354.796875 110.863281 354.3125 111.5 353.882812 C 112.136719 353.457031 112.8125 353.097656 113.519531 352.804688 C 114.230469 352.511719 114.960938 352.289062 115.710938 352.140625 C 116.464844 351.992188 117.222656 351.914062 117.992188 351.914062 C 118.757812 351.914062 119.515625 351.992188 120.269531 352.140625 C 121.023438 352.289062 121.753906 352.511719 122.460938 352.804688 C 123.167969 353.097656 123.84375 353.457031 124.480469 353.882812 C 125.117188 354.3125 125.707031 354.796875 126.25 355.335938 C 126.792969 355.878906 127.277344 356.46875 127.703125 357.109375 C 128.128906 357.746094 128.488281 358.417969 128.785156 359.128906 C 129.078125 359.835938 129.296875 360.566406 129.449219 361.320312 C 129.597656 362.070312 129.671875 362.832031 129.671875 363.597656 Z M 129.671875 363.597656 " fill-opacity="1" fill-rule="nonzero"/><path fill="#ffffff" d="M 737.148438 667.054688 L 702.101562 667.054688 L 702.101562 258.175781 L 713.785156 258.175781 C 720.246094 258.175781 725.46875 252.945312 725.46875 246.496094 L 725.46875 199.765625 L 737.148438 199.765625 C 742.59375 199.765625 747.3125 196.003906 748.539062 190.699219 C 749.753906 185.386719 747.148438 179.941406 742.242188 177.570312 L 380.09375 2.335938 C 376.878906 0.78125 373.128906 0.78125 369.917969 2.335938 L 7.769531 177.570312 C 2.863281 179.941406 0.246094 185.386719 1.472656 190.699219 C 2.6875 196.003906 7.40625 199.765625 12.851562 199.765625 L 24.53125 199.765625 L 24.53125 246.496094 C 24.53125 252.945312 29.753906 258.175781 36.214844 258.175781 L 47.898438 258.175781 L 47.898438 667.054688 L 12.851562 667.054688 C 6.390625 667.054688 1.167969 672.289062 1.167969 678.738281 L 1.167969 737.148438 C 1.167969 743.597656 6.390625 748.832031 12.851562 748.832031 L 737.148438 748.832031 C 743.609375 748.832031 748.832031 743.597656 748.832031 737.148438 L 748.832031 678.738281 C 748.832031 672.289062 743.609375 667.054688 737.148438 667.054688 Z M 678.738281 608.644531 L 665.269531 608.644531 L 655.210938 548.304688 C 654.277344 542.6875 649.402344 538.550781 643.691406 538.550781 L 643.691406 328.269531 C 649.402344 328.269531 654.277344 324.136719 655.210938 318.515625 L 665.269531 258.175781 L 678.738281 258.175781 Z M 456.777344 608.644531 L 456.777344 445.09375 C 456.777344 443.28125 456.355469 441.484375 455.550781 439.871094 L 432.183594 393.140625 C 430.199219 389.183594 426.15625 386.683594 421.730469 386.683594 L 410.046875 386.683594 L 410.046875 298.773438 C 431.53125 291.144531 449.859375 276.8125 462.359375 258.175781 L 505.292969 258.175781 L 515.351562 318.515625 C 516.285156 324.136719 521.15625 328.269531 526.871094 328.269531 L 526.871094 538.550781 C 521.15625 538.550781 516.285156 542.6875 515.351562 548.304688 L 505.292969 608.644531 Z M 386.683594 608.644531 L 386.683594 445.09375 C 386.683594 438.644531 381.460938 433.410156 375 433.410156 C 368.539062 433.410156 363.316406 438.644531 363.316406 445.09375 L 363.316406 608.644531 L 316.589844 608.644531 L 316.589844 447.851562 L 335.492188 410.046875 L 414.507812 410.046875 L 433.410156 447.851562 L 433.410156 608.644531 Z M 244.707031 608.644531 L 234.648438 548.304688 C 233.714844 542.6875 228.84375 538.550781 223.128906 538.550781 L 223.128906 328.269531 C 228.84375 328.269531 233.714844 324.136719 234.648438 318.515625 L 244.707031 258.175781 L 287.640625 258.175781 C 300.140625 276.8125 318.46875 291.144531 339.953125 298.773438 L 339.953125 386.683594 L 328.269531 386.683594 C 323.84375 386.683594 319.800781 389.183594 317.816406 393.140625 L 294.449219 439.871094 C 293.644531 441.484375 293.222656 443.28125 293.222656 445.09375 L 293.222656 608.644531 Z M 116.203125 561.914062 L 213.234375 561.914062 L 221.015625 608.644531 L 108.421875 608.644531 Z M 213.234375 304.90625 L 116.203125 304.90625 L 108.421875 258.175781 L 221.027344 258.175781 Z M 375 386.683594 L 363.316406 386.683594 L 363.316406 304.21875 C 367.160156 304.648438 371.050781 304.90625 375 304.90625 C 378.949219 304.90625 382.839844 304.648438 386.683594 304.21875 L 386.683594 386.683594 Z M 375 281.542969 C 329.917969 281.542969 293.222656 244.859375 293.222656 199.765625 C 293.222656 154.671875 329.917969 117.992188 375 117.992188 C 420.082031 117.992188 456.777344 154.671875 456.777344 199.765625 C 456.777344 244.859375 420.082031 281.542969 375 281.542969 Z M 430.457031 110.609375 L 568.621094 176.402344 L 477.429688 176.402344 C 471.121094 148.714844 453.867188 125.222656 430.457031 110.609375 Z M 375 94.625 C 363.128906 94.625 351.765625 96.695312 341.121094 100.339844 L 375 84.195312 L 408.878906 100.328125 C 398.234375 96.695312 386.871094 94.625 375 94.625 Z M 272.570312 176.402344 L 181.378906 176.402344 L 319.542969 110.609375 C 296.132812 125.222656 278.878906 148.714844 272.570312 176.402344 Z M 620.328125 538.550781 L 550.234375 538.550781 L 550.234375 328.269531 L 620.328125 328.269531 Z M 633.796875 304.90625 L 536.765625 304.90625 L 528.984375 258.175781 L 641.589844 258.175781 Z M 536.765625 561.914062 L 633.796875 561.914062 L 641.578125 608.644531 L 528.972656 608.644531 Z M 702.101562 234.8125 L 474.007812 234.8125 C 477.910156 223.832031 480.140625 212.066406 480.140625 199.765625 L 702.101562 199.765625 Z M 375 25.828125 L 686.191406 176.402344 L 622.96875 176.402344 L 380.023438 60.710938 C 376.859375 59.195312 373.152344 59.195312 369.988281 60.710938 L 127.03125 176.402344 L 63.808594 176.402344 Z M 129.671875 199.765625 L 269.859375 199.765625 C 269.859375 212.066406 272.089844 223.832031 275.992188 234.8125 L 47.898438 234.8125 L 47.898438 199.765625 Z M 84.730469 258.175781 L 94.789062 318.515625 C 95.722656 324.136719 100.597656 328.269531 106.308594 328.269531 L 199.765625 328.269531 L 199.765625 538.550781 L 129.671875 538.550781 L 129.671875 404.207031 C 129.671875 397.757812 124.449219 392.523438 117.992188 392.523438 C 111.53125 392.523438 106.308594 397.757812 106.308594 404.207031 L 106.308594 538.550781 C 100.597656 538.550781 95.722656 542.6875 94.789062 548.304688 L 84.730469 608.644531 L 71.261719 608.644531 L 71.261719 258.175781 Z M 71.261719 632.007812 L 678.738281 632.007812 L 678.738281 667.054688 L 71.261719 667.054688 Z M 725.46875 725.46875 L 24.53125 725.46875 L 24.53125 690.421875 L 725.46875 690.421875 Z M 725.46875 725.46875 " fill-opacity="1" fill-rule="nonzero"/><path fill="#ffffff" d="M 393.128906 188.085938 L 356.867188 188.085938 C 353.984375 188.085938 351.636719 185.734375 351.636719 182.851562 L 351.636719 169.953125 C 351.636719 167.066406 353.984375 164.71875 356.871094 164.71875 L 390.304688 164.71875 C 393.1875 164.71875 395.539062 167.066406 395.539062 169.953125 C 395.539062 176.402344 400.757812 181.636719 407.21875 181.636719 C 413.679688 181.636719 418.902344 176.402344 418.902344 169.953125 C 418.902344 154.183594 406.0625 141.355469 390.304688 141.355469 L 386.683594 141.355469 C 386.683594 134.90625 381.460938 129.671875 375 129.671875 C 368.539062 129.671875 363.316406 134.90625 363.316406 141.355469 L 356.871094 141.355469 C 341.109375 141.355469 328.269531 154.183594 328.269531 169.953125 L 328.269531 182.851562 C 328.269531 198.621094 341.109375 211.449219 356.871094 211.449219 L 393.132812 211.449219 C 396.015625 211.449219 398.363281 213.796875 398.363281 216.683594 L 398.363281 229.578125 C 398.363281 232.464844 396.015625 234.8125 393.128906 234.8125 L 356.472656 234.8125 C 353.585938 234.8125 351.238281 232.464844 351.238281 229.578125 C 351.238281 223.128906 346.015625 217.898438 339.554688 217.898438 C 333.097656 217.898438 327.875 223.128906 327.875 229.578125 C 327.875 245.351562 340.710938 258.175781 356.472656 258.175781 L 363.316406 258.175781 C 363.316406 264.625 368.539062 269.859375 375 269.859375 C 381.460938 269.859375 386.683594 264.625 386.683594 258.175781 L 393.128906 258.175781 C 408.890625 258.175781 421.730469 245.351562 421.730469 229.578125 L 421.730469 216.683594 C 421.730469 200.910156 408.890625 188.085938 393.128906 188.085938 Z M 393.128906 188.085938 " fill-opacity="1" fill-rule="nonzero"/></svg>