<svg xmlns="http://www.w3.org/2000/svg" xmlns:xlink="http://www.w3.org/1999/xlink" width="1000" zoomAndPan="magnify" viewBox="0 0 750 749.999995" height="1000" preserveAspectRatio="xMidYMid meet" version="1.0"><path fill="#ffffff" d="M 729.589844 396.390625 C 728.179688 394.984375 726.710938 393.644531 725.183594 392.363281 C 723.660156 391.082031 722.082031 389.871094 720.453125 388.726562 C 718.824219 387.582031 717.148438 386.507812 715.429688 385.507812 C 713.707031 384.507812 711.945312 383.582031 710.148438 382.730469 C 708.347656 381.882812 706.511719 381.109375 704.644531 380.417969 C 702.78125 379.722656 700.886719 379.109375 698.96875 378.578125 C 697.050781 378.046875 695.113281 377.601562 693.152344 377.234375 C 691.195312 376.871094 689.226562 376.589844 687.246094 376.394531 C 685.265625 376.199219 683.277344 376.085938 681.289062 376.0625 C 679.296875 376.035156 677.308594 376.09375 675.324219 376.238281 C 673.335938 376.382812 671.359375 376.609375 669.394531 376.925781 C 667.429688 377.238281 665.480469 377.636719 663.546875 378.117188 C 661.617188 378.597656 659.707031 379.160156 657.824219 379.804688 C 655.9375 380.445312 654.085938 381.171875 652.265625 381.972656 C 650.441406 382.777344 648.65625 383.65625 646.910156 384.609375 C 645.164062 385.566406 643.460938 386.59375 641.804688 387.695312 L 604.253906 412.738281 C 582.289062 427.410156 559.484375 440.632812 535.839844 452.410156 C 512.195312 464.183594 487.898438 474.417969 462.953125 483.105469 L 467.621094 478.90625 C 469.308594 477.390625 470.925781 475.796875 472.464844 474.128906 C 474.003906 472.464844 475.464844 470.726562 476.84375 468.925781 C 478.222656 467.121094 479.515625 465.257812 480.722656 463.335938 C 481.925781 461.414062 483.042969 459.4375 484.0625 457.410156 C 485.085938 455.386719 486.011719 453.316406 486.84375 451.203125 C 487.675781 449.089844 488.40625 446.945312 489.035156 444.761719 C 489.667969 442.582031 490.195312 440.378906 490.621094 438.148438 C 491.050781 435.917969 491.371094 433.675781 491.589844 431.414062 C 491.808594 429.15625 491.921875 426.890625 491.929688 424.621094 C 491.933594 422.351562 491.839844 420.085938 491.636719 417.824219 C 491.433594 415.5625 491.125 413.316406 490.714844 411.085938 C 490.304688 408.851562 489.789062 406.644531 489.171875 404.460938 C 488.558594 402.273438 487.839844 400.125 487.023438 398.003906 C 486.207031 395.886719 485.296875 393.8125 484.285156 391.777344 C 483.277344 389.746094 482.175781 387.761719 480.984375 385.832031 C 479.792969 383.898438 478.511719 382.027344 477.144531 380.214844 C 475.777344 378.402344 474.328125 376.660156 472.800781 374.980469 C 471.273438 373.300781 469.667969 371.699219 467.992188 370.171875 C 466.3125 368.640625 464.570312 367.191406 462.757812 365.824219 C 460.945312 364.460938 459.074219 363.179688 457.140625 361.984375 C 455.210938 360.792969 453.230469 359.691406 451.195312 358.683594 C 449.164062 357.671875 447.085938 356.761719 444.96875 355.945312 C 442.851562 355.128906 440.699219 354.410156 438.515625 353.792969 C 436.328125 353.179688 434.121094 352.664062 431.890625 352.253906 C 429.65625 351.839844 427.410156 351.535156 425.148438 351.332031 C 422.886719 351.128906 420.625 351.03125 418.351562 351.039062 C 416.082031 351.042969 413.820312 351.15625 411.558594 351.375 C 409.300781 351.59375 407.054688 351.914062 404.824219 352.339844 C 402.597656 352.765625 400.390625 353.296875 398.210938 353.925781 C 396.03125 354.558594 393.882812 355.289062 391.769531 356.117188 C 389.660156 356.949219 387.589844 357.875 385.5625 358.898438 C 383.535156 359.917969 381.558594 361.035156 379.636719 362.238281 C 354.742188 377.167969 329.265625 391.027344 303.207031 403.820312 C 277.148438 416.613281 250.597656 428.292969 223.5625 438.859375 C 196.523438 449.425781 169.089844 458.839844 141.261719 467.105469 C 113.4375 475.375 85.3125 482.460938 56.890625 488.367188 C 54.890625 488.789062 52.910156 489.296875 50.953125 489.886719 C 48.996094 490.476562 47.066406 491.152344 45.167969 491.90625 C 43.269531 492.664062 41.40625 493.5 39.578125 494.414062 C 37.75 495.332031 35.964844 496.324219 34.222656 497.390625 C 32.480469 498.460938 30.785156 499.601562 29.140625 500.8125 C 27.496094 502.027344 25.902344 503.308594 24.367188 504.65625 C 22.832031 506.007812 21.355469 507.417969 19.941406 508.894531 C 18.527344 510.371094 17.179688 511.902344 15.894531 513.496094 C 14.609375 515.085938 13.398438 516.730469 12.253906 518.421875 C 11.109375 520.117188 10.042969 521.859375 9.046875 523.644531 C 8.054688 525.429688 7.136719 527.257812 6.300781 529.121094 C 5.460938 530.988281 4.703125 532.882812 4.027344 534.8125 C 3.351562 536.742188 2.761719 538.695312 2.253906 540.675781 C 1.742188 542.65625 1.320312 544.65625 0.984375 546.671875 C 0.644531 548.6875 0.394531 550.714844 0.230469 552.753906 C 0.0664062 554.789062 -0.0117188 556.832031 0 558.875 L 0 675.964844 C 0 677.144531 0.03125 678.324219 0.0898438 679.507812 C 0.148438 680.6875 0.238281 681.863281 0.355469 683.039062 C 0.472656 684.214844 0.617188 685.390625 0.792969 686.558594 C 0.964844 687.726562 1.167969 688.890625 1.402344 690.050781 C 1.632812 691.207031 1.890625 692.359375 2.179688 693.507812 C 2.46875 694.652344 2.785156 695.792969 3.128906 696.921875 C 3.472656 698.050781 3.84375 699.175781 4.242188 700.285156 C 4.640625 701.398438 5.066406 702.5 5.519531 703.59375 C 5.972656 704.683594 6.453125 705.765625 6.957031 706.832031 C 7.464844 707.898438 7.996094 708.953125 8.550781 709.996094 C 9.109375 711.039062 9.691406 712.066406 10.300781 713.078125 C 10.910156 714.09375 11.539062 715.089844 12.199219 716.074219 C 12.855469 717.054688 13.535156 718.023438 14.238281 718.972656 C 14.941406 719.917969 15.671875 720.851562 16.421875 721.765625 C 17.167969 722.679688 17.941406 723.574219 18.734375 724.449219 C 19.527344 725.324219 20.34375 726.179688 21.179688 727.015625 C 22.015625 727.851562 22.871094 728.664062 23.746094 729.457031 C 24.621094 730.253906 25.515625 731.023438 26.429688 731.773438 C 27.34375 732.523438 28.273438 733.25 29.222656 733.953125 C 30.171875 734.660156 31.136719 735.339844 32.121094 735.996094 C 33.101562 736.652344 34.101562 737.285156 35.113281 737.894531 C 36.128906 738.5 37.15625 739.085938 38.199219 739.640625 C 39.238281 740.199219 40.292969 740.730469 41.363281 741.238281 C 42.429688 741.742188 43.511719 742.222656 44.601562 742.675781 C 45.695312 743.128906 46.796875 743.554688 47.90625 743.953125 C 49.019531 744.351562 50.140625 744.722656 51.273438 745.066406 C 52.402344 745.410156 53.542969 745.726562 54.6875 746.015625 C 55.832031 746.300781 56.984375 746.5625 58.144531 746.792969 C 59.304688 747.023438 60.46875 747.226562 61.636719 747.402344 C 62.804688 747.578125 63.976562 747.722656 65.152344 747.839844 C 66.328125 747.957031 67.507812 748.042969 68.6875 748.101562 C 69.867188 748.164062 71.050781 748.191406 72.230469 748.195312 L 264.847656 748.195312 C 266.519531 748.195312 268.171875 748.023438 269.808594 747.675781 C 288.949219 743.640625 307.933594 738.980469 326.765625 733.695312 C 345.601562 728.40625 364.238281 722.503906 382.679688 715.988281 C 401.125 709.472656 419.332031 702.355469 437.308594 694.640625 C 455.28125 686.921875 472.980469 678.621094 490.410156 669.738281 C 507.835938 660.855469 524.949219 651.40625 541.753906 641.390625 C 558.554688 631.378906 575.011719 620.824219 591.121094 609.726562 C 607.226562 598.625 622.949219 587.007812 638.292969 574.875 C 653.632812 562.738281 668.558594 550.109375 683.066406 536.992188 L 727.070312 497.171875 C 727.941406 496.382812 728.792969 495.574219 729.621094 494.742188 C 730.453125 493.910156 731.261719 493.058594 732.050781 492.1875 C 732.835938 491.316406 733.601562 490.425781 734.34375 489.511719 C 735.085938 488.601562 735.804688 487.671875 736.496094 486.726562 C 737.191406 485.777344 737.863281 484.816406 738.507812 483.832031 C 739.15625 482.851562 739.777344 481.855469 740.371094 480.84375 C 740.96875 479.828125 741.535156 478.800781 742.082031 477.761719 C 742.625 476.71875 743.140625 475.664062 743.628906 474.597656 C 744.121094 473.527344 744.582031 472.449219 745.019531 471.359375 C 745.453125 470.265625 745.859375 469.164062 746.242188 468.054688 C 746.621094 466.941406 746.972656 465.820312 747.292969 464.691406 C 747.617188 463.5625 747.910156 462.425781 748.175781 461.28125 C 748.441406 460.136719 748.675781 458.984375 748.882812 457.828125 C 749.089844 456.671875 749.269531 455.511719 749.414062 454.34375 C 749.5625 453.179688 749.683594 452.011719 749.769531 450.839844 C 749.859375 449.667969 749.917969 448.496094 749.949219 447.320312 C 749.976562 446.148438 749.976562 444.972656 749.945312 443.796875 C 749.917969 442.625 749.855469 441.449219 749.765625 440.277344 C 749.675781 439.109375 749.558594 437.9375 749.410156 436.773438 C 749.261719 435.609375 749.082031 434.449219 748.875 433.292969 C 748.667969 432.136719 748.429688 430.984375 748.164062 429.839844 C 747.898438 428.695312 747.601562 427.558594 747.28125 426.429688 C 746.957031 425.300781 746.605469 424.179688 746.222656 423.066406 C 745.84375 421.957031 745.4375 420.855469 745 419.765625 C 744.5625 418.671875 744.101562 417.59375 743.609375 416.527344 C 743.117188 415.460938 742.601562 414.40625 742.054688 413.363281 C 741.511719 412.324219 740.941406 411.296875 740.34375 410.285156 C 739.75 409.273438 739.128906 408.273438 738.480469 407.292969 C 737.835938 406.3125 737.164062 405.351562 736.46875 404.402344 C 735.773438 403.457031 735.050781 402.527344 734.308594 401.617188 C 733.566406 400.707031 732.800781 399.816406 732.015625 398.945312 C 731.226562 398.074219 730.417969 397.222656 729.585938 396.390625 Z M 694.765625 461.46875 L 650.761719 501.285156 C 637.117188 513.625 623.082031 525.503906 608.65625 536.921875 C 594.230469 548.339844 579.449219 559.273438 564.304688 569.722656 C 549.164062 580.171875 533.695312 590.117188 517.902344 599.550781 C 502.109375 608.984375 486.023438 617.894531 469.644531 626.273438 C 453.265625 634.652344 436.632812 642.488281 419.742188 649.777344 C 402.847656 657.066406 385.738281 663.796875 368.402344 669.960938 C 351.070312 676.128906 333.554688 681.722656 315.855469 686.742188 C 298.15625 691.757812 280.308594 696.191406 262.320312 700.039062 L 72.230469 700.039062 C 71.441406 700.039062 70.65625 700 69.871094 699.921875 C 69.085938 699.84375 68.308594 699.726562 67.535156 699.574219 C 66.761719 699.417969 66 699.226562 65.246094 698.996094 C 64.492188 698.769531 63.75 698.503906 63.023438 698.199219 C 62.292969 697.898438 61.582031 697.5625 60.886719 697.1875 C 60.191406 696.816406 59.515625 696.410156 58.859375 695.972656 C 58.207031 695.535156 57.574219 695.066406 56.964844 694.566406 C 56.355469 694.066406 55.773438 693.539062 55.214844 692.980469 C 54.65625 692.421875 54.128906 691.839844 53.628906 691.230469 C 53.128906 690.621094 52.660156 689.988281 52.21875 689.332031 C 51.78125 688.679688 51.378906 688.003906 51.003906 687.308594 C 50.632812 686.613281 50.296875 685.902344 49.996094 685.171875 C 49.691406 684.445312 49.425781 683.703125 49.195312 682.949219 C 48.96875 682.195312 48.777344 681.429688 48.621094 680.660156 C 48.46875 679.886719 48.351562 679.105469 48.273438 678.320312 C 48.195312 677.539062 48.15625 676.75 48.152344 675.964844 L 48.152344 558.875 C 48.148438 557.511719 48.257812 556.160156 48.484375 554.816406 C 48.710938 553.472656 49.046875 552.15625 49.5 550.871094 C 49.949219 549.585938 50.507812 548.347656 51.171875 547.15625 C 51.835938 545.964844 52.59375 544.839844 53.453125 543.78125 C 54.308594 542.722656 55.246094 541.742188 56.273438 540.84375 C 57.296875 539.945312 58.390625 539.136719 59.550781 538.425781 C 60.714844 537.714844 61.925781 537.109375 63.195312 536.605469 C 64.460938 536.101562 65.757812 535.707031 67.09375 535.429688 C 96.871094 529.222656 126.335938 521.78125 155.492188 513.101562 C 184.644531 504.421875 213.382812 494.539062 241.707031 483.449219 C 270.03125 472.359375 297.84375 460.101562 325.136719 446.679688 C 352.433594 433.253906 379.121094 418.710938 405.195312 403.050781 C 407.210938 401.78125 409.359375 400.820312 411.644531 400.160156 C 413.933594 399.496094 416.265625 399.167969 418.644531 399.164062 C 419.910156 399.167969 421.167969 399.269531 422.417969 399.464844 C 423.667969 399.660156 424.898438 399.945312 426.105469 400.324219 C 427.3125 400.707031 428.484375 401.175781 429.621094 401.730469 C 430.757812 402.285156 431.847656 402.925781 432.886719 403.644531 C 433.925781 404.367188 434.90625 405.160156 435.828125 406.027344 C 436.75 406.894531 437.601562 407.828125 438.382812 408.824219 C 439.160156 409.820312 439.863281 410.867188 440.484375 411.96875 C 441.109375 413.074219 441.644531 414.214844 442.097656 415.398438 C 442.546875 416.578125 442.90625 417.789062 443.175781 419.027344 C 443.445312 420.261719 443.617188 421.511719 443.699219 422.777344 C 443.777344 424.039062 443.765625 425.300781 443.65625 426.5625 C 443.542969 427.820312 443.339844 429.066406 443.042969 430.296875 C 442.746094 431.527344 442.359375 432.730469 441.882812 433.898438 C 441.402344 435.070312 440.839844 436.203125 440.191406 437.289062 C 439.542969 438.375 438.816406 439.40625 438.015625 440.386719 C 437.210938 441.363281 436.339844 442.273438 435.398438 443.121094 L 358.0625 512.726562 C 344.9375 522.472656 331.0625 531.007812 316.441406 538.324219 C 301.820312 545.644531 286.675781 551.636719 271.007812 556.308594 C 270.242188 556.5 269.492188 556.730469 268.75 556.996094 C 268.007812 557.261719 267.28125 557.566406 266.566406 557.902344 C 265.855469 558.242188 265.164062 558.613281 264.488281 559.019531 C 263.8125 559.425781 263.15625 559.863281 262.523438 560.332031 C 261.890625 560.804688 261.285156 561.304688 260.703125 561.832031 C 260.117188 562.363281 259.5625 562.921875 259.03125 563.503906 C 258.503906 564.089844 258.003906 564.699219 257.535156 565.332031 C 257.066406 565.964844 256.632812 566.621094 256.226562 567.296875 C 255.820312 567.972656 255.453125 568.667969 255.117188 569.378906 C 254.777344 570.09375 254.476562 570.820312 254.214844 571.5625 C 253.949219 572.304688 253.71875 573.058594 253.53125 573.824219 C 253.339844 574.589844 253.1875 575.359375 253.070312 576.140625 C 252.957031 576.917969 252.878906 577.703125 252.839844 578.488281 C 252.800781 579.277344 252.804688 580.0625 252.84375 580.851562 C 252.882812 581.640625 252.957031 582.421875 253.074219 583.203125 C 253.191406 583.980469 253.34375 584.753906 253.535156 585.515625 C 253.726562 586.28125 253.957031 587.035156 254.222656 587.777344 C 254.488281 588.519531 254.789062 589.246094 255.128906 589.957031 C 255.464844 590.671875 255.835938 591.363281 256.242188 592.039062 C 256.648438 592.71875 257.085938 593.371094 257.554688 594.003906 C 258.023438 594.636719 258.523438 595.246094 259.050781 595.828125 C 259.582031 596.414062 260.136719 596.96875 260.722656 597.5 C 261.304688 598.027344 261.914062 598.527344 262.546875 598.996094 C 263.179688 599.464844 263.835938 599.902344 264.511719 600.308594 C 265.1875 600.714844 265.882812 601.085938 266.59375 601.421875 C 267.304688 601.757812 268.035156 602.0625 268.777344 602.328125 C 269.519531 602.59375 270.269531 602.820312 271.035156 603.011719 C 271.800781 603.203125 272.570312 603.359375 273.351562 603.472656 C 274.132812 603.589844 274.914062 603.667969 275.703125 603.707031 C 276.488281 603.746094 277.277344 603.746094 278.0625 603.707031 C 278.851562 603.667969 279.632812 603.589844 280.414062 603.476562 C 281.191406 603.359375 281.964844 603.207031 282.730469 603.015625 C 300.75 597.8125 318.191406 591.097656 335.050781 582.871094 C 351.910156 574.640625 367.933594 565.027344 383.125 554.019531 C 405.210938 549.847656 427.035156 544.578125 448.59375 538.207031 C 470.152344 531.839844 491.335938 524.40625 512.148438 515.90625 C 532.957031 507.410156 553.289062 497.886719 573.144531 487.339844 C 592.996094 476.796875 612.269531 465.28125 630.964844 452.800781 L 668.511719 427.757812 C 669.070312 427.386719 669.640625 427.042969 670.230469 426.726562 C 670.820312 426.410156 671.421875 426.121094 672.035156 425.859375 C 672.652344 425.597656 673.277344 425.367188 673.917969 425.164062 C 674.554688 424.960938 675.199219 424.789062 675.851562 424.648438 C 676.507812 424.503906 677.164062 424.394531 677.828125 424.3125 C 678.492188 424.234375 679.160156 424.183594 679.828125 424.167969 C 680.496094 424.148438 681.164062 424.160156 681.832031 424.207031 C 682.496094 424.25 683.160156 424.328125 683.820312 424.433594 C 684.480469 424.539062 685.136719 424.679688 685.78125 424.847656 C 686.429688 425.015625 687.066406 425.210938 687.695312 425.441406 C 688.324219 425.667969 688.941406 425.925781 689.546875 426.210938 C 690.152344 426.496094 690.742188 426.808594 691.316406 427.148438 C 691.890625 427.488281 692.449219 427.855469 692.992188 428.25 C 693.53125 428.644531 694.054688 429.058594 694.554688 429.503906 C 695.054688 429.945312 695.535156 430.410156 695.996094 430.894531 C 696.453125 431.382812 696.886719 431.890625 697.300781 432.417969 C 697.710938 432.945312 698.09375 433.492188 698.453125 434.054688 C 698.816406 434.617188 699.148438 435.195312 699.453125 435.792969 C 699.757812 436.386719 700.035156 436.996094 700.285156 437.613281 C 700.53125 438.234375 700.75 438.867188 700.941406 439.507812 C 701.128906 440.148438 701.289062 440.796875 701.417969 441.453125 C 701.546875 442.109375 701.644531 442.769531 701.710938 443.4375 C 701.777344 444.101562 701.816406 444.769531 701.820312 445.4375 C 701.824219 446.105469 701.796875 446.773438 701.738281 447.441406 C 701.679688 448.105469 701.589844 448.769531 701.472656 449.425781 C 701.351562 450.082031 701.199219 450.734375 701.019531 451.378906 C 700.839844 452.019531 700.628906 452.65625 700.386719 453.277344 C 700.148438 453.902344 699.878906 454.515625 699.582031 455.113281 C 699.28125 455.710938 698.957031 456.296875 698.605469 456.863281 C 698.253906 457.433594 697.875 457.984375 697.472656 458.515625 C 697.066406 459.050781 696.640625 459.5625 696.1875 460.054688 C 695.734375 460.546875 695.261719 461.019531 694.765625 461.464844 Z M 202.949219 412.828125 C 200.164062 410.039062 197.449219 407.1875 194.800781 404.269531 C 192.15625 401.347656 189.582031 398.367188 187.082031 395.320312 C 184.582031 392.273438 182.15625 389.167969 179.8125 386.003906 C 177.464844 382.839844 175.195312 379.617188 173.003906 376.339844 C 170.816406 373.066406 168.707031 369.738281 166.683594 366.355469 C 164.65625 362.976562 162.714844 359.550781 160.855469 356.074219 C 159 352.601562 157.226562 349.082031 155.542969 345.519531 C 153.859375 341.957031 152.261719 338.355469 150.753906 334.714844 C 149.246094 331.074219 147.828125 327.398438 146.5 323.691406 C 145.171875 319.980469 143.9375 316.238281 142.792969 312.46875 C 141.648438 308.699219 140.597656 304.902344 139.640625 301.078125 C 138.683594 297.257812 137.820312 293.414062 137.050781 289.546875 C 136.28125 285.683594 135.609375 281.800781 135.03125 277.90625 C 134.453125 274.007812 133.96875 270.097656 133.582031 266.175781 C 133.199219 262.253906 132.90625 258.324219 132.714844 254.390625 C 132.519531 250.453125 132.425781 246.515625 132.421875 242.574219 C 132.421875 238.636719 132.519531 234.695312 132.714844 230.761719 C 132.90625 226.824219 133.195312 222.898438 133.582031 218.976562 C 133.96875 215.054688 134.449219 211.144531 135.027344 207.246094 C 135.605469 203.347656 136.28125 199.46875 137.050781 195.601562 C 137.816406 191.738281 138.679688 187.894531 139.636719 184.070312 C 140.59375 180.25 141.644531 176.453125 142.789062 172.683594 C 143.933594 168.910156 145.167969 165.171875 146.496094 161.460938 C 147.824219 157.75 149.242188 154.074219 150.75 150.433594 C 152.257812 146.792969 153.855469 143.191406 155.539062 139.628906 C 157.222656 136.070312 158.996094 132.550781 160.851562 129.074219 C 162.710938 125.597656 164.652344 122.171875 166.675781 118.792969 C 168.703125 115.414062 170.808594 112.085938 173 108.808594 C 175.1875 105.53125 177.457031 102.3125 179.804688 99.144531 C 182.152344 95.980469 184.574219 92.875 187.074219 89.828125 C 189.574219 86.78125 192.148438 83.800781 194.792969 80.878906 C 197.4375 77.960938 200.15625 75.109375 202.941406 72.320312 C 205.726562 69.535156 208.582031 66.820312 211.5 64.171875 C 214.421875 61.527344 217.402344 58.953125 220.449219 56.453125 C 223.496094 53.953125 226.601562 51.53125 229.765625 49.183594 C 232.929688 46.835938 236.152344 44.566406 239.425781 42.378906 C 242.703125 40.1875 246.03125 38.082031 249.410156 36.054688 C 252.792969 34.027344 256.21875 32.085938 259.695312 30.230469 C 263.167969 28.371094 266.6875 26.601562 270.25 24.917969 C 273.8125 23.230469 277.414062 21.636719 281.054688 20.128906 C 284.695312 18.621094 288.371094 17.203125 292.078125 15.875 C 295.789062 14.546875 299.53125 13.3125 303.300781 12.167969 C 307.070312 11.023438 310.867188 9.972656 314.691406 9.015625 C 318.511719 8.058594 322.355469 7.195312 326.222656 6.425781 C 330.085938 5.65625 333.96875 4.984375 337.867188 4.40625 C 341.761719 3.828125 345.671875 3.34375 349.59375 2.957031 C 353.515625 2.570312 357.445312 2.28125 361.378906 2.089844 C 365.316406 1.894531 369.253906 1.800781 373.195312 1.800781 C 377.132812 1.800781 381.074219 1.894531 385.007812 2.089844 C 388.945312 2.28125 392.871094 2.570312 396.792969 2.957031 C 400.714844 3.34375 404.625 3.828125 408.523438 4.40625 C 412.421875 4.984375 416.300781 5.65625 420.167969 6.425781 C 424.03125 7.195312 427.875 8.058594 431.699219 9.015625 C 435.519531 9.972656 439.316406 11.023438 443.085938 12.167969 C 446.859375 13.3125 450.597656 14.546875 454.308594 15.875 C 458.019531 17.203125 461.695312 18.621094 465.335938 20.128906 C 468.976562 21.636719 472.578125 23.230469 476.136719 24.917969 C 479.699219 26.601562 483.21875 28.371094 486.695312 30.230469 C 490.167969 32.085938 493.597656 34.027344 496.976562 36.054688 C 500.355469 38.082031 503.683594 40.1875 506.960938 42.378906 C 510.238281 44.566406 513.457031 46.835938 516.621094 49.183594 C 519.789062 51.53125 522.894531 53.953125 525.9375 56.453125 C 528.984375 58.953125 531.96875 61.527344 534.886719 64.171875 C 537.808594 66.820312 540.660156 69.535156 543.445312 72.320312 C 546.234375 75.109375 548.949219 77.960938 551.59375 80.878906 C 554.242188 83.800781 556.816406 86.78125 559.316406 89.828125 C 561.8125 92.875 564.238281 95.980469 566.585938 99.144531 C 568.933594 102.3125 571.199219 105.53125 573.390625 108.808594 C 575.578125 112.085938 577.6875 115.414062 579.710938 118.792969 C 581.738281 122.171875 583.679688 125.597656 585.535156 129.074219 C 587.394531 132.550781 589.164062 136.070312 590.851562 139.628906 C 592.535156 143.191406 594.132812 146.792969 595.640625 150.433594 C 597.148438 154.074219 598.5625 157.75 599.890625 161.460938 C 601.21875 165.171875 602.453125 168.910156 603.597656 172.683594 C 604.742188 176.453125 605.792969 180.25 606.75 184.070312 C 607.707031 187.894531 608.570312 191.738281 609.339844 195.601562 C 610.109375 199.46875 610.78125 203.347656 611.359375 207.246094 C 611.9375 211.144531 612.417969 215.054688 612.804688 218.976562 C 613.191406 222.898438 613.480469 226.824219 613.675781 230.761719 C 613.867188 234.695312 613.964844 238.636719 613.964844 242.574219 C 613.964844 246.515625 613.867188 250.453125 613.675781 254.390625 C 613.480469 258.324219 613.191406 262.253906 612.804688 266.175781 C 612.417969 270.097656 611.9375 274.007812 611.359375 277.90625 C 610.78125 281.800781 610.105469 285.683594 609.335938 289.546875 C 608.566406 293.414062 607.703125 297.257812 606.746094 301.078125 C 605.789062 304.902344 604.738281 308.699219 603.59375 312.46875 C 602.453125 316.238281 601.214844 319.980469 599.886719 323.691406 C 598.558594 327.398438 597.140625 331.074219 595.632812 334.714844 C 594.125 338.355469 592.53125 341.957031 590.84375 345.519531 C 589.160156 349.082031 587.390625 352.601562 585.53125 356.074219 C 583.671875 359.550781 581.730469 362.976562 579.707031 366.355469 C 577.679688 369.738281 575.570312 373.066406 573.382812 376.339844 C 571.195312 379.617188 568.925781 382.839844 566.578125 386.003906 C 564.230469 389.167969 561.808594 392.273438 559.308594 395.320312 C 556.808594 398.367188 554.234375 401.347656 551.585938 404.269531 C 548.941406 407.1875 546.222656 410.039062 543.4375 412.828125 C 542.878906 413.371094 542.292969 413.886719 541.679688 414.371094 C 541.070312 414.859375 540.4375 415.316406 539.78125 415.738281 C 539.128906 416.164062 538.453125 416.558594 537.761719 416.917969 C 537.066406 417.277344 536.359375 417.601562 535.632812 417.890625 C 534.910156 418.183594 534.171875 418.4375 533.421875 418.65625 C 532.671875 418.875 531.914062 419.058594 531.148438 419.203125 C 530.378906 419.347656 529.605469 419.453125 528.828125 419.523438 C 528.050781 419.59375 527.273438 419.625 526.492188 419.621094 C 525.710938 419.613281 524.929688 419.570312 524.15625 419.488281 C 523.378906 419.40625 522.609375 419.289062 521.84375 419.128906 C 521.078125 418.972656 520.320312 418.78125 519.574219 418.550781 C 518.828125 418.320312 518.097656 418.054688 517.375 417.753906 C 516.65625 417.449219 515.953125 417.113281 515.265625 416.746094 C 514.578125 416.375 513.910156 415.972656 513.261719 415.539062 C 512.613281 415.101562 511.984375 414.636719 511.382812 414.140625 C 510.78125 413.644531 510.203125 413.121094 509.648438 412.570312 C 509.097656 412.015625 508.574219 411.4375 508.078125 410.835938 C 507.582031 410.234375 507.117188 409.605469 506.679688 408.957031 C 506.246094 408.308594 505.84375 407.640625 505.472656 406.953125 C 505.101562 406.265625 504.765625 405.5625 504.464844 404.84375 C 504.164062 404.121094 503.898438 403.390625 503.667969 402.640625 C 503.4375 401.894531 503.246094 401.140625 503.085938 400.375 C 502.929688 399.609375 502.8125 398.839844 502.730469 398.0625 C 502.648438 397.285156 502.605469 396.507812 502.597656 395.726562 C 502.59375 394.945312 502.625 394.167969 502.695312 393.390625 C 502.765625 392.613281 502.871094 391.839844 503.015625 391.070312 C 503.160156 390.304688 503.34375 389.546875 503.5625 388.796875 C 503.78125 388.046875 504.035156 387.308594 504.328125 386.585938 C 504.617188 385.859375 504.941406 385.152344 505.300781 384.457031 C 505.660156 383.765625 506.054688 383.089844 506.480469 382.433594 C 506.902344 381.78125 507.359375 381.148438 507.847656 380.535156 C 508.332031 379.925781 508.847656 379.339844 509.390625 378.78125 C 511.621094 376.550781 513.792969 374.269531 515.910156 371.933594 C 518.027344 369.597656 520.085938 367.210938 522.085938 364.773438 C 524.085938 362.335938 526.023438 359.851562 527.902344 357.320312 C 529.78125 354.789062 531.597656 352.214844 533.347656 349.59375 C 535.097656 346.972656 536.785156 344.308594 538.40625 341.605469 C 540.027344 338.902344 541.578125 336.160156 543.066406 333.378906 C 544.550781 330.597656 545.96875 327.785156 547.316406 324.933594 C 548.664062 322.085938 549.941406 319.203125 551.148438 316.292969 C 552.355469 313.378906 553.488281 310.4375 554.550781 307.46875 C 555.613281 304.503906 556.601562 301.511719 557.515625 298.492188 C 558.429688 295.476562 559.269531 292.441406 560.039062 289.382812 C 560.804688 286.324219 561.492188 283.25 562.109375 280.15625 C 562.722656 277.066406 563.261719 273.960938 563.726562 270.84375 C 564.1875 267.722656 564.574219 264.597656 564.882812 261.460938 C 565.191406 258.324219 565.421875 255.179688 565.578125 252.03125 C 565.734375 248.882812 565.8125 245.730469 565.8125 242.578125 C 565.8125 239.425781 565.734375 236.277344 565.578125 233.128906 C 565.425781 229.980469 565.191406 226.835938 564.882812 223.699219 C 564.574219 220.5625 564.1875 217.433594 563.726562 214.316406 C 563.265625 211.199219 562.726562 208.09375 562.109375 205 C 561.496094 201.910156 560.804688 198.835938 560.039062 195.777344 C 559.273438 192.71875 558.433594 189.683594 557.515625 186.664062 C 556.601562 183.648438 555.613281 180.65625 554.550781 177.6875 C 553.488281 174.71875 552.355469 171.78125 551.148438 168.867188 C 549.941406 165.957031 548.664062 163.074219 547.316406 160.226562 C 545.96875 157.375 544.554688 154.558594 543.066406 151.78125 C 541.582031 149 540.027344 146.257812 538.40625 143.554688 C 536.785156 140.851562 535.101562 138.1875 533.351562 135.566406 C 531.597656 132.945312 529.785156 130.367188 527.90625 127.835938 C 526.027344 125.304688 524.089844 122.820312 522.089844 120.382812 C 520.089844 117.945312 518.03125 115.5625 515.914062 113.226562 C 513.796875 110.890625 511.625 108.605469 509.394531 106.378906 C 507.167969 104.148438 504.882812 101.976562 502.546875 99.859375 C 500.210938 97.742188 497.828125 95.683594 495.390625 93.683594 C 492.953125 91.683594 490.46875 89.746094 487.9375 87.867188 C 485.40625 85.988281 482.828125 84.175781 480.207031 82.421875 C 477.585938 80.671875 474.921875 78.984375 472.21875 77.363281 C 469.515625 75.746094 466.773438 74.191406 463.992188 72.707031 C 461.214844 71.21875 458.398438 69.800781 455.550781 68.453125 C 452.699219 67.105469 449.816406 65.828125 446.90625 64.625 C 443.992188 63.417969 441.054688 62.28125 438.085938 61.21875 C 435.117188 60.160156 432.125 59.171875 429.109375 58.253906 C 426.089844 57.339844 423.054688 56.5 419.996094 55.734375 C 416.9375 54.96875 413.863281 54.277344 410.773438 53.660156 C 407.679688 53.046875 404.574219 52.507812 401.457031 52.046875 C 398.339844 51.582031 395.210938 51.199219 392.074219 50.886719 C 388.9375 50.578125 385.792969 50.347656 382.644531 50.191406 C 379.496094 50.039062 376.347656 49.960938 373.195312 49.960938 C 370.042969 49.960938 366.890625 50.039062 363.742188 50.191406 C 360.59375 50.347656 357.453125 50.578125 354.3125 50.886719 C 351.175781 51.199219 348.050781 51.582031 344.929688 52.046875 C 341.8125 52.507812 338.707031 53.046875 335.617188 53.660156 C 332.523438 54.277344 329.449219 54.96875 326.390625 55.734375 C 323.332031 56.5 320.296875 57.339844 317.28125 58.253906 C 314.261719 59.171875 311.269531 60.160156 308.304688 61.21875 C 305.335938 62.28125 302.394531 63.417969 299.484375 64.625 C 296.570312 65.828125 293.6875 67.105469 290.839844 68.453125 C 287.988281 69.800781 285.175781 71.21875 282.394531 72.707031 C 279.613281 74.191406 276.871094 75.746094 274.167969 77.363281 C 271.464844 78.984375 268.800781 80.671875 266.179688 82.421875 C 263.558594 84.175781 260.984375 85.988281 258.453125 87.867188 C 255.921875 89.746094 253.4375 91.683594 251 93.683594 C 248.5625 95.683594 246.175781 97.742188 243.839844 99.859375 C 241.503906 101.976562 239.222656 104.148438 236.992188 106.378906 C 234.765625 108.605469 232.589844 110.890625 230.472656 113.226562 C 228.355469 115.5625 226.296875 117.945312 224.300781 120.382812 C 222.300781 122.820312 220.359375 125.304688 218.484375 127.835938 C 216.605469 130.367188 214.789062 132.945312 213.039062 135.566406 C 211.289062 138.1875 209.601562 140.851562 207.980469 143.554688 C 206.359375 146.257812 204.808594 149 203.320312 151.78125 C 201.835938 154.558594 200.417969 157.375 199.070312 160.226562 C 197.722656 163.074219 196.445312 165.957031 195.238281 168.867188 C 194.03125 171.78125 192.898438 174.71875 191.835938 177.6875 C 190.773438 180.65625 189.785156 183.648438 188.871094 186.664062 C 187.957031 189.683594 187.117188 192.71875 186.351562 195.777344 C 185.582031 198.835938 184.894531 201.910156 184.277344 205 C 183.664062 208.09375 183.125 211.199219 182.664062 214.316406 C 182.199219 217.433594 181.8125 220.5625 181.503906 223.699219 C 181.195312 226.835938 180.964844 229.980469 180.808594 233.128906 C 180.65625 236.277344 180.578125 239.425781 180.578125 242.578125 C 180.578125 245.730469 180.65625 248.882812 180.808594 252.03125 C 180.964844 255.179688 181.195312 258.324219 181.503906 261.460938 C 181.816406 264.597656 182.199219 267.722656 182.664062 270.84375 C 183.125 273.960938 183.664062 277.066406 184.28125 280.15625 C 184.894531 283.25 185.585938 286.324219 186.351562 289.382812 C 187.117188 292.441406 187.957031 295.476562 188.871094 298.492188 C 189.789062 301.511719 190.777344 304.503906 191.839844 307.46875 C 192.902344 310.4375 194.035156 313.378906 195.242188 316.292969 C 196.449219 319.203125 197.722656 322.085938 199.074219 324.933594 C 200.421875 327.785156 201.835938 330.597656 203.324219 333.378906 C 204.808594 336.160156 206.363281 338.902344 207.984375 341.605469 C 209.605469 344.308594 211.289062 346.972656 213.042969 349.59375 C 214.792969 352.214844 216.609375 354.789062 218.484375 357.320312 C 220.363281 359.851562 222.300781 362.335938 224.300781 364.773438 C 226.300781 367.210938 228.359375 369.597656 230.476562 371.933594 C 232.59375 374.269531 234.765625 376.550781 236.996094 378.78125 C 237.539062 379.339844 238.054688 379.925781 238.542969 380.535156 C 239.027344 381.148438 239.484375 381.78125 239.910156 382.433594 C 240.335938 383.089844 240.726562 383.765625 241.085938 384.457031 C 241.445312 385.152344 241.773438 385.859375 242.0625 386.585938 C 242.351562 387.308594 242.609375 388.046875 242.828125 388.796875 C 243.046875 389.546875 243.226562 390.304688 243.371094 391.070312 C 243.515625 391.839844 243.625 392.613281 243.695312 393.390625 C 243.765625 394.167969 243.796875 394.945312 243.789062 395.726562 C 243.785156 396.507812 243.742188 397.285156 243.660156 398.0625 C 243.578125 398.839844 243.457031 399.609375 243.300781 400.375 C 243.144531 401.140625 242.949219 401.898438 242.722656 402.644531 C 242.492188 403.390625 242.226562 404.121094 241.921875 404.84375 C 241.621094 405.5625 241.285156 406.265625 240.914062 406.953125 C 240.546875 407.640625 240.144531 408.308594 239.707031 408.957031 C 239.273438 409.605469 238.808594 410.234375 238.3125 410.835938 C 237.816406 411.4375 237.292969 412.015625 236.738281 412.570312 C 236.1875 413.121094 235.609375 413.644531 235.007812 414.140625 C 234.402344 414.636719 233.777344 415.101562 233.128906 415.539062 C 232.480469 415.972656 231.8125 416.375 231.125 416.746094 C 230.4375 417.117188 229.734375 417.453125 229.011719 417.753906 C 228.292969 418.054688 227.558594 418.320312 226.8125 418.550781 C 226.066406 418.78125 225.3125 418.972656 224.546875 419.132812 C 223.78125 419.289062 223.011719 419.40625 222.234375 419.488281 C 221.457031 419.570312 220.679688 419.613281 219.898438 419.621094 C 219.117188 419.625 218.335938 419.59375 217.558594 419.523438 C 216.78125 419.453125 216.007812 419.347656 215.242188 419.203125 C 214.472656 419.058594 213.714844 418.875 212.964844 418.65625 C 212.21875 418.4375 211.480469 418.183594 210.753906 417.890625 C 210.03125 417.601562 209.320312 417.277344 208.628906 416.917969 C 207.933594 416.558594 207.261719 416.164062 206.605469 415.738281 C 205.949219 415.316406 205.316406 414.859375 204.707031 414.371094 C 204.097656 413.886719 203.511719 413.371094 202.949219 412.828125 Z M 349.117188 326.847656 L 349.117188 309.703125 C 342.164062 306.691406 335.996094 302.511719 330.625 297.167969 C 330.066406 296.609375 329.539062 296.027344 329.039062 295.414062 C 328.539062 294.804688 328.070312 294.171875 327.632812 293.515625 C 327.195312 292.859375 326.789062 292.183594 326.417969 291.488281 C 326.046875 290.792969 325.710938 290.082031 325.410156 289.351562 C 325.109375 288.625 324.84375 287.882812 324.613281 287.128906 C 324.386719 286.375 324.195312 285.609375 324.042969 284.835938 C 323.886719 284.0625 323.773438 283.28125 323.695312 282.496094 C 323.617188 281.714844 323.582031 280.925781 323.582031 280.136719 C 323.582031 279.347656 323.621094 278.5625 323.699219 277.777344 C 323.777344 276.992188 323.890625 276.214844 324.046875 275.441406 C 324.199219 274.667969 324.390625 273.902344 324.621094 273.148438 C 324.851562 272.394531 325.117188 271.652344 325.417969 270.925781 C 325.71875 270.195312 326.058594 269.484375 326.429688 268.789062 C 326.800781 268.09375 327.207031 267.417969 327.644531 266.761719 C 328.082031 266.105469 328.554688 265.472656 329.054688 264.863281 C 329.554688 264.257812 330.082031 263.671875 330.640625 263.113281 C 331.199219 262.558594 331.785156 262.027344 332.394531 261.527344 C 333.003906 261.027344 333.636719 260.558594 334.292969 260.121094 C 334.949219 259.683594 335.625 259.28125 336.320312 258.910156 C 337.015625 258.539062 337.726562 258.199219 338.457031 257.898438 C 339.183594 257.597656 339.925781 257.332031 340.679688 257.105469 C 341.4375 256.875 342.199219 256.683594 342.972656 256.53125 C 343.746094 256.378906 344.527344 256.261719 345.3125 256.1875 C 346.097656 256.109375 346.882812 256.070312 347.671875 256.070312 C 348.460938 256.070312 349.246094 256.109375 350.03125 256.1875 C 350.816406 256.265625 351.59375 256.382812 352.367188 256.535156 C 353.140625 256.691406 353.90625 256.882812 354.660156 257.113281 C 355.414062 257.339844 356.15625 257.605469 356.886719 257.910156 C 357.613281 258.210938 358.324219 258.546875 359.019531 258.921875 C 359.714844 259.292969 360.390625 259.699219 361.046875 260.136719 C 361.703125 260.574219 362.335938 261.042969 362.945312 261.542969 C 363.554688 262.042969 364.136719 262.574219 364.695312 263.132812 C 365.042969 263.480469 365.410156 263.804688 365.800781 264.109375 C 366.1875 264.414062 366.59375 264.691406 367.019531 264.945312 C 367.441406 265.199219 367.878906 265.421875 368.328125 265.625 C 368.78125 265.824219 369.242188 265.992188 369.714844 266.136719 C 370.183594 266.28125 370.664062 266.394531 371.148438 266.476562 C 371.636719 266.5625 372.125 266.617188 372.617188 266.640625 C 373.109375 266.664062 373.601562 266.65625 374.09375 266.621094 C 374.585938 266.582031 375.074219 266.515625 375.558594 266.421875 C 376.039062 266.324219 376.515625 266.199219 376.984375 266.042969 C 377.453125 265.886719 377.910156 265.707031 378.355469 265.496094 C 378.800781 265.285156 379.230469 265.046875 379.648438 264.78125 C 380.066406 264.519531 380.464844 264.230469 380.84375 263.917969 C 381.226562 263.601562 381.585938 263.269531 381.925781 262.910156 C 382.265625 262.554688 382.582031 262.175781 382.875 261.78125 C 383.167969 261.382812 383.4375 260.972656 383.679688 260.542969 C 383.921875 260.113281 384.136719 259.671875 384.328125 259.214844 C 384.515625 258.757812 384.675781 258.292969 384.804688 257.820312 C 384.9375 257.34375 385.039062 256.863281 385.109375 256.375 C 385.183594 255.886719 385.226562 255.394531 385.238281 254.902344 C 385.25 254.410156 385.230469 253.917969 385.179688 253.425781 C 385.132812 252.9375 385.054688 252.449219 384.945312 251.96875 C 384.835938 251.488281 384.699219 251.015625 384.535156 250.550781 C 384.367188 250.089844 384.171875 249.636719 383.953125 249.195312 C 383.730469 248.753906 383.480469 248.332031 383.207031 247.921875 C 382.933594 247.511719 382.636719 247.121094 382.3125 246.746094 C 381.992188 246.371094 381.644531 246.019531 381.28125 245.691406 C 380.914062 245.359375 380.53125 245.050781 380.128906 244.769531 C 379.722656 244.484375 379.304688 244.226562 378.871094 243.996094 C 378.433594 243.761719 377.988281 243.558594 377.527344 243.378906 C 377.066406 243.203125 376.597656 243.054688 376.121094 242.933594 C 375.640625 242.816406 375.15625 242.726562 374.667969 242.664062 C 374.179688 242.605469 373.6875 242.574219 373.195312 242.578125 C 371.480469 242.582031 369.769531 242.511719 368.058594 242.371094 C 366.351562 242.230469 364.652344 242.015625 362.964844 241.730469 C 361.273438 241.441406 359.597656 241.082031 357.9375 240.652344 C 356.28125 240.222656 354.640625 239.722656 353.023438 239.152344 C 351.410156 238.582031 349.820312 237.945312 348.257812 237.238281 C 346.695312 236.53125 345.167969 235.761719 343.671875 234.925781 C 342.175781 234.085938 340.71875 233.1875 339.296875 232.226562 C 337.878906 231.265625 336.503906 230.246094 335.171875 229.164062 C 333.839844 228.085938 332.554688 226.953125 331.320312 225.761719 C 330.085938 224.574219 328.90625 223.335938 327.777344 222.042969 C 326.648438 220.753906 325.574219 219.417969 324.5625 218.035156 C 323.546875 216.65625 322.59375 215.230469 321.699219 213.769531 C 320.808594 212.304688 319.980469 210.808594 319.214844 209.273438 C 318.449219 207.738281 317.753906 206.175781 317.121094 204.582031 C 316.492188 202.988281 315.929688 201.367188 315.4375 199.726562 C 314.945312 198.085938 314.523438 196.425781 314.171875 194.746094 C 313.820312 193.070312 313.542969 191.378906 313.335938 189.675781 C 313.132812 187.976562 313 186.269531 312.9375 184.554688 C 312.878906 182.84375 312.894531 181.128906 312.980469 179.417969 C 313.066406 177.707031 313.226562 176 313.457031 174.300781 C 313.691406 172.605469 313.996094 170.917969 314.371094 169.246094 C 314.75 167.574219 315.195312 165.921875 315.714844 164.285156 C 316.230469 162.652344 316.820312 161.042969 317.472656 159.460938 C 318.128906 157.875 318.851562 156.324219 319.640625 154.800781 C 320.429688 153.277344 321.28125 151.792969 322.195312 150.34375 C 323.113281 148.894531 324.089844 147.488281 325.125 146.121094 C 326.160156 144.757812 327.253906 143.4375 328.402344 142.164062 C 329.550781 140.894531 330.75 139.671875 332.003906 138.503906 C 333.257812 137.332031 334.558594 136.21875 335.90625 135.160156 C 337.253906 134.101562 338.644531 133.105469 340.082031 132.164062 C 341.515625 131.226562 342.984375 130.347656 344.496094 129.535156 C 346.003906 128.722656 347.542969 127.972656 349.117188 127.292969 L 349.117188 110.152344 C 349.117188 109.363281 349.15625 108.578125 349.234375 107.792969 C 349.308594 107.007812 349.425781 106.230469 349.578125 105.457031 C 349.734375 104.683594 349.925781 103.917969 350.152344 103.164062 C 350.382812 102.410156 350.648438 101.667969 350.949219 100.9375 C 351.25 100.210938 351.589844 99.5 351.960938 98.800781 C 352.332031 98.105469 352.738281 97.433594 353.175781 96.777344 C 353.613281 96.121094 354.082031 95.488281 354.582031 94.878906 C 355.082031 94.269531 355.613281 93.683594 356.167969 93.128906 C 356.726562 92.570312 357.308594 92.039062 357.917969 91.539062 C 358.53125 91.039062 359.160156 90.570312 359.816406 90.132812 C 360.472656 89.695312 361.148438 89.289062 361.84375 88.917969 C 362.539062 88.546875 363.25 88.210938 363.980469 87.90625 C 364.707031 87.605469 365.449219 87.339844 366.203125 87.113281 C 366.960938 86.882812 367.722656 86.691406 368.496094 86.539062 C 369.269531 86.382812 370.050781 86.269531 370.835938 86.191406 C 371.617188 86.113281 372.40625 86.074219 373.195312 86.074219 C 373.984375 86.074219 374.769531 86.113281 375.554688 86.191406 C 376.339844 86.269531 377.117188 86.382812 377.890625 86.539062 C 378.664062 86.691406 379.429688 86.882812 380.183594 87.113281 C 380.9375 87.339844 381.679688 87.605469 382.40625 87.90625 C 383.136719 88.210938 383.847656 88.546875 384.542969 88.917969 C 385.238281 89.289062 385.914062 89.695312 386.570312 90.132812 C 387.226562 90.570312 387.859375 91.039062 388.46875 91.539062 C 389.078125 92.039062 389.660156 92.570312 390.21875 93.128906 C 390.777344 93.683594 391.304688 94.269531 391.804688 94.878906 C 392.304688 95.488281 392.773438 96.121094 393.214844 96.777344 C 393.652344 97.433594 394.054688 98.105469 394.429688 98.800781 C 394.800781 99.5 395.136719 100.210938 395.4375 100.9375 C 395.738281 101.667969 396.003906 102.410156 396.234375 103.164062 C 396.464844 103.917969 396.65625 104.683594 396.808594 105.457031 C 396.960938 106.230469 397.078125 107.007812 397.15625 107.792969 C 397.234375 108.578125 397.269531 109.363281 397.269531 110.152344 L 397.269531 127.292969 C 404.226562 130.304688 410.390625 134.484375 415.761719 139.832031 C 416.320312 140.390625 416.851562 140.972656 417.351562 141.582031 C 417.847656 142.191406 418.320312 142.824219 418.757812 143.480469 C 419.195312 144.136719 419.597656 144.8125 419.96875 145.507812 C 420.339844 146.203125 420.679688 146.917969 420.980469 147.644531 C 421.28125 148.375 421.546875 149.117188 421.773438 149.871094 C 422.003906 150.625 422.195312 151.390625 422.347656 152.164062 C 422.5 152.9375 422.617188 153.714844 422.691406 154.5 C 422.769531 155.285156 422.808594 156.070312 422.808594 156.859375 C 422.808594 157.648438 422.769531 158.4375 422.691406 159.21875 C 422.613281 160.003906 422.496094 160.785156 422.34375 161.558594 C 422.1875 162.332031 421.996094 163.09375 421.765625 163.851562 C 421.539062 164.605469 421.273438 165.347656 420.96875 166.074219 C 420.667969 166.800781 420.332031 167.515625 419.957031 168.210938 C 419.585938 168.90625 419.179688 169.582031 418.742188 170.234375 C 418.304688 170.890625 417.835938 171.523438 417.335938 172.132812 C 416.832031 172.742188 416.304688 173.324219 415.746094 173.882812 C 415.1875 174.441406 414.605469 174.96875 413.996094 175.46875 C 413.386719 175.96875 412.753906 176.4375 412.097656 176.875 C 411.441406 177.3125 410.765625 177.71875 410.070312 178.089844 C 409.375 178.460938 408.660156 178.796875 407.933594 179.097656 C 407.203125 179.398438 406.460938 179.664062 405.707031 179.894531 C 404.953125 180.121094 404.1875 180.3125 403.414062 180.46875 C 402.640625 180.621094 401.863281 180.734375 401.078125 180.8125 C 400.292969 180.890625 399.503906 180.925781 398.71875 180.925781 C 397.929688 180.925781 397.140625 180.886719 396.355469 180.808594 C 395.574219 180.734375 394.792969 180.617188 394.019531 180.460938 C 393.246094 180.308594 392.484375 180.117188 391.726562 179.886719 C 390.972656 179.65625 390.230469 179.390625 389.503906 179.089844 C 388.773438 178.789062 388.0625 178.449219 387.367188 178.078125 C 386.671875 177.707031 385.996094 177.300781 385.34375 176.863281 C 384.6875 176.425781 384.054688 175.953125 383.445312 175.453125 C 382.835938 174.953125 382.253906 174.425781 381.695312 173.867188 C 381.347656 173.519531 380.976562 173.191406 380.589844 172.890625 C 380.199219 172.585938 379.792969 172.308594 379.371094 172.054688 C 378.945312 171.800781 378.511719 171.574219 378.058594 171.375 C 377.609375 171.175781 377.148438 171.003906 376.675781 170.863281 C 376.203125 170.71875 375.722656 170.605469 375.238281 170.519531 C 374.753906 170.4375 374.261719 170.382812 373.769531 170.359375 C 373.277344 170.335938 372.785156 170.339844 372.292969 170.378906 C 371.800781 170.414062 371.316406 170.480469 370.832031 170.578125 C 370.347656 170.675781 369.871094 170.800781 369.402344 170.953125 C 368.9375 171.109375 368.480469 171.292969 368.035156 171.503906 C 367.585938 171.714844 367.15625 171.953125 366.742188 172.214844 C 366.324219 172.480469 365.925781 172.769531 365.542969 173.082031 C 365.164062 173.394531 364.804688 173.730469 364.464844 174.085938 C 364.125 174.445312 363.808594 174.820312 363.511719 175.21875 C 363.21875 175.613281 362.953125 176.027344 362.707031 176.457031 C 362.464844 176.886719 362.25 177.328125 362.0625 177.78125 C 361.875 178.238281 361.714844 178.703125 361.582031 179.179688 C 361.453125 179.65625 361.351562 180.136719 361.277344 180.625 C 361.207031 181.113281 361.164062 181.601562 361.152344 182.09375 C 361.140625 182.589844 361.160156 183.078125 361.207031 183.570312 C 361.253906 184.0625 361.335938 184.546875 361.441406 185.027344 C 361.550781 185.507812 361.6875 185.980469 361.855469 186.445312 C 362.019531 186.910156 362.214844 187.363281 362.4375 187.800781 C 362.660156 188.242188 362.90625 188.667969 363.179688 189.078125 C 363.457031 189.488281 363.753906 189.878906 364.074219 190.253906 C 364.398438 190.625 364.742188 190.976562 365.109375 191.308594 C 365.472656 191.640625 365.859375 191.945312 366.261719 192.230469 C 366.664062 192.515625 367.082031 192.773438 367.519531 193.003906 C 367.953125 193.234375 368.402344 193.441406 368.859375 193.617188 C 369.320312 193.796875 369.789062 193.945312 370.269531 194.0625 C 370.746094 194.183594 371.230469 194.273438 371.71875 194.332031 C 372.210938 194.394531 372.699219 194.421875 373.195312 194.421875 C 374.910156 194.417969 376.621094 194.484375 378.328125 194.628906 C 380.035156 194.769531 381.734375 194.984375 383.425781 195.269531 C 385.117188 195.554688 386.789062 195.914062 388.449219 196.34375 C 390.109375 196.773438 391.746094 197.273438 393.363281 197.84375 C 394.980469 198.414062 396.570312 199.054688 398.132812 199.761719 C 399.691406 200.464844 401.222656 201.238281 402.71875 202.074219 C 404.214844 202.910156 405.671875 203.808594 407.089844 204.773438 C 408.507812 205.734375 409.886719 206.753906 411.214844 207.832031 C 412.546875 208.914062 413.832031 210.046875 415.066406 211.234375 C 416.300781 212.425781 417.484375 213.664062 418.613281 214.953125 C 419.742188 216.246094 420.8125 217.582031 421.828125 218.960938 C 422.839844 220.34375 423.792969 221.765625 424.6875 223.230469 C 425.582031 224.691406 426.410156 226.191406 427.171875 227.726562 C 427.9375 229.261719 428.636719 230.824219 429.265625 232.417969 C 429.898438 234.011719 430.460938 235.628906 430.953125 237.273438 C 431.445312 238.914062 431.867188 240.574219 432.214844 242.25 C 432.566406 243.929688 432.84375 245.617188 433.050781 247.320312 C 433.257812 249.023438 433.390625 250.730469 433.449219 252.441406 C 433.507812 254.15625 433.496094 255.867188 433.410156 257.582031 C 433.324219 259.292969 433.164062 260.996094 432.929688 262.695312 C 432.699219 264.394531 432.394531 266.078125 432.015625 267.753906 C 431.640625 269.425781 431.191406 271.078125 430.675781 272.710938 C 430.15625 274.34375 429.570312 275.953125 428.914062 277.539062 C 428.257812 279.121094 427.535156 280.675781 426.746094 282.195312 C 425.960938 283.71875 425.105469 285.203125 424.191406 286.652344 C 423.277344 288.101562 422.300781 289.511719 421.265625 290.875 C 420.226562 292.242188 419.136719 293.5625 417.988281 294.832031 C 416.839844 296.105469 415.636719 297.328125 414.382812 298.496094 C 413.132812 299.664062 411.832031 300.78125 410.480469 301.835938 C 409.132812 302.894531 407.742188 303.894531 406.308594 304.832031 C 404.875 305.773438 403.402344 306.648438 401.894531 307.464844 C 400.386719 308.277344 398.84375 309.023438 397.269531 309.707031 L 397.269531 326.847656 C 397.269531 327.632812 397.234375 328.421875 397.15625 329.207031 C 397.078125 329.992188 396.960938 330.769531 396.808594 331.542969 C 396.65625 332.316406 396.464844 333.082031 396.234375 333.835938 C 396.003906 334.589844 395.738281 335.332031 395.4375 336.058594 C 395.136719 336.789062 394.800781 337.5 394.429688 338.195312 C 394.054688 338.890625 393.652344 339.566406 393.214844 340.222656 C 392.777344 340.878906 392.304688 341.511719 391.804688 342.121094 C 391.304688 342.730469 390.777344 343.3125 390.21875 343.871094 C 389.660156 344.429688 389.078125 344.957031 388.46875 345.457031 C 387.859375 345.957031 387.226562 346.425781 386.570312 346.863281 C 385.914062 347.304688 385.238281 347.707031 384.542969 348.078125 C 383.847656 348.453125 383.136719 348.789062 382.40625 349.089844 C 381.679688 349.390625 380.9375 349.65625 380.183594 349.886719 C 379.429688 350.113281 378.664062 350.304688 377.890625 350.460938 C 377.117188 350.613281 376.339844 350.730469 375.554688 350.808594 C 374.769531 350.882812 373.984375 350.921875 373.195312 350.921875 C 372.40625 350.921875 371.617188 350.882812 370.835938 350.808594 C 370.050781 350.730469 369.269531 350.613281 368.496094 350.460938 C 367.722656 350.304688 366.960938 350.113281 366.203125 349.886719 C 365.449219 349.65625 364.707031 349.390625 363.980469 349.089844 C 363.25 348.789062 362.539062 348.453125 361.84375 348.078125 C 361.148438 347.707031 360.472656 347.304688 359.816406 346.863281 C 359.160156 346.425781 358.53125 345.957031 357.917969 345.457031 C 357.308594 344.957031 356.726562 344.429688 356.167969 343.871094 C 355.613281 343.3125 355.082031 342.730469 354.582031 342.121094 C 354.082031 341.511719 353.613281 340.878906 353.175781 340.222656 C 352.738281 339.566406 352.332031 338.890625 351.960938 338.195312 C 351.589844 337.5 351.25 336.789062 350.949219 336.058594 C 350.648438 335.332031 350.382812 334.589844 350.152344 333.835938 C 349.925781 333.082031 349.734375 332.316406 349.578125 331.542969 C 349.425781 330.769531 349.308594 329.992188 349.234375 329.207031 C 349.15625 328.421875 349.117188 327.632812 349.117188 326.847656 Z M 349.117188 326.847656 " fill-opacity="1" fill-rule="nonzero"/></svg>