<svg xmlns="http://www.w3.org/2000/svg" xmlns:xlink="http://www.w3.org/1999/xlink" width="1000" zoomAndPan="magnify" viewBox="0 0 750 749.999995" height="1000" preserveAspectRatio="xMidYMid meet" version="1.0"><path fill="#ffffff" d="M 692.957031 0 L 57.042969 0 C 55.207031 0.00390625 53.378906 0.101562 51.550781 0.285156 C 49.722656 0.46875 47.910156 0.742188 46.109375 1.105469 C 44.308594 1.46875 42.53125 1.917969 40.777344 2.453125 C 39.019531 2.988281 37.292969 3.609375 35.597656 4.316406 C 33.902344 5.019531 32.246094 5.808594 30.628906 6.675781 C 29.007812 7.542969 27.4375 8.488281 25.910156 9.507812 C 24.386719 10.527344 22.914062 11.621094 21.496094 12.789062 C 20.074219 13.953125 18.714844 15.183594 17.417969 16.484375 C 16.121094 17.78125 14.886719 19.140625 13.722656 20.558594 C 12.558594 21.976562 11.464844 23.449219 10.441406 24.976562 C 9.421875 26.503906 8.476562 28.074219 7.609375 29.691406 C 6.742188 31.3125 5.957031 32.96875 5.25 34.664062 C 4.546875 36.359375 3.925781 38.085938 3.390625 39.839844 C 2.851562 41.597656 2.402344 43.375 2.039062 45.175781 C 1.679688 46.976562 1.40625 48.789062 1.21875 50.617188 C 1.035156 52.441406 0.941406 54.273438 0.933594 56.109375 L 0.933594 243.140625 C 0.941406 244.976562 1.035156 246.808594 1.21875 248.636719 C 1.40625 250.464844 1.679688 252.277344 2.039062 254.078125 C 2.402344 255.878906 2.851562 257.65625 3.390625 259.410156 C 3.925781 261.167969 4.546875 262.894531 5.25 264.589844 C 5.957031 266.285156 6.742188 267.941406 7.609375 269.558594 C 8.476562 271.175781 9.421875 272.75 10.441406 274.273438 C 11.464844 275.800781 12.558594 277.273438 13.722656 278.691406 C 14.886719 280.113281 16.121094 281.46875 17.417969 282.769531 C 18.714844 284.066406 20.074219 285.300781 21.496094 286.464844 C 22.914062 287.628906 24.386719 288.722656 25.910156 289.746094 C 27.4375 290.765625 29.007812 291.710938 30.628906 292.578125 C 32.246094 293.445312 33.902344 294.230469 35.597656 294.9375 C 37.292969 295.640625 39.019531 296.261719 40.777344 296.796875 C 42.53125 297.335938 44.308594 297.785156 46.109375 298.144531 C 47.910156 298.507812 49.722656 298.78125 51.550781 298.964844 C 53.378906 299.152344 55.207031 299.246094 57.042969 299.25 L 187.96875 299.25 L 187.96875 261.84375 L 57.042969 261.84375 C 56.433594 261.84375 55.820312 261.816406 55.210938 261.753906 C 54.601562 261.695312 53.996094 261.605469 53.394531 261.484375 C 52.796875 261.367188 52.203125 261.21875 51.617188 261.039062 C 51.03125 260.863281 50.453125 260.65625 49.886719 260.421875 C 49.320312 260.1875 48.769531 259.925781 48.226562 259.636719 C 47.6875 259.347656 47.164062 259.035156 46.652344 258.691406 C 46.144531 258.351562 45.652344 257.988281 45.179688 257.601562 C 44.707031 257.210938 44.253906 256.800781 43.820312 256.367188 C 43.386719 255.933594 42.976562 255.480469 42.585938 255.007812 C 42.199219 254.535156 41.835938 254.042969 41.492188 253.53125 C 41.152344 253.023438 40.839844 252.5 40.550781 251.957031 C 40.261719 251.417969 40 250.867188 39.765625 250.300781 C 39.53125 249.734375 39.324219 249.15625 39.148438 248.570312 C 38.96875 247.984375 38.820312 247.390625 38.699219 246.789062 C 38.582031 246.191406 38.492188 245.585938 38.433594 244.976562 C 38.371094 244.367188 38.339844 243.753906 38.339844 243.140625 L 38.339844 56.109375 C 38.339844 55.496094 38.371094 54.886719 38.433594 54.277344 C 38.492188 53.667969 38.582031 53.0625 38.699219 52.460938 C 38.820312 51.859375 38.96875 51.265625 39.148438 50.679688 C 39.324219 50.09375 39.53125 49.519531 39.765625 48.953125 C 40 48.386719 40.261719 47.832031 40.550781 47.292969 C 40.839844 46.753906 41.152344 46.226562 41.492188 45.71875 C 41.835938 45.210938 42.199219 44.71875 42.585938 44.246094 C 42.976562 43.769531 43.386719 43.316406 43.820312 42.882812 C 44.253906 42.453125 44.707031 42.039062 45.179688 41.652344 C 45.652344 41.261719 46.144531 40.898438 46.652344 40.558594 C 47.164062 40.21875 47.6875 39.902344 48.226562 39.613281 C 48.769531 39.328125 49.320312 39.066406 49.886719 38.832031 C 50.453125 38.597656 51.03125 38.390625 51.617188 38.210938 C 52.203125 38.035156 52.796875 37.886719 53.394531 37.765625 C 53.996094 37.644531 54.601562 37.554688 55.210938 37.496094 C 55.820312 37.4375 56.433594 37.40625 57.042969 37.40625 L 692.957031 37.40625 C 693.566406 37.40625 694.179688 37.4375 694.789062 37.496094 C 695.398438 37.554688 696.003906 37.644531 696.605469 37.765625 C 697.203125 37.886719 697.796875 38.035156 698.382812 38.210938 C 698.96875 38.390625 699.546875 38.597656 700.113281 38.832031 C 700.679688 39.066406 701.230469 39.328125 701.773438 39.613281 C 702.3125 39.902344 702.835938 40.21875 703.347656 40.558594 C 703.855469 40.898438 704.347656 41.261719 704.820312 41.652344 C 705.292969 42.039062 705.746094 42.453125 706.179688 42.882812 C 706.613281 43.316406 707.023438 43.769531 707.414062 44.246094 C 707.800781 44.71875 708.164062 45.210938 708.507812 45.71875 C 708.847656 46.226562 709.160156 46.753906 709.449219 47.292969 C 709.738281 47.832031 710 48.386719 710.234375 48.953125 C 710.46875 49.519531 710.675781 50.09375 710.851562 50.679688 C 711.03125 51.265625 711.179688 51.859375 711.300781 52.460938 C 711.417969 53.0625 711.507812 53.667969 711.566406 54.277344 C 711.628906 54.886719 711.660156 55.496094 711.660156 56.109375 L 711.660156 243.140625 C 711.660156 243.753906 711.628906 244.367188 711.566406 244.976562 C 711.507812 245.585938 711.417969 246.191406 711.300781 246.789062 C 711.179688 247.390625 711.03125 247.984375 710.851562 248.570312 C 710.675781 249.15625 710.46875 249.734375 710.234375 250.300781 C 710 250.867188 709.738281 251.417969 709.449219 251.957031 C 709.160156 252.5 708.847656 253.023438 708.507812 253.53125 C 708.164062 254.042969 707.800781 254.535156 707.414062 255.007812 C 707.023438 255.480469 706.613281 255.933594 706.179688 256.367188 C 705.746094 256.800781 705.292969 257.210938 704.820312 257.601562 C 704.347656 257.988281 703.855469 258.351562 703.347656 258.691406 C 702.835938 259.035156 702.3125 259.347656 701.773438 259.636719 C 701.230469 259.925781 700.679688 260.1875 700.113281 260.421875 C 699.546875 260.65625 698.96875 260.863281 698.382812 261.039062 C 697.796875 261.21875 697.203125 261.367188 696.605469 261.484375 C 696.003906 261.605469 695.398438 261.695312 694.789062 261.753906 C 694.179688 261.816406 693.566406 261.84375 692.957031 261.84375 L 524.625 261.84375 L 524.625 299.25 L 692.957031 299.25 C 694.792969 299.246094 696.621094 299.152344 698.449219 298.964844 C 700.277344 298.78125 702.089844 298.507812 703.890625 298.144531 C 705.691406 297.785156 707.46875 297.335938 709.222656 296.796875 C 710.980469 296.261719 712.707031 295.640625 714.402344 294.9375 C 716.097656 294.230469 717.753906 293.445312 719.371094 292.578125 C 720.988281 291.710938 722.5625 290.765625 724.089844 289.746094 C 725.613281 288.722656 727.085938 287.628906 728.503906 286.464844 C 729.925781 285.300781 731.285156 284.066406 732.582031 282.769531 C 733.878906 281.46875 735.113281 280.113281 736.277344 278.691406 C 737.441406 277.273438 738.535156 275.800781 739.558594 274.273438 C 740.578125 272.75 741.523438 271.175781 742.390625 269.558594 C 743.257812 267.941406 744.042969 266.285156 744.75 264.589844 C 745.453125 262.894531 746.074219 261.167969 746.609375 259.410156 C 747.148438 257.65625 747.597656 255.878906 747.957031 254.078125 C 748.320312 252.277344 748.59375 250.464844 748.78125 248.636719 C 748.964844 246.808594 749.058594 244.976562 749.066406 243.140625 L 749.066406 56.109375 C 749.058594 54.273438 748.964844 52.441406 748.78125 50.617188 C 748.59375 48.789062 748.320312 46.976562 747.960938 45.175781 C 747.597656 43.375 747.148438 41.597656 746.609375 39.839844 C 746.074219 38.085938 745.453125 36.359375 744.75 34.664062 C 744.042969 32.96875 743.257812 31.3125 742.390625 29.691406 C 741.523438 28.074219 740.578125 26.503906 739.558594 24.976562 C 738.535156 23.449219 737.441406 21.976562 736.277344 20.558594 C 735.113281 19.140625 733.878906 17.78125 732.582031 16.484375 C 731.285156 15.183594 729.925781 13.953125 728.503906 12.789062 C 727.085938 11.621094 725.613281 10.527344 724.089844 9.507812 C 722.5625 8.488281 720.988281 7.542969 719.371094 6.675781 C 717.753906 5.808594 716.097656 5.019531 714.402344 4.316406 C 712.707031 3.609375 710.980469 2.988281 709.222656 2.453125 C 707.46875 1.917969 705.691406 1.46875 703.890625 1.105469 C 702.089844 0.742188 700.277344 0.46875 698.449219 0.285156 C 696.621094 0.101562 694.792969 0.00390625 692.957031 0 Z M 692.957031 0 " fill-opacity="1" fill-rule="nonzero"/><path fill="#ffffff" d="M 636.84375 130.921875 L 113.15625 130.921875 C 112.542969 130.921875 111.929688 130.953125 111.320312 131.011719 C 110.710938 131.074219 110.105469 131.164062 109.503906 131.28125 C 108.90625 131.402344 108.3125 131.550781 107.726562 131.726562 C 107.140625 131.90625 106.5625 132.113281 105.996094 132.347656 C 105.429688 132.582031 104.878906 132.84375 104.339844 133.132812 C 103.796875 133.421875 103.273438 133.734375 102.761719 134.074219 C 102.253906 134.414062 101.761719 134.78125 101.289062 135.167969 C 100.816406 135.558594 100.363281 135.96875 99.929688 136.402344 C 99.496094 136.832031 99.085938 137.289062 98.695312 137.761719 C 98.308594 138.234375 97.945312 138.726562 97.601562 139.234375 C 97.261719 139.746094 96.949219 140.269531 96.660156 140.808594 C 96.371094 141.347656 96.109375 141.902344 95.875 142.46875 C 95.640625 143.035156 95.433594 143.609375 95.257812 144.195312 C 95.078125 144.78125 94.929688 145.375 94.8125 145.976562 C 94.691406 146.578125 94.601562 147.183594 94.542969 147.792969 C 94.480469 148.402344 94.453125 149.011719 94.453125 149.625 L 94.453125 667.332031 C 94.449219 669.882812 94.621094 672.421875 94.96875 674.949219 C 95.3125 677.476562 95.828125 679.96875 96.511719 682.425781 C 97.199219 684.886719 98.046875 687.285156 99.058594 689.625 C 100.070312 691.96875 101.238281 694.230469 102.558594 696.414062 C 103.878906 698.59375 105.34375 700.675781 106.949219 702.660156 C 108.554688 704.644531 110.285156 706.507812 112.144531 708.253906 C 114.003906 710 115.972656 711.613281 118.054688 713.09375 C 120.132812 714.570312 122.304688 715.898438 124.5625 717.082031 C 126.765625 718.261719 129.035156 719.285156 131.378906 720.15625 C 133.71875 721.023438 136.109375 721.730469 138.546875 722.273438 C 140.984375 722.820312 143.445312 723.195312 145.9375 723.402344 C 148.425781 723.609375 150.914062 723.648438 153.410156 723.519531 C 155.902344 723.386719 158.378906 723.085938 160.832031 722.617188 C 163.285156 722.152344 165.695312 721.519531 168.0625 720.722656 C 170.429688 719.925781 172.730469 718.972656 174.96875 717.859375 C 177.203125 716.75 179.355469 715.492188 181.421875 714.089844 C 184.171875 712.136719 187.167969 710.679688 190.402344 709.71875 C 193.636719 708.757812 196.941406 708.34375 200.3125 708.480469 C 203.296875 708.535156 206.238281 708.929688 209.132812 709.65625 C 212.027344 710.382812 214.804688 711.429688 217.464844 712.789062 C 220.121094 714.152344 222.589844 715.792969 224.875 717.71875 C 227.15625 719.644531 229.195312 721.800781 230.984375 724.191406 C 232.746094 726.210938 234.609375 728.136719 236.574219 729.960938 C 238.539062 731.789062 240.59375 733.503906 242.742188 735.113281 C 244.886719 736.722656 247.113281 738.214844 249.414062 739.589844 C 251.71875 740.964844 254.085938 742.214844 256.523438 743.339844 C 258.957031 744.464844 261.445312 745.457031 263.984375 746.320312 C 266.523438 747.183594 269.101562 747.910156 271.71875 748.5 C 274.332031 749.09375 276.972656 749.546875 279.636719 749.859375 C 282.300781 750.171875 284.972656 750.34375 287.65625 750.375 C 290.332031 750.347656 293 750.183594 295.65625 749.875 C 298.316406 749.566406 300.949219 749.117188 303.5625 748.527344 C 306.171875 747.941406 308.746094 747.214844 311.277344 746.351562 C 313.8125 745.492188 316.292969 744.496094 318.71875 743.371094 C 321.148438 742.246094 323.511719 740.996094 325.804688 739.617188 C 328.101562 738.242188 330.316406 736.746094 332.453125 735.136719 C 334.589844 733.523438 336.632812 731.800781 338.585938 729.972656 C 340.539062 728.144531 342.390625 726.214844 344.140625 724.191406 C 344.574219 723.585938 345.027344 722.992188 345.5 722.414062 C 345.96875 721.835938 346.457031 721.273438 346.960938 720.722656 C 347.464844 720.171875 347.984375 719.640625 348.523438 719.121094 C 349.058594 718.601562 349.609375 718.097656 350.175781 717.613281 C 350.738281 717.128906 351.320312 716.660156 351.910156 716.207031 C 352.503906 715.753906 353.113281 715.320312 353.730469 714.90625 C 354.347656 714.488281 354.980469 714.089844 355.621094 713.714844 C 356.265625 713.335938 356.917969 712.976562 357.582031 712.636719 C 358.246094 712.296875 358.917969 711.976562 359.601562 711.675781 C 360.285156 711.375 360.976562 711.09375 361.675781 710.835938 C 362.375 710.578125 363.078125 710.339844 363.792969 710.121094 C 364.507812 709.902344 365.226562 709.707031 365.949219 709.53125 C 366.675781 709.359375 367.40625 709.203125 368.140625 709.074219 C 368.871094 708.941406 369.609375 708.832031 370.351562 708.742188 C 371.089844 708.65625 371.832031 708.589844 372.578125 708.546875 C 373.320312 708.5 374.066406 708.480469 374.8125 708.480469 C 375.558594 708.480469 376.304688 708.5 377.046875 708.546875 C 377.792969 708.589844 378.535156 708.65625 379.277344 708.742188 C 380.015625 708.832031 380.753906 708.941406 381.488281 709.074219 C 382.222656 709.203125 382.949219 709.359375 383.675781 709.53125 C 384.402344 709.707031 385.121094 709.902344 385.832031 710.121094 C 386.546875 710.339844 387.253906 710.578125 387.953125 710.835938 C 388.652344 711.09375 389.34375 711.375 390.023438 711.675781 C 390.707031 711.976562 391.378906 712.296875 392.042969 712.636719 C 392.707031 712.976562 393.359375 713.335938 394.003906 713.714844 C 394.644531 714.089844 395.277344 714.488281 395.894531 714.90625 C 396.515625 715.320312 397.121094 715.753906 397.714844 716.207031 C 398.308594 716.660156 398.886719 717.128906 399.453125 717.613281 C 400.019531 718.097656 400.566406 718.601562 401.105469 719.121094 C 401.640625 719.640625 402.160156 720.171875 402.664062 720.722656 C 403.167969 721.273438 403.65625 721.835938 404.125 722.414062 C 404.597656 722.992188 405.050781 723.585938 405.484375 724.191406 C 406.355469 725.210938 407.253906 726.210938 408.175781 727.183594 C 409.101562 728.15625 410.050781 729.105469 411.027344 730.027344 C 412.003906 730.949219 413 731.84375 414.027344 732.714844 C 415.050781 733.582031 416.097656 734.421875 417.164062 735.234375 C 418.234375 736.042969 419.324219 736.828125 420.4375 737.578125 C 421.546875 738.332031 422.679688 739.054688 423.832031 739.746094 C 424.980469 740.4375 426.148438 741.097656 427.335938 741.722656 C 428.523438 742.351562 429.726562 742.949219 430.945312 743.511719 C 432.164062 744.074219 433.394531 744.601562 434.640625 745.101562 C 435.890625 745.597656 437.148438 746.058594 438.421875 746.488281 C 439.695312 746.914062 440.976562 747.308594 442.269531 747.667969 C 443.5625 748.023438 444.867188 748.347656 446.175781 748.636719 C 447.488281 748.925781 448.804688 749.179688 450.132812 749.394531 C 451.457031 749.613281 452.785156 749.792969 454.121094 749.9375 C 455.453125 750.082031 456.792969 750.191406 458.132812 750.265625 C 459.472656 750.335938 460.816406 750.371094 462.15625 750.371094 C 463.5 750.371094 464.839844 750.335938 466.179688 750.265625 C 467.523438 750.191406 468.859375 750.082031 470.195312 749.9375 C 471.527344 749.792969 472.859375 749.613281 474.183594 749.394531 C 475.507812 749.179688 476.824219 748.925781 478.136719 748.636719 C 479.449219 748.347656 480.75 748.023438 482.042969 747.667969 C 483.335938 747.308594 484.621094 746.914062 485.890625 746.488281 C 487.164062 746.058594 488.425781 745.597656 489.671875 745.101562 C 490.917969 744.601562 492.152344 744.074219 493.371094 743.511719 C 494.589844 742.949219 495.792969 742.351562 496.976562 741.722656 C 498.164062 741.097656 499.332031 740.4375 500.484375 739.746094 C 501.632812 739.054688 502.765625 738.332031 503.878906 737.578125 C 504.988281 736.828125 506.078125 736.042969 507.148438 735.234375 C 508.21875 734.421875 509.265625 733.582031 510.289062 732.714844 C 511.3125 731.84375 512.3125 730.949219 513.289062 730.027344 C 514.261719 729.105469 515.210938 728.15625 516.136719 727.183594 C 517.0625 726.210938 517.957031 725.210938 518.828125 724.191406 C 520.617188 721.800781 522.65625 719.644531 524.9375 717.71875 C 527.222656 715.792969 529.691406 714.152344 532.347656 712.789062 C 535.007812 711.429688 537.785156 710.382812 540.679688 709.65625 C 543.574219 708.929688 546.515625 708.535156 549.5 708.480469 C 552.902344 708.347656 556.234375 708.761719 559.5 709.722656 C 562.761719 710.683594 565.789062 712.140625 568.578125 714.089844 C 570.621094 715.519531 572.753906 716.804688 574.976562 717.9375 C 577.199219 719.070312 579.488281 720.046875 581.847656 720.863281 C 584.203125 721.679688 586.605469 722.328125 589.054688 722.8125 C 591.5 723.296875 593.96875 723.605469 596.460938 723.746094 C 598.953125 723.886719 601.441406 723.851562 603.925781 723.648438 C 606.414062 723.441406 608.875 723.0625 611.308594 722.515625 C 613.742188 721.96875 616.125 721.257812 618.460938 720.378906 C 620.796875 719.5 623.058594 718.460938 625.25 717.269531 C 627.519531 716.082031 629.699219 714.746094 631.789062 713.265625 C 633.875 711.78125 635.855469 710.164062 637.722656 708.410156 C 639.59375 706.65625 641.332031 704.785156 642.945312 702.792969 C 644.558594 700.804688 646.03125 698.714844 647.359375 696.523438 C 648.6875 694.332031 649.863281 692.0625 650.882812 689.714844 C 651.902344 687.363281 652.757812 684.953125 653.453125 682.488281 C 654.144531 680.019531 654.664062 677.519531 655.015625 674.980469 C 655.367188 672.445312 655.542969 669.894531 655.546875 667.332031 L 655.546875 149.625 C 655.546875 149.011719 655.519531 148.402344 655.457031 147.792969 C 655.398438 147.183594 655.308594 146.578125 655.1875 145.976562 C 655.070312 145.375 654.921875 144.78125 654.742188 144.195312 C 654.566406 143.609375 654.359375 143.035156 654.125 142.46875 C 653.890625 141.902344 653.628906 141.347656 653.339844 140.808594 C 653.050781 140.269531 652.738281 139.746094 652.394531 139.234375 C 652.054688 138.726562 651.691406 138.234375 651.304688 137.761719 C 650.914062 137.289062 650.503906 136.832031 650.070312 136.402344 C 649.636719 135.96875 649.183594 135.558594 648.710938 135.167969 C 648.238281 134.78125 647.746094 134.414062 647.234375 134.074219 C 646.726562 133.734375 646.203125 133.417969 645.660156 133.132812 C 645.121094 132.84375 644.570312 132.582031 644.003906 132.347656 C 643.4375 132.113281 642.859375 131.90625 642.273438 131.726562 C 641.6875 131.550781 641.09375 131.402344 640.492188 131.28125 C 639.894531 131.164062 639.289062 131.074219 638.679688 131.011719 C 638.070312 130.953125 637.457031 130.921875 636.84375 130.921875 Z M 262.78125 392.769531 C 265.03125 392.765625 267.277344 392.863281 269.519531 393.066406 C 271.761719 393.265625 273.988281 393.566406 276.203125 393.96875 C 278.417969 394.371094 280.609375 394.871094 282.777344 395.46875 C 284.945312 396.070312 287.085938 396.765625 289.191406 397.558594 C 291.296875 398.351562 293.363281 399.238281 295.386719 400.21875 C 297.414062 401.199219 299.390625 402.269531 301.320312 403.425781 C 303.25 404.585938 305.125 405.828125 306.941406 407.15625 C 308.757812 408.484375 310.511719 409.890625 312.199219 411.378906 C 313.890625 412.863281 315.507812 414.425781 317.058594 416.058594 C 318.605469 417.691406 320.078125 419.390625 321.472656 421.15625 C 322.867188 422.921875 324.179688 424.746094 325.410156 426.632812 C 326.640625 428.515625 327.785156 430.453125 328.839844 432.441406 C 329.894531 434.429688 330.855469 436.460938 331.726562 438.535156 C 332.597656 440.609375 333.375 442.71875 334.054688 444.863281 C 334.738281 447.011719 335.320312 449.179688 335.804688 451.378906 C 336.289062 453.578125 336.671875 455.792969 336.957031 458.023438 C 337.238281 460.257812 337.421875 462.496094 337.503906 464.746094 C 337.585938 466.996094 337.566406 469.242188 337.445312 471.492188 C 337.320312 473.738281 337.097656 475.976562 336.773438 478.203125 C 336.449219 480.429688 336.027344 482.636719 335.503906 484.824219 C 334.980469 487.015625 334.359375 489.175781 333.640625 491.308594 C 332.921875 493.441406 332.105469 495.535156 331.199219 497.59375 C 330.289062 499.65625 329.289062 501.667969 328.199219 503.636719 C 327.109375 505.605469 325.933594 507.519531 324.667969 509.382812 C 323.40625 511.246094 322.0625 513.046875 320.632812 514.789062 C 319.207031 516.527344 317.707031 518.199219 316.128906 519.804688 C 314.550781 521.410156 312.902344 522.941406 311.1875 524.398438 C 309.472656 525.851562 307.691406 527.230469 305.851562 528.523438 C 304.011719 529.820312 302.117188 531.027344 300.167969 532.152344 C 298.21875 533.277344 296.222656 534.308594 294.175781 535.253906 C 292.132812 536.195312 290.054688 537.046875 287.933594 537.800781 C 285.8125 538.554688 283.664062 539.214844 281.484375 539.777344 L 281.484375 561.097656 C 281.484375 561.710938 281.453125 562.320312 281.394531 562.929688 C 281.332031 563.539062 281.242188 564.144531 281.125 564.746094 C 281.003906 565.347656 280.855469 565.941406 280.679688 566.527344 C 280.5 567.113281 280.292969 567.6875 280.058594 568.253906 C 279.824219 568.820312 279.5625 569.375 279.273438 569.914062 C 278.988281 570.453125 278.671875 570.980469 278.332031 571.488281 C 277.992188 571.996094 277.625 572.488281 277.238281 572.960938 C 276.851562 573.4375 276.4375 573.890625 276.003906 574.324219 C 275.574219 574.753906 275.121094 575.167969 274.644531 575.554688 C 274.171875 575.945312 273.679688 576.308594 273.171875 576.648438 C 272.664062 576.988281 272.136719 577.304688 271.597656 577.59375 C 271.058594 577.878906 270.503906 578.140625 269.9375 578.375 C 269.371094 578.609375 268.796875 578.816406 268.210938 578.996094 C 267.625 579.171875 267.03125 579.320312 266.429688 579.441406 C 265.828125 579.5625 265.222656 579.648438 264.613281 579.710938 C 264.003906 579.769531 263.394531 579.800781 262.78125 579.800781 C 262.167969 579.800781 261.558594 579.769531 260.945312 579.710938 C 260.335938 579.648438 259.734375 579.5625 259.132812 579.441406 C 258.53125 579.320312 257.9375 579.171875 257.351562 578.996094 C 256.765625 578.816406 256.1875 578.609375 255.621094 578.375 C 255.058594 578.140625 254.503906 577.878906 253.964844 577.59375 C 253.421875 577.304688 252.898438 576.988281 252.390625 576.648438 C 251.878906 576.308594 251.390625 575.945312 250.914062 575.554688 C 250.441406 575.167969 249.988281 574.753906 249.554688 574.324219 C 249.121094 573.890625 248.710938 573.4375 248.324219 572.960938 C 247.933594 572.488281 247.570312 571.996094 247.230469 571.488281 C 246.890625 570.980469 246.574219 570.453125 246.285156 569.914062 C 245.996094 569.375 245.734375 568.820312 245.5 568.253906 C 245.265625 567.6875 245.058594 567.113281 244.882812 566.527344 C 244.703125 565.941406 244.554688 565.347656 244.4375 564.746094 C 244.316406 564.144531 244.226562 563.539062 244.167969 562.929688 C 244.105469 562.320312 244.078125 561.710938 244.078125 561.097656 L 244.078125 539.777344 C 242.09375 539.261719 240.128906 538.667969 238.195312 537.996094 C 236.257812 537.320312 234.351562 536.570312 232.476562 535.738281 C 230.601562 534.910156 228.765625 534.003906 226.964844 533.019531 C 225.164062 532.039062 223.40625 530.984375 221.695312 529.859375 C 219.980469 528.734375 218.316406 527.539062 216.699219 526.277344 C 215.085938 525.011719 213.523438 523.683594 212.019531 522.292969 C 210.511719 520.902344 209.066406 519.453125 207.679688 517.941406 C 206.289062 516.429688 204.96875 514.867188 203.710938 513.246094 C 202.453125 511.628906 201.261719 509.960938 200.140625 508.242188 C 199.019531 506.527344 197.96875 504.765625 196.996094 502.964844 C 196.019531 501.160156 195.117188 499.320312 194.292969 497.445312 C 193.464844 495.566406 192.71875 493.660156 192.050781 491.71875 C 191.382812 489.78125 190.796875 487.820312 190.289062 485.832031 C 189.78125 483.84375 189.359375 481.839844 189.015625 479.820312 C 188.671875 477.796875 188.414062 475.765625 188.238281 473.722656 C 188.066406 471.679688 187.972656 469.632812 187.96875 467.582031 C 187.96875 466.96875 187.996094 466.359375 188.058594 465.746094 C 188.117188 465.136719 188.207031 464.53125 188.328125 463.933594 C 188.445312 463.332031 188.59375 462.738281 188.773438 462.152344 C 188.949219 461.566406 189.15625 460.988281 189.390625 460.421875 C 189.625 459.859375 189.886719 459.304688 190.175781 458.765625 C 190.464844 458.222656 190.777344 457.699219 191.121094 457.191406 C 191.460938 456.679688 191.824219 456.1875 192.214844 455.714844 C 192.601562 455.242188 193.011719 454.789062 193.445312 454.355469 C 193.878906 453.921875 194.332031 453.511719 194.804688 453.125 C 195.277344 452.734375 195.769531 452.371094 196.28125 452.03125 C 196.789062 451.691406 197.3125 451.375 197.855469 451.085938 C 198.394531 450.796875 198.949219 450.535156 199.511719 450.300781 C 200.078125 450.066406 200.65625 449.859375 201.242188 449.683594 C 201.828125 449.503906 202.421875 449.355469 203.023438 449.238281 C 203.621094 449.117188 204.226562 449.027344 204.835938 448.96875 C 205.445312 448.90625 206.058594 448.878906 206.671875 448.878906 C 207.285156 448.878906 207.894531 448.90625 208.503906 448.96875 C 209.113281 449.027344 209.71875 449.117188 210.320312 449.238281 C 210.921875 449.355469 211.515625 449.503906 212.101562 449.683594 C 212.6875 449.859375 213.261719 450.066406 213.828125 450.300781 C 214.394531 450.535156 214.945312 450.796875 215.488281 451.085938 C 216.027344 451.375 216.550781 451.691406 217.0625 452.03125 C 217.570312 452.371094 218.0625 452.734375 218.535156 453.125 C 219.007812 453.511719 219.460938 453.921875 219.894531 454.355469 C 220.328125 454.789062 220.738281 455.242188 221.128906 455.714844 C 221.515625 456.1875 221.882812 456.679688 222.222656 457.191406 C 222.5625 457.699219 222.875 458.222656 223.164062 458.765625 C 223.453125 459.304688 223.714844 459.859375 223.949219 460.421875 C 224.183594 460.988281 224.390625 461.566406 224.570312 462.152344 C 224.746094 462.738281 224.894531 463.332031 225.015625 463.933594 C 225.132812 464.53125 225.222656 465.136719 225.285156 465.746094 C 225.34375 466.359375 225.375 466.96875 225.375 467.582031 C 225.375 468.804688 225.433594 470.027344 225.554688 471.246094 C 225.675781 472.464844 225.855469 473.675781 226.09375 474.878906 C 226.332031 476.082031 226.628906 477.265625 226.984375 478.441406 C 227.339844 479.613281 227.753906 480.765625 228.222656 481.894531 C 228.691406 483.027344 229.214844 484.132812 229.789062 485.214844 C 230.367188 486.292969 230.996094 487.34375 231.679688 488.363281 C 232.359375 489.382812 233.085938 490.363281 233.863281 491.3125 C 234.640625 492.257812 235.464844 493.164062 236.332031 494.03125 C 237.195312 494.898438 238.101562 495.71875 239.050781 496.496094 C 239.996094 497.273438 240.980469 498.003906 242 498.683594 C 243.015625 499.363281 244.066406 499.992188 245.148438 500.570312 C 246.226562 501.148438 247.332031 501.671875 248.464844 502.140625 C 249.597656 502.609375 250.75 503.019531 251.921875 503.375 C 253.09375 503.734375 254.28125 504.03125 255.484375 504.269531 C 256.683594 504.507812 257.894531 504.6875 259.113281 504.808594 C 260.332031 504.925781 261.554688 504.988281 262.78125 504.988281 C 264.003906 504.988281 265.226562 504.925781 266.445312 504.808594 C 267.667969 504.6875 268.875 504.507812 270.078125 504.269531 C 271.28125 504.03125 272.464844 503.734375 273.640625 503.375 C 274.8125 503.019531 275.964844 502.609375 277.09375 502.140625 C 278.226562 501.671875 279.332031 501.148438 280.414062 500.570312 C 281.496094 499.992188 282.542969 499.363281 283.5625 498.683594 C 284.582031 498.003906 285.5625 497.273438 286.511719 496.496094 C 287.457031 495.71875 288.363281 494.898438 289.230469 494.03125 C 290.097656 493.164062 290.917969 492.257812 291.695312 491.3125 C 292.472656 490.363281 293.203125 489.382812 293.882812 488.363281 C 294.5625 487.34375 295.191406 486.292969 295.769531 485.214844 C 296.347656 484.132812 296.871094 483.027344 297.339844 481.894531 C 297.808594 480.765625 298.21875 479.613281 298.578125 478.441406 C 298.933594 477.265625 299.230469 476.082031 299.46875 474.878906 C 299.707031 473.675781 299.886719 472.464844 300.007812 471.246094 C 300.128906 470.027344 300.1875 468.804688 300.1875 467.582031 C 300.1875 466.355469 300.128906 465.132812 300.007812 463.914062 C 299.886719 462.695312 299.707031 461.484375 299.46875 460.285156 C 299.230469 459.082031 298.933594 457.894531 298.578125 456.722656 C 298.21875 455.550781 297.808594 454.398438 297.339844 453.265625 C 296.871094 452.132812 296.347656 451.027344 295.769531 449.949219 C 295.191406 448.867188 294.5625 447.816406 293.882812 446.800781 C 293.203125 445.78125 292.472656 444.796875 291.695312 443.851562 C 290.917969 442.902344 290.097656 441.996094 289.230469 441.128906 C 288.363281 440.265625 287.457031 439.441406 286.511719 438.664062 C 285.5625 437.886719 284.582031 437.160156 283.5625 436.480469 C 282.542969 435.796875 281.496094 435.167969 280.414062 434.589844 C 279.332031 434.015625 278.226562 433.492188 277.09375 433.023438 C 275.964844 432.554688 274.8125 432.140625 273.640625 431.785156 C 272.464844 431.429688 271.28125 431.132812 270.078125 430.894531 C 268.875 430.65625 267.667969 430.476562 266.445312 430.355469 C 265.226562 430.234375 264.003906 430.175781 262.78125 430.175781 C 260.53125 430.175781 258.285156 430.078125 256.042969 429.878906 C 253.800781 429.679688 251.574219 429.375 249.359375 428.976562 C 247.144531 428.574219 244.953125 428.074219 242.785156 427.472656 C 240.613281 426.871094 238.476562 426.175781 236.371094 425.382812 C 234.265625 424.589844 232.199219 423.703125 230.171875 422.722656 C 228.148438 421.742188 226.167969 420.675781 224.238281 419.515625 C 222.308594 418.355469 220.4375 417.113281 218.621094 415.785156 C 216.804688 414.457031 215.050781 413.050781 213.359375 411.5625 C 211.671875 410.078125 210.050781 408.519531 208.503906 406.886719 C 206.953125 405.253906 205.484375 403.554688 204.085938 401.785156 C 202.691406 400.019531 201.378906 398.195312 200.148438 396.3125 C 198.917969 394.425781 197.777344 392.488281 196.722656 390.503906 C 195.667969 388.515625 194.703125 386.484375 193.832031 384.40625 C 192.960938 382.332031 192.183594 380.222656 191.503906 378.078125 C 190.824219 375.933594 190.242188 373.761719 189.757812 371.5625 C 189.273438 369.367188 188.890625 367.152344 188.605469 364.917969 C 188.320312 362.6875 188.136719 360.445312 188.058594 358.195312 C 187.976562 355.945312 187.996094 353.699219 188.117188 351.453125 C 188.238281 349.203125 188.460938 346.96875 188.785156 344.738281 C 189.109375 342.511719 189.535156 340.304688 190.058594 338.117188 C 190.582031 335.929688 191.203125 333.765625 191.921875 331.632812 C 192.640625 329.503906 193.453125 327.40625 194.363281 325.347656 C 195.269531 323.289062 196.269531 321.273438 197.359375 319.304688 C 198.449219 317.335938 199.628906 315.421875 200.890625 313.558594 C 202.15625 311.695312 203.5 309.894531 204.925781 308.15625 C 206.351562 306.414062 207.855469 304.742188 209.433594 303.136719 C 211.011719 301.53125 212.65625 300 214.375 298.546875 C 216.089844 297.089844 217.867188 295.714844 219.707031 294.417969 C 221.550781 293.125 223.445312 291.914062 225.394531 290.789062 C 227.34375 289.667969 229.339844 288.632812 231.382812 287.6875 C 233.425781 286.746094 235.507812 285.894531 237.628906 285.140625 C 239.75 284.386719 241.898438 283.726562 244.078125 283.167969 L 244.078125 261.84375 C 244.078125 261.234375 244.105469 260.621094 244.167969 260.011719 C 244.226562 259.402344 244.316406 258.796875 244.4375 258.195312 C 244.554688 257.597656 244.703125 257.003906 244.882812 256.417969 C 245.058594 255.828125 245.265625 255.253906 245.5 254.6875 C 245.734375 254.121094 245.996094 253.570312 246.285156 253.027344 C 246.574219 252.488281 246.890625 251.964844 247.230469 251.453125 C 247.570312 250.945312 247.933594 250.453125 248.324219 249.980469 C 248.710938 249.507812 249.121094 249.054688 249.554688 248.621094 C 249.988281 248.1875 250.441406 247.777344 250.914062 247.386719 C 251.390625 247 251.878906 246.632812 252.390625 246.292969 C 252.898438 245.953125 253.421875 245.640625 253.964844 245.351562 C 254.503906 245.0625 255.058594 244.800781 255.621094 244.566406 C 256.1875 244.332031 256.765625 244.125 257.351562 243.949219 C 257.9375 243.769531 258.53125 243.621094 259.132812 243.5 C 259.734375 243.382812 260.335938 243.292969 260.945312 243.230469 C 261.558594 243.171875 262.167969 243.140625 262.78125 243.140625 C 263.394531 243.140625 264.003906 243.171875 264.613281 243.230469 C 265.222656 243.292969 265.828125 243.382812 266.429688 243.5 C 267.03125 243.621094 267.625 243.769531 268.210938 243.949219 C 268.796875 244.125 269.371094 244.332031 269.9375 244.566406 C 270.503906 244.800781 271.058594 245.0625 271.597656 245.351562 C 272.136719 245.640625 272.664062 245.953125 273.171875 246.292969 C 273.679688 246.632812 274.171875 247 274.644531 247.386719 C 275.121094 247.777344 275.574219 248.1875 276.003906 248.621094 C 276.4375 249.054688 276.851562 249.507812 277.238281 249.980469 C 277.625 250.453125 277.992188 250.945312 278.332031 251.453125 C 278.671875 251.964844 278.988281 252.488281 279.273438 253.027344 C 279.5625 253.570312 279.824219 254.121094 280.058594 254.6875 C 280.292969 255.253906 280.5 255.828125 280.679688 256.417969 C 280.855469 257.003906 281.003906 257.597656 281.125 258.195312 C 281.242188 258.796875 281.332031 259.402344 281.394531 260.011719 C 281.453125 260.621094 281.484375 261.234375 281.484375 261.84375 L 281.484375 283.167969 C 283.46875 283.679688 285.429688 284.273438 287.367188 284.945312 C 289.304688 285.621094 291.210938 286.371094 293.082031 287.203125 C 294.957031 288.035156 296.796875 288.941406 298.597656 289.921875 C 300.398438 290.902344 302.152344 291.957031 303.867188 293.082031 C 305.582031 294.210938 307.246094 295.402344 308.859375 296.667969 C 310.476562 297.929688 312.035156 299.257812 313.542969 300.648438 C 315.050781 302.039062 316.496094 303.492188 317.882812 305 C 319.269531 306.511719 320.59375 308.074219 321.851562 309.695312 C 323.109375 311.3125 324.300781 312.980469 325.421875 314.699219 C 326.542969 316.414062 327.589844 318.175781 328.566406 319.980469 C 329.542969 321.78125 330.445312 323.621094 331.269531 325.5 C 332.09375 327.375 332.839844 329.285156 333.507812 331.222656 C 334.175781 333.160156 334.765625 335.125 335.273438 337.109375 C 335.777344 339.097656 336.203125 341.101562 336.546875 343.125 C 336.886719 345.144531 337.144531 347.179688 337.320312 349.222656 C 337.496094 351.265625 337.585938 353.3125 337.59375 355.363281 C 337.59375 355.972656 337.5625 356.585938 337.503906 357.195312 C 337.445312 357.804688 337.355469 358.410156 337.234375 359.011719 C 337.113281 359.609375 336.964844 360.203125 336.789062 360.789062 C 336.609375 361.378906 336.402344 361.953125 336.167969 362.519531 C 335.933594 363.085938 335.671875 363.636719 335.386719 364.179688 C 335.097656 364.71875 334.78125 365.242188 334.441406 365.753906 C 334.101562 366.261719 333.738281 366.753906 333.347656 367.226562 C 332.960938 367.699219 332.546875 368.152344 332.117188 368.585938 C 331.683594 369.019531 331.230469 369.429688 330.753906 369.820312 C 330.28125 370.207031 329.789062 370.574219 329.28125 370.914062 C 328.773438 371.253906 328.246094 371.566406 327.707031 371.855469 C 327.167969 372.144531 326.613281 372.40625 326.046875 372.640625 C 325.480469 372.875 324.90625 373.082031 324.320312 373.257812 C 323.734375 373.4375 323.140625 373.585938 322.539062 373.707031 C 321.9375 373.824219 321.332031 373.914062 320.722656 373.976562 C 320.113281 374.035156 319.503906 374.066406 318.890625 374.066406 C 318.277344 374.066406 317.667969 374.035156 317.058594 373.976562 C 316.449219 373.914062 315.84375 373.824219 315.242188 373.707031 C 314.640625 373.585938 314.046875 373.4375 313.460938 373.257812 C 312.875 373.082031 312.296875 372.875 311.734375 372.640625 C 311.167969 372.40625 310.613281 372.144531 310.074219 371.855469 C 309.535156 371.566406 309.007812 371.253906 308.5 370.914062 C 307.988281 370.574219 307.5 370.207031 307.023438 369.820312 C 306.550781 369.429688 306.097656 369.019531 305.664062 368.585938 C 305.230469 368.152344 304.820312 367.699219 304.433594 367.226562 C 304.042969 366.753906 303.679688 366.261719 303.339844 365.753906 C 303 365.242188 302.683594 364.71875 302.394531 364.179688 C 302.105469 363.636719 301.84375 363.085938 301.609375 362.519531 C 301.375 361.953125 301.171875 361.378906 300.992188 360.789062 C 300.816406 360.203125 300.664062 359.609375 300.546875 359.011719 C 300.425781 358.410156 300.335938 357.804688 300.277344 357.195312 C 300.21875 356.585938 300.1875 355.972656 300.1875 355.363281 C 300.1875 354.136719 300.128906 352.914062 300.007812 351.695312 C 299.886719 350.476562 299.707031 349.265625 299.46875 348.0625 C 299.230469 346.863281 298.933594 345.675781 298.578125 344.503906 C 298.21875 343.332031 297.808594 342.179688 297.339844 341.046875 C 296.871094 339.914062 296.347656 338.808594 295.769531 337.726562 C 295.191406 336.648438 294.5625 335.597656 293.882812 334.578125 C 293.203125 333.5625 292.472656 332.578125 291.695312 331.632812 C 290.917969 330.683594 290.097656 329.777344 289.230469 328.910156 C 288.363281 328.046875 287.457031 327.222656 286.511719 326.445312 C 285.5625 325.667969 284.582031 324.941406 283.5625 324.257812 C 282.542969 323.578125 281.496094 322.949219 280.414062 322.371094 C 279.332031 321.792969 278.226562 321.269531 277.09375 320.800781 C 275.964844 320.332031 274.8125 319.921875 273.640625 319.566406 C 272.464844 319.210938 271.28125 318.914062 270.078125 318.675781 C 268.875 318.433594 267.667969 318.253906 266.445312 318.136719 C 265.226562 318.015625 264.003906 317.957031 262.78125 317.957031 C 261.554688 317.957031 260.332031 318.015625 259.113281 318.136719 C 257.894531 318.253906 256.683594 318.433594 255.484375 318.675781 C 254.28125 318.914062 253.09375 319.210938 251.921875 319.566406 C 250.75 319.921875 249.597656 320.332031 248.464844 320.800781 C 247.332031 321.269531 246.226562 321.792969 245.148438 322.371094 C 244.066406 322.949219 243.015625 323.578125 242 324.257812 C 240.980469 324.941406 239.996094 325.667969 239.050781 326.445312 C 238.101562 327.222656 237.195312 328.046875 236.332031 328.910156 C 235.464844 329.777344 234.640625 330.683594 233.863281 331.632812 C 233.085938 332.578125 232.359375 333.5625 231.679688 334.578125 C 230.996094 335.597656 230.367188 336.648438 229.789062 337.726562 C 229.214844 338.808594 228.691406 339.914062 228.222656 341.046875 C 227.753906 342.179688 227.339844 343.332031 226.984375 344.503906 C 226.628906 345.675781 226.332031 346.863281 226.09375 348.0625 C 225.855469 349.265625 225.675781 350.476562 225.554688 351.695312 C 225.433594 352.914062 225.375 354.136719 225.375 355.363281 C 225.375 356.585938 225.433594 357.808594 225.554688 359.027344 C 225.675781 360.246094 225.855469 361.457031 226.09375 362.660156 C 226.332031 363.859375 226.628906 365.046875 226.984375 366.21875 C 227.339844 367.390625 227.753906 368.542969 228.222656 369.675781 C 228.691406 370.808594 229.214844 371.914062 229.789062 372.996094 C 230.367188 374.074219 230.996094 375.125 231.679688 376.144531 C 232.359375 377.164062 233.085938 378.144531 233.863281 379.09375 C 234.640625 380.039062 235.464844 380.945312 236.332031 381.8125 C 237.195312 382.679688 238.101562 383.5 239.050781 384.277344 C 239.996094 385.054688 240.980469 385.785156 242 386.464844 C 243.015625 387.144531 244.066406 387.773438 245.148438 388.351562 C 246.226562 388.929688 247.332031 389.453125 248.464844 389.921875 C 249.597656 390.390625 250.75 390.800781 251.921875 391.15625 C 253.09375 391.511719 254.28125 391.808594 255.484375 392.050781 C 256.683594 392.289062 257.894531 392.46875 259.113281 392.589844 C 260.332031 392.707031 261.554688 392.769531 262.78125 392.769531 Z M 543.328125 542.394531 L 431.109375 542.394531 C 430.496094 542.394531 429.886719 542.363281 429.277344 542.304688 C 428.667969 542.242188 428.0625 542.152344 427.460938 542.035156 C 426.859375 541.914062 426.265625 541.765625 425.679688 541.589844 C 425.09375 541.410156 424.519531 541.203125 423.953125 540.96875 C 423.386719 540.734375 422.832031 540.472656 422.292969 540.183594 C 421.753906 539.898438 421.226562 539.582031 420.71875 539.242188 C 420.210938 538.902344 419.71875 538.539062 419.246094 538.148438 C 418.769531 537.761719 418.316406 537.347656 417.882812 536.914062 C 417.453125 536.484375 417.039062 536.03125 416.652344 535.554688 C 416.261719 535.082031 415.898438 534.589844 415.558594 534.082031 C 415.21875 533.574219 414.902344 533.046875 414.613281 532.507812 C 414.324219 531.96875 414.066406 531.414062 413.828125 530.847656 C 413.59375 530.28125 413.390625 529.707031 413.210938 529.121094 C 413.035156 528.535156 412.886719 527.941406 412.765625 527.339844 C 412.644531 526.738281 412.554688 526.132812 412.496094 525.523438 C 412.4375 524.914062 412.40625 524.304688 412.40625 523.691406 C 412.40625 523.078125 412.4375 522.46875 412.496094 521.859375 C 412.554688 521.246094 412.644531 520.644531 412.765625 520.042969 C 412.886719 519.441406 413.035156 518.847656 413.210938 518.261719 C 413.390625 517.675781 413.59375 517.097656 413.832031 516.535156 C 414.066406 515.96875 414.324219 515.414062 414.613281 514.875 C 414.902344 514.332031 415.21875 513.808594 415.558594 513.300781 C 415.898438 512.789062 416.261719 512.300781 416.652344 511.824219 C 417.039062 511.351562 417.453125 510.898438 417.882812 510.464844 C 418.316406 510.03125 418.769531 509.621094 419.246094 509.234375 C 419.71875 508.84375 420.210938 508.480469 420.71875 508.140625 C 421.226562 507.800781 421.753906 507.484375 422.292969 507.195312 C 422.832031 506.90625 423.386719 506.644531 423.953125 506.410156 C 424.519531 506.175781 425.09375 505.972656 425.679688 505.792969 C 426.265625 505.613281 426.859375 505.464844 427.460938 505.347656 C 428.0625 505.226562 428.667969 505.136719 429.277344 505.078125 C 429.886719 505.019531 430.496094 504.988281 431.109375 504.988281 L 543.328125 504.988281 C 543.941406 504.988281 544.554688 505.015625 545.164062 505.078125 C 545.773438 505.136719 546.378906 505.226562 546.976562 505.347656 C 547.578125 505.464844 548.171875 505.613281 548.757812 505.792969 C 549.34375 505.972656 549.921875 506.175781 550.488281 506.410156 C 551.050781 506.644531 551.605469 506.90625 552.144531 507.195312 C 552.6875 507.484375 553.210938 507.800781 553.71875 508.140625 C 554.230469 508.480469 554.722656 508.84375 555.195312 509.234375 C 555.667969 509.621094 556.121094 510.03125 556.554688 510.464844 C 556.988281 510.898438 557.398438 511.351562 557.785156 511.824219 C 558.175781 512.300781 558.539062 512.789062 558.878906 513.300781 C 559.21875 513.808594 559.535156 514.332031 559.824219 514.875 C 560.113281 515.414062 560.375 515.96875 560.609375 516.535156 C 560.84375 517.097656 561.050781 517.675781 561.226562 518.261719 C 561.40625 518.847656 561.554688 519.441406 561.671875 520.042969 C 561.792969 520.644531 561.882812 521.246094 561.941406 521.859375 C 562.003906 522.46875 562.03125 523.078125 562.03125 523.691406 C 562.03125 524.304688 562.003906 524.914062 561.941406 525.523438 C 561.882812 526.132812 561.792969 526.738281 561.671875 527.339844 C 561.554688 527.941406 561.40625 528.535156 561.226562 529.121094 C 561.050781 529.707031 560.84375 530.28125 560.609375 530.847656 C 560.375 531.414062 560.113281 531.96875 559.824219 532.507812 C 559.535156 533.046875 559.21875 533.574219 558.878906 534.082031 C 558.539062 534.589844 558.175781 535.082031 557.785156 535.554688 C 557.398438 536.03125 556.988281 536.484375 556.554688 536.914062 C 556.121094 537.347656 555.667969 537.761719 555.195312 538.148438 C 554.722656 538.539062 554.230469 538.902344 553.71875 539.242188 C 553.210938 539.582031 552.6875 539.898438 552.144531 540.183594 C 551.605469 540.472656 551.050781 540.734375 550.488281 540.96875 C 549.921875 541.203125 549.34375 541.410156 548.757812 541.589844 C 548.171875 541.765625 547.578125 541.914062 546.976562 542.035156 C 546.378906 542.152344 545.773438 542.242188 545.164062 542.304688 C 544.554688 542.363281 543.941406 542.394531 543.328125 542.394531 Z M 543.328125 448.878906 L 431.109375 448.878906 C 430.496094 448.878906 429.886719 448.847656 429.277344 448.789062 C 428.667969 448.726562 428.0625 448.636719 427.460938 448.519531 C 426.859375 448.398438 426.265625 448.25 425.679688 448.074219 C 425.09375 447.894531 424.519531 447.6875 423.953125 447.453125 C 423.386719 447.21875 422.832031 446.957031 422.292969 446.667969 C 421.753906 446.378906 421.226562 446.066406 420.71875 445.726562 C 420.210938 445.386719 419.71875 445.019531 419.246094 444.632812 C 418.769531 444.242188 418.316406 443.832031 417.882812 443.398438 C 417.453125 442.964844 417.039062 442.511719 416.652344 442.039062 C 416.261719 441.566406 415.898438 441.074219 415.558594 440.566406 C 415.21875 440.054688 414.902344 439.53125 414.613281 438.992188 C 414.324219 438.449219 414.066406 437.898438 413.828125 437.332031 C 413.59375 436.765625 413.390625 436.191406 413.210938 435.605469 C 413.035156 435.019531 412.886719 434.425781 412.765625 433.824219 C 412.644531 433.222656 412.554688 432.617188 412.496094 432.007812 C 412.4375 431.398438 412.40625 430.789062 412.40625 430.175781 C 412.40625 429.5625 412.4375 428.949219 412.496094 428.339844 C 412.554688 427.730469 412.644531 427.125 412.765625 426.527344 C 412.886719 425.925781 413.035156 425.332031 413.210938 424.746094 C 413.390625 424.160156 413.59375 423.582031 413.832031 423.015625 C 414.066406 422.449219 414.324219 421.898438 414.613281 421.359375 C 414.902344 420.816406 415.21875 420.292969 415.558594 419.785156 C 415.898438 419.273438 416.261719 418.78125 416.652344 418.308594 C 417.039062 417.835938 417.453125 417.382812 417.882812 416.949219 C 418.316406 416.515625 418.769531 416.105469 419.246094 415.714844 C 419.71875 415.328125 420.210938 414.964844 420.71875 414.625 C 421.226562 414.28125 421.753906 413.96875 422.292969 413.679688 C 422.832031 413.390625 423.386719 413.128906 423.953125 412.894531 C 424.519531 412.660156 425.09375 412.453125 425.679688 412.277344 C 426.265625 412.097656 426.859375 411.949219 427.460938 411.832031 C 428.0625 411.710938 428.667969 411.621094 429.277344 411.5625 C 429.886719 411.5 430.496094 411.472656 431.109375 411.472656 L 543.328125 411.472656 C 543.941406 411.472656 544.554688 411.5 545.164062 411.5625 C 545.773438 411.621094 546.378906 411.710938 546.976562 411.832031 C 547.578125 411.949219 548.171875 412.097656 548.757812 412.277344 C 549.34375 412.453125 549.921875 412.660156 550.488281 412.894531 C 551.050781 413.128906 551.605469 413.390625 552.144531 413.679688 C 552.6875 413.96875 553.210938 414.28125 553.71875 414.625 C 554.230469 414.964844 554.722656 415.328125 555.195312 415.714844 C 555.667969 416.105469 556.121094 416.515625 556.554688 416.949219 C 556.988281 417.382812 557.398438 417.835938 557.785156 418.308594 C 558.175781 418.78125 558.539062 419.273438 558.878906 419.785156 C 559.21875 420.292969 559.535156 420.816406 559.824219 421.359375 C 560.113281 421.898438 560.375 422.449219 560.609375 423.015625 C 560.84375 423.582031 561.050781 424.160156 561.226562 424.746094 C 561.40625 425.332031 561.554688 425.925781 561.671875 426.527344 C 561.792969 427.125 561.882812 427.730469 561.941406 428.339844 C 562.003906 428.949219 562.03125 429.5625 562.03125 430.175781 C 562.03125 430.789062 562.003906 431.398438 561.941406 432.007812 C 561.882812 432.617188 561.792969 433.222656 561.671875 433.824219 C 561.554688 434.425781 561.40625 435.019531 561.226562 435.605469 C 561.050781 436.191406 560.84375 436.765625 560.609375 437.332031 C 560.375 437.898438 560.113281 438.449219 559.824219 438.992188 C 559.535156 439.53125 559.21875 440.054688 558.878906 440.566406 C 558.539062 441.074219 558.175781 441.566406 557.785156 442.039062 C 557.398438 442.511719 556.988281 442.964844 556.554688 443.398438 C 556.121094 443.832031 555.667969 444.242188 555.195312 444.632812 C 554.722656 445.019531 554.230469 445.386719 553.71875 445.726562 C 553.210938 446.066406 552.6875 446.378906 552.144531 446.667969 C 551.605469 446.957031 551.050781 447.21875 550.488281 447.453125 C 549.921875 447.6875 549.34375 447.894531 548.757812 448.074219 C 548.171875 448.25 547.578125 448.398438 546.976562 448.519531 C 546.378906 448.636719 545.773438 448.726562 545.164062 448.789062 C 544.554688 448.847656 543.941406 448.878906 543.328125 448.878906 Z M 543.328125 355.363281 L 431.109375 355.363281 C 430.496094 355.363281 429.886719 355.332031 429.277344 355.273438 C 428.667969 355.210938 428.0625 355.121094 427.460938 355.003906 C 426.859375 354.882812 426.265625 354.734375 425.679688 354.554688 C 425.09375 354.378906 424.519531 354.171875 423.953125 353.9375 C 423.386719 353.703125 422.832031 353.441406 422.292969 353.152344 C 421.753906 352.863281 421.226562 352.550781 420.71875 352.210938 C 420.210938 351.871094 419.71875 351.503906 419.246094 351.117188 C 418.769531 350.726562 418.316406 350.316406 417.882812 349.882812 C 417.453125 349.449219 417.039062 348.996094 416.652344 348.523438 C 416.261719 348.050781 415.898438 347.558594 415.558594 347.050781 C 415.21875 346.539062 414.902344 346.015625 414.613281 345.476562 C 414.324219 344.933594 414.066406 344.382812 413.828125 343.816406 C 413.59375 343.25 413.390625 342.671875 413.210938 342.085938 C 413.035156 341.5 412.886719 340.90625 412.765625 340.308594 C 412.644531 339.707031 412.554688 339.101562 412.496094 338.492188 C 412.4375 337.882812 412.40625 337.269531 412.40625 336.660156 C 412.40625 336.046875 412.4375 335.433594 412.496094 334.824219 C 412.554688 334.214844 412.644531 333.609375 412.765625 333.007812 C 412.886719 332.410156 413.035156 331.816406 413.210938 331.230469 C 413.390625 330.644531 413.59375 330.066406 413.832031 329.5 C 414.066406 328.933594 414.324219 328.382812 414.613281 327.839844 C 414.902344 327.300781 415.21875 326.777344 415.558594 326.265625 C 415.898438 325.757812 416.261719 325.265625 416.652344 324.792969 C 417.039062 324.320312 417.453125 323.867188 417.882812 323.433594 C 418.316406 323 418.769531 322.589844 419.246094 322.199219 C 419.71875 321.8125 420.210938 321.449219 420.71875 321.105469 C 421.226562 320.765625 421.753906 320.453125 422.292969 320.164062 C 422.832031 319.875 423.386719 319.613281 423.953125 319.378906 C 424.519531 319.144531 425.09375 318.9375 425.679688 318.761719 C 426.265625 318.582031 426.859375 318.433594 427.460938 318.316406 C 428.0625 318.195312 428.667969 318.105469 429.277344 318.046875 C 429.886719 317.984375 430.496094 317.957031 431.109375 317.957031 L 543.328125 317.957031 C 543.941406 317.957031 544.554688 317.984375 545.164062 318.046875 C 545.773438 318.105469 546.378906 318.195312 546.976562 318.316406 C 547.578125 318.433594 548.171875 318.582031 548.757812 318.761719 C 549.34375 318.9375 549.921875 319.144531 550.488281 319.378906 C 551.050781 319.613281 551.605469 319.875 552.144531 320.164062 C 552.6875 320.453125 553.210938 320.765625 553.71875 321.105469 C 554.230469 321.449219 554.722656 321.8125 555.195312 322.199219 C 555.667969 322.589844 556.121094 323 556.554688 323.433594 C 556.988281 323.867188 557.398438 324.320312 557.785156 324.792969 C 558.175781 325.265625 558.539062 325.757812 558.878906 326.265625 C 559.21875 326.777344 559.535156 327.300781 559.824219 327.839844 C 560.113281 328.382812 560.375 328.933594 560.609375 329.5 C 560.84375 330.066406 561.050781 330.644531 561.226562 331.230469 C 561.40625 331.816406 561.554688 332.410156 561.671875 333.007812 C 561.792969 333.609375 561.882812 334.214844 561.941406 334.824219 C 562.003906 335.433594 562.03125 336.046875 562.03125 336.660156 C 562.03125 337.269531 562.003906 337.882812 561.941406 338.492188 C 561.882812 339.101562 561.792969 339.707031 561.671875 340.308594 C 561.554688 340.90625 561.40625 341.5 561.226562 342.085938 C 561.050781 342.671875 560.84375 343.25 560.609375 343.816406 C 560.375 344.382812 560.113281 344.933594 559.824219 345.476562 C 559.535156 346.015625 559.21875 346.539062 558.878906 347.050781 C 558.539062 347.558594 558.175781 348.050781 557.785156 348.523438 C 557.398438 348.996094 556.988281 349.449219 556.554688 349.882812 C 556.121094 350.316406 555.667969 350.726562 555.195312 351.117188 C 554.722656 351.503906 554.230469 351.871094 553.71875 352.210938 C 553.210938 352.550781 552.6875 352.863281 552.144531 353.152344 C 551.605469 353.441406 551.050781 353.703125 550.488281 353.9375 C 549.921875 354.171875 549.34375 354.378906 548.757812 354.554688 C 548.171875 354.734375 547.578125 354.882812 546.976562 355.003906 C 546.378906 355.121094 545.773438 355.210938 545.164062 355.273438 C 544.554688 355.332031 543.941406 355.363281 543.328125 355.363281 Z M 543.328125 355.363281 " fill-opacity="1" fill-rule="nonzero"/></svg>