<svg xmlns="http://www.w3.org/2000/svg" xmlns:xlink="http://www.w3.org/1999/xlink" width="1000" zoomAndPan="magnify" viewBox="0 0 750 749.999995" height="1000" preserveAspectRatio="xMidYMid meet" version="1.0"><path fill="#ffffff" d="M 505.675781 749.902344 C 498.371094 749.902344 491.785156 745.425781 489.125 738.582031 L 355.328125 394.761719 L 11.507812 260.964844 C 4.484375 258.230469 -0.0507812 251.367188 0.195312 243.832031 C 0.441406 236.296875 5.414062 229.742188 12.597656 227.472656 L 725.632812 2.167969 C 731.949219 0.167969 738.859375 1.859375 743.546875 6.542969 C 748.234375 11.230469 749.921875 18.136719 747.921875 24.457031 L 522.617188 737.492188 C 520.347656 744.679688 513.789062 749.648438 506.257812 749.894531 C 506.0625 749.898438 505.867188 749.902344 505.675781 749.902344 Z M 71.402344 246.148438 L 375.488281 364.484375 C 380.128906 366.289062 383.796875 369.957031 385.601562 374.597656 L 503.9375 678.683594 L 703.746094 46.339844 Z M 71.402344 246.148438 " fill-opacity="1" fill-rule="nonzero"/><path fill="#ffffff" d="M 369.046875 398.804688 C 364.5 398.804688 359.953125 397.070312 356.484375 393.601562 C 349.550781 386.664062 349.550781 375.417969 356.484375 368.480469 L 708.734375 16.230469 C 715.671875 9.296875 726.917969 9.296875 733.859375 16.230469 C 740.792969 23.167969 740.792969 34.417969 733.859375 41.355469 L 381.609375 393.601562 C 378.140625 397.070312 373.59375 398.804688 369.046875 398.804688 Z M 369.046875 398.804688 " fill-opacity="1" fill-rule="nonzero"/><path fill="#ffffff" d="M 505.675781 749.902344 C 498.371094 749.902344 491.785156 745.425781 489.125 738.582031 L 355.328125 394.761719 L 11.507812 260.964844 C 4.484375 258.230469 -0.0507812 251.367188 0.195312 243.832031 C 0.441406 236.296875 5.414062 229.742188 12.597656 227.472656 L 725.632812 2.167969 C 731.949219 0.167969 738.859375 1.859375 743.546875 6.542969 C 748.234375 11.230469 749.921875 18.136719 747.921875 24.457031 L 522.617188 737.492188 C 520.347656 744.679688 513.789062 749.648438 506.257812 749.894531 C 506.0625 749.898438 505.867188 749.902344 505.675781 749.902344 Z M 71.402344 246.148438 L 375.488281 364.484375 C 380.128906 366.289062 383.796875 369.957031 385.601562 374.597656 L 503.9375 678.683594 L 703.746094 46.339844 Z M 71.402344 246.148438 " fill-opacity="1" fill-rule="nonzero"/><path fill="#ffffff" d="M 369.046875 398.804688 C 364.5 398.804688 359.953125 397.070312 356.484375 393.601562 C 349.550781 386.664062 349.550781 375.417969 356.484375 368.480469 L 708.734375 16.230469 C 715.671875 9.296875 726.917969 9.296875 733.859375 16.230469 C 740.792969 23.167969 740.792969 34.417969 733.859375 41.355469 L 381.609375 393.601562 C 378.140625 397.070312 373.59375 398.804688 369.046875 398.804688 Z M 369.046875 398.804688 " fill-opacity="1" fill-rule="nonzero"/></svg>