<svg xmlns="http://www.w3.org/2000/svg" xmlns:xlink="http://www.w3.org/1999/xlink" width="1000" zoomAndPan="magnify" viewBox="0 0 750 749.999995" height="1000" preserveAspectRatio="xMidYMid meet" version="1.0"><defs><clipPath id="4e1623f22e"><path d="M 0 1 L 748.5 1 L 748.5 750 L 0 750 Z M 0 1 " clip-rule="nonzero"/></clipPath><clipPath id="82267a6cc9"><path d="M 1.875 1 L 750 1 L 750 750 L 1.875 750 Z M 1.875 1 " clip-rule="nonzero"/></clipPath></defs><g clip-path="url(#4e1623f22e)"><path fill="#ffffff" d="M 745.363281 621.664062 L 634.832031 512.007812 C 631.792969 508.992188 627.234375 508.101562 623.28125 509.746094 C 619.328125 511.390625 616.753906 515.253906 616.753906 519.53125 L 616.753906 577.554688 L 520.71875 577.554688 C 583.308594 532.128906 624.09375 458.429688 624.09375 375.378906 C 624.09375 237.683594 512.011719 125.660156 374.25 125.660156 C 334.164062 125.660156 296.261719 135.160156 262.65625 152 L 121.140625 152 C 115.28125 152 110.535156 156.746094 110.535156 162.601562 L 110.535156 205.769531 L 25.664062 121.570312 L 110.535156 37.375 L 110.535156 80.539062 C 110.535156 86.394531 115.28125 91.140625 121.140625 91.140625 L 374.25 91.140625 C 380.109375 91.140625 384.855469 86.394531 384.855469 80.539062 C 384.855469 74.683594 380.109375 69.9375 374.25 69.9375 L 131.746094 69.9375 L 131.746094 11.917969 C 131.746094 7.636719 129.171875 3.777344 125.21875 2.132812 C 121.265625 0.484375 116.707031 1.375 113.667969 4.394531 L 3.136719 114.046875 C 1.128906 116.039062 0 118.746094 0 121.570312 C 0 124.398438 1.128906 127.105469 3.136719 129.09375 L 113.667969 238.75 C 115.695312 240.761719 118.394531 241.828125 121.144531 241.828125 C 122.515625 241.828125 123.902344 241.558594 125.21875 241.011719 C 129.171875 239.367188 131.746094 235.503906 131.746094 231.226562 L 131.746094 173.203125 L 227.78125 173.203125 C 165.191406 218.628906 124.40625 292.324219 124.40625 375.378906 C 124.40625 513.074219 236.484375 625.097656 374.25 625.097656 C 414.335938 625.097656 452.238281 615.597656 485.847656 598.757812 L 627.359375 598.757812 C 633.21875 598.757812 637.964844 594.011719 637.964844 588.15625 L 637.964844 544.988281 L 722.839844 629.1875 L 637.964844 713.382812 L 637.964844 670.21875 C 637.964844 664.363281 633.21875 659.617188 627.359375 659.617188 L 374.25 659.617188 C 368.390625 659.617188 363.644531 664.363281 363.644531 670.21875 C 363.644531 676.070312 368.390625 680.816406 374.25 680.816406 L 616.753906 680.816406 L 616.753906 738.839844 C 616.753906 743.121094 619.328125 746.980469 623.28125 748.625 C 624.601562 749.175781 625.984375 749.441406 627.355469 749.441406 C 630.101562 749.441406 632.804688 748.375 634.832031 746.363281 L 745.363281 636.710938 C 747.371094 634.71875 748.5 632.011719 748.5 629.1875 C 748.5 626.363281 747.371094 623.652344 745.363281 621.664062 Z M 145.617188 375.378906 C 145.617188 249.375 248.183594 146.863281 374.25 146.863281 C 500.316406 146.863281 602.878906 249.375 602.878906 375.378906 C 602.878906 501.382812 500.316406 603.894531 374.25 603.894531 C 248.183594 603.894531 145.617188 501.382812 145.617188 375.378906 Z M 374.25 184.535156 C 268.96875 184.535156 183.3125 270.148438 183.3125 375.378906 C 183.3125 480.609375 268.96875 566.21875 374.25 566.21875 C 479.53125 566.21875 565.1875 480.609375 565.1875 375.378906 C 565.1875 270.148438 479.53125 184.535156 374.25 184.535156 Z M 374.25 545.019531 C 280.664062 545.019531 204.523438 468.917969 204.523438 375.378906 C 204.523438 281.839844 280.664062 205.738281 374.25 205.738281 C 467.835938 205.738281 543.972656 281.839844 543.972656 375.378906 C 543.972656 468.917969 467.835938 545.019531 374.25 545.019531 Z M 433.335938 419.445312 C 433.335938 445.785156 412.496094 467.773438 385.0625 472.417969 L 385.425781 487.546875 C 385.570312 493.402344 380.9375 498.261719 375.082031 498.402344 C 374.992188 498.402344 374.90625 498.402344 374.820312 498.402344 C 369.082031 498.402344 364.359375 493.824219 364.222656 488.058594 L 363.847656 472.59375 C 347.136719 470.128906 336.863281 461.691406 326.40625 451.832031 C 322.144531 447.8125 321.949219 441.105469 325.96875 436.847656 C 329.988281 432.585938 336.699219 432.390625 340.964844 436.410156 C 352.710938 447.488281 359.929688 452.117188 374.25 452.117188 C 395.132812 452.117188 412.125 437.460938 412.125 419.445312 C 412.125 401.429688 395.132812 386.777344 374.25 386.777344 C 341.667969 386.777344 315.160156 362.609375 315.160156 332.902344 C 315.160156 306.554688 336.019531 284.5625 363.46875 279.929688 L 363.070312 263.210938 C 362.929688 257.355469 367.5625 252.5 373.417969 252.359375 C 379.269531 252.179688 384.136719 256.847656 384.277344 262.703125 L 384.695312 280.242188 C 399.402344 283.277344 418.246094 291.824219 426.125 303.804688 C 429.34375 308.695312 427.980469 315.269531 423.085938 318.484375 C 418.191406 321.703125 411.613281 320.339844 408.398438 315.449219 C 403.566406 308.101562 384.222656 300.234375 374.25 300.230469 C 353.363281 300.230469 336.375 314.886719 336.375 332.902344 C 336.375 350.917969 353.363281 365.574219 374.25 365.574219 C 406.832031 365.574219 433.335938 389.742188 433.335938 419.445312 Z M 433.335938 419.445312 " fill-opacity="1" fill-rule="nonzero"/><path fill="#ffffff" d="M 745.363281 621.664062 L 634.832031 512.007812 C 631.792969 508.992188 627.234375 508.101562 623.28125 509.746094 C 619.328125 511.390625 616.753906 515.253906 616.753906 519.53125 L 616.753906 577.554688 L 520.71875 577.554688 C 583.308594 532.128906 624.09375 458.429688 624.09375 375.378906 C 624.09375 237.683594 512.011719 125.660156 374.25 125.660156 C 334.164062 125.660156 296.261719 135.160156 262.65625 152 L 121.140625 152 C 115.28125 152 110.535156 156.746094 110.535156 162.601562 L 110.535156 205.769531 L 25.664062 121.570312 L 110.535156 37.375 L 110.535156 80.539062 C 110.535156 86.394531 115.28125 91.140625 121.140625 91.140625 L 374.25 91.140625 C 380.109375 91.140625 384.855469 86.394531 384.855469 80.539062 C 384.855469 74.683594 380.109375 69.9375 374.25 69.9375 L 131.746094 69.9375 L 131.746094 11.917969 C 131.746094 7.636719 129.171875 3.777344 125.21875 2.132812 C 121.265625 0.484375 116.707031 1.375 113.667969 4.394531 L 3.136719 114.046875 C 1.128906 116.039062 0 118.746094 0 121.570312 C 0 124.398438 1.128906 127.105469 3.136719 129.09375 L 113.667969 238.75 C 115.695312 240.761719 118.394531 241.828125 121.144531 241.828125 C 122.515625 241.828125 123.902344 241.558594 125.21875 241.011719 C 129.171875 239.367188 131.746094 235.503906 131.746094 231.226562 L 131.746094 173.203125 L 227.78125 173.203125 C 165.191406 218.628906 124.40625 292.324219 124.40625 375.378906 C 124.40625 513.074219 236.484375 625.097656 374.25 625.097656 C 414.335938 625.097656 452.238281 615.597656 485.847656 598.757812 L 627.359375 598.757812 C 633.21875 598.757812 637.964844 594.011719 637.964844 588.15625 L 637.964844 544.988281 L 722.839844 629.1875 L 637.964844 713.382812 L 637.964844 670.21875 C 637.964844 664.363281 633.21875 659.617188 627.359375 659.617188 L 374.25 659.617188 C 368.390625 659.617188 363.644531 664.363281 363.644531 670.21875 C 363.644531 676.070312 368.390625 680.816406 374.25 680.816406 L 616.753906 680.816406 L 616.753906 738.839844 C 616.753906 743.121094 619.328125 746.980469 623.28125 748.625 C 624.601562 749.175781 625.984375 749.441406 627.355469 749.441406 C 630.101562 749.441406 632.804688 748.375 634.832031 746.363281 L 745.363281 636.710938 C 747.371094 634.71875 748.5 632.011719 748.5 629.1875 C 748.5 626.363281 747.371094 623.652344 745.363281 621.664062 Z M 145.617188 375.378906 C 145.617188 249.375 248.183594 146.863281 374.25 146.863281 C 500.316406 146.863281 602.878906 249.375 602.878906 375.378906 C 602.878906 501.382812 500.316406 603.894531 374.25 603.894531 C 248.183594 603.894531 145.617188 501.382812 145.617188 375.378906 Z M 374.25 184.535156 C 268.96875 184.535156 183.3125 270.148438 183.3125 375.378906 C 183.3125 480.609375 268.96875 566.21875 374.25 566.21875 C 479.53125 566.21875 565.1875 480.609375 565.1875 375.378906 C 565.1875 270.148438 479.53125 184.535156 374.25 184.535156 Z M 374.25 545.019531 C 280.664062 545.019531 204.523438 468.917969 204.523438 375.378906 C 204.523438 281.839844 280.664062 205.738281 374.25 205.738281 C 467.835938 205.738281 543.972656 281.839844 543.972656 375.378906 C 543.972656 468.917969 467.835938 545.019531 374.25 545.019531 Z M 433.335938 419.445312 C 433.335938 445.785156 412.496094 467.773438 385.0625 472.417969 L 385.425781 487.546875 C 385.570312 493.402344 380.9375 498.261719 375.082031 498.402344 C 374.992188 498.402344 374.90625 498.402344 374.820312 498.402344 C 369.082031 498.402344 364.359375 493.824219 364.222656 488.058594 L 363.847656 472.59375 C 347.136719 470.128906 336.863281 461.691406 326.40625 451.832031 C 322.144531 447.8125 321.949219 441.105469 325.96875 436.847656 C 329.988281 432.585938 336.699219 432.390625 340.964844 436.410156 C 352.710938 447.488281 359.929688 452.117188 374.25 452.117188 C 395.132812 452.117188 412.125 437.460938 412.125 419.445312 C 412.125 401.429688 395.132812 386.777344 374.25 386.777344 C 341.667969 386.777344 315.160156 362.609375 315.160156 332.902344 C 315.160156 306.554688 336.019531 284.5625 363.46875 279.929688 L 363.070312 263.210938 C 362.929688 257.355469 367.5625 252.5 373.417969 252.359375 C 379.269531 252.179688 384.136719 256.847656 384.277344 262.703125 L 384.695312 280.242188 C 399.402344 283.277344 418.246094 291.824219 426.125 303.804688 C 429.34375 308.695312 427.980469 315.269531 423.085938 318.484375 C 418.191406 321.703125 411.613281 320.339844 408.398438 315.449219 C 403.566406 308.101562 384.222656 300.234375 374.25 300.230469 C 353.363281 300.230469 336.375 314.886719 336.375 332.902344 C 336.375 350.917969 353.363281 365.574219 374.25 365.574219 C 406.832031 365.574219 433.335938 389.742188 433.335938 419.445312 Z M 433.335938 419.445312 " fill-opacity="1" fill-rule="nonzero"/></g><g clip-path="url(#82267a6cc9)"><path fill="#ffffff" d="M 747.238281 621.664062 L 636.707031 512.007812 C 633.667969 508.992188 629.109375 508.101562 625.15625 509.746094 C 621.203125 511.390625 618.628906 515.253906 618.628906 519.53125 L 618.628906 577.554688 L 522.59375 577.554688 C 585.183594 532.128906 625.96875 458.429688 625.96875 375.378906 C 625.96875 237.683594 513.886719 125.660156 376.125 125.660156 C 336.039062 125.660156 298.136719 135.160156 264.53125 152 L 123.015625 152 C 117.15625 152 112.410156 156.746094 112.410156 162.601562 L 112.410156 205.769531 L 27.539062 121.570312 L 112.410156 37.375 L 112.410156 80.539062 C 112.410156 86.394531 117.15625 91.140625 123.015625 91.140625 L 376.125 91.140625 C 381.984375 91.140625 386.730469 86.394531 386.730469 80.539062 C 386.730469 74.683594 381.984375 69.9375 376.125 69.9375 L 133.621094 69.9375 L 133.621094 11.917969 C 133.621094 7.636719 131.046875 3.777344 127.09375 2.132812 C 123.140625 0.484375 118.582031 1.375 115.542969 4.394531 L 5.011719 114.046875 C 3.003906 116.039062 1.875 118.746094 1.875 121.570312 C 1.875 124.398438 3.003906 127.105469 5.011719 129.09375 L 115.542969 238.75 C 117.570312 240.761719 120.269531 241.828125 123.019531 241.828125 C 124.390625 241.828125 125.777344 241.558594 127.09375 241.011719 C 131.046875 239.367188 133.621094 235.503906 133.621094 231.226562 L 133.621094 173.203125 L 229.65625 173.203125 C 167.066406 218.628906 126.28125 292.324219 126.28125 375.378906 C 126.28125 513.074219 238.359375 625.097656 376.125 625.097656 C 416.210938 625.097656 454.113281 615.597656 487.722656 598.757812 L 629.234375 598.757812 C 635.09375 598.757812 639.839844 594.011719 639.839844 588.15625 L 639.839844 544.988281 L 724.714844 629.1875 L 639.839844 713.382812 L 639.839844 670.21875 C 639.839844 664.363281 635.09375 659.617188 629.234375 659.617188 L 376.125 659.617188 C 370.265625 659.617188 365.519531 664.363281 365.519531 670.21875 C 365.519531 676.070312 370.265625 680.816406 376.125 680.816406 L 618.628906 680.816406 L 618.628906 738.839844 C 618.628906 743.121094 621.203125 746.980469 625.15625 748.625 C 626.476562 749.175781 627.859375 749.441406 629.230469 749.441406 C 631.976562 749.441406 634.679688 748.375 636.707031 746.363281 L 747.238281 636.710938 C 749.246094 634.71875 750.375 632.011719 750.375 629.1875 C 750.375 626.363281 749.246094 623.652344 747.238281 621.664062 Z M 147.492188 375.378906 C 147.492188 249.375 250.058594 146.863281 376.125 146.863281 C 502.191406 146.863281 604.753906 249.375 604.753906 375.378906 C 604.753906 501.382812 502.191406 603.894531 376.125 603.894531 C 250.058594 603.894531 147.492188 501.382812 147.492188 375.378906 Z M 376.125 184.535156 C 270.84375 184.535156 185.1875 270.148438 185.1875 375.378906 C 185.1875 480.609375 270.84375 566.21875 376.125 566.21875 C 481.40625 566.21875 567.0625 480.609375 567.0625 375.378906 C 567.0625 270.148438 481.40625 184.535156 376.125 184.535156 Z M 376.125 545.019531 C 282.539062 545.019531 206.398438 468.917969 206.398438 375.378906 C 206.398438 281.839844 282.539062 205.738281 376.125 205.738281 C 469.710938 205.738281 545.847656 281.839844 545.847656 375.378906 C 545.847656 468.917969 469.710938 545.019531 376.125 545.019531 Z M 435.210938 419.445312 C 435.210938 445.785156 414.371094 467.773438 386.9375 472.417969 L 387.300781 487.546875 C 387.445312 493.402344 382.8125 498.261719 376.957031 498.402344 C 376.867188 498.402344 376.78125 498.402344 376.695312 498.402344 C 370.957031 498.402344 366.234375 493.824219 366.097656 488.058594 L 365.722656 472.59375 C 349.011719 470.128906 338.738281 461.691406 328.28125 451.832031 C 324.019531 447.8125 323.824219 441.105469 327.84375 436.847656 C 331.863281 432.585938 338.574219 432.390625 342.839844 436.410156 C 354.585938 447.488281 361.804688 452.117188 376.125 452.117188 C 397.007812 452.117188 414 437.460938 414 419.445312 C 414 401.429688 397.007812 386.777344 376.125 386.777344 C 343.542969 386.777344 317.035156 362.609375 317.035156 332.902344 C 317.035156 306.554688 337.894531 284.5625 365.34375 279.929688 L 364.945312 263.210938 C 364.804688 257.355469 369.4375 252.5 375.292969 252.359375 C 381.144531 252.179688 386.011719 256.847656 386.152344 262.703125 L 386.570312 280.242188 C 401.277344 283.277344 420.121094 291.824219 428 303.804688 C 431.21875 308.695312 429.855469 315.269531 424.960938 318.484375 C 420.066406 321.703125 413.488281 320.339844 410.273438 315.449219 C 405.441406 308.101562 386.097656 300.234375 376.125 300.230469 C 355.238281 300.230469 338.25 314.886719 338.25 332.902344 C 338.25 350.917969 355.238281 365.574219 376.125 365.574219 C 408.707031 365.574219 435.210938 389.742188 435.210938 419.445312 Z M 435.210938 419.445312 " fill-opacity="1" fill-rule="nonzero"/><path fill="#ffffff" d="M 747.238281 621.664062 L 636.707031 512.007812 C 633.667969 508.992188 629.109375 508.101562 625.15625 509.746094 C 621.203125 511.390625 618.628906 515.253906 618.628906 519.53125 L 618.628906 577.554688 L 522.59375 577.554688 C 585.183594 532.128906 625.96875 458.429688 625.96875 375.378906 C 625.96875 237.683594 513.886719 125.660156 376.125 125.660156 C 336.039062 125.660156 298.136719 135.160156 264.53125 152 L 123.015625 152 C 117.15625 152 112.410156 156.746094 112.410156 162.601562 L 112.410156 205.769531 L 27.539062 121.570312 L 112.410156 37.375 L 112.410156 80.539062 C 112.410156 86.394531 117.15625 91.140625 123.015625 91.140625 L 376.125 91.140625 C 381.984375 91.140625 386.730469 86.394531 386.730469 80.539062 C 386.730469 74.683594 381.984375 69.9375 376.125 69.9375 L 133.621094 69.9375 L 133.621094 11.917969 C 133.621094 7.636719 131.046875 3.777344 127.09375 2.132812 C 123.140625 0.484375 118.582031 1.375 115.542969 4.394531 L 5.011719 114.046875 C 3.003906 116.039062 1.875 118.746094 1.875 121.570312 C 1.875 124.398438 3.003906 127.105469 5.011719 129.09375 L 115.542969 238.75 C 117.570312 240.761719 120.269531 241.828125 123.019531 241.828125 C 124.390625 241.828125 125.777344 241.558594 127.09375 241.011719 C 131.046875 239.367188 133.621094 235.503906 133.621094 231.226562 L 133.621094 173.203125 L 229.65625 173.203125 C 167.066406 218.628906 126.28125 292.324219 126.28125 375.378906 C 126.28125 513.074219 238.359375 625.097656 376.125 625.097656 C 416.210938 625.097656 454.113281 615.597656 487.722656 598.757812 L 629.234375 598.757812 C 635.09375 598.757812 639.839844 594.011719 639.839844 588.15625 L 639.839844 544.988281 L 724.714844 629.1875 L 639.839844 713.382812 L 639.839844 670.21875 C 639.839844 664.363281 635.09375 659.617188 629.234375 659.617188 L 376.125 659.617188 C 370.265625 659.617188 365.519531 664.363281 365.519531 670.21875 C 365.519531 676.070312 370.265625 680.816406 376.125 680.816406 L 618.628906 680.816406 L 618.628906 738.839844 C 618.628906 743.121094 621.203125 746.980469 625.15625 748.625 C 626.476562 749.175781 627.859375 749.441406 629.230469 749.441406 C 631.976562 749.441406 634.679688 748.375 636.707031 746.363281 L 747.238281 636.710938 C 749.246094 634.71875 750.375 632.011719 750.375 629.1875 C 750.375 626.363281 749.246094 623.652344 747.238281 621.664062 Z M 147.492188 375.378906 C 147.492188 249.375 250.058594 146.863281 376.125 146.863281 C 502.191406 146.863281 604.753906 249.375 604.753906 375.378906 C 604.753906 501.382812 502.191406 603.894531 376.125 603.894531 C 250.058594 603.894531 147.492188 501.382812 147.492188 375.378906 Z M 376.125 184.535156 C 270.84375 184.535156 185.1875 270.148438 185.1875 375.378906 C 185.1875 480.609375 270.84375 566.21875 376.125 566.21875 C 481.40625 566.21875 567.0625 480.609375 567.0625 375.378906 C 567.0625 270.148438 481.40625 184.535156 376.125 184.535156 Z M 376.125 545.019531 C 282.539062 545.019531 206.398438 468.917969 206.398438 375.378906 C 206.398438 281.839844 282.539062 205.738281 376.125 205.738281 C 469.710938 205.738281 545.847656 281.839844 545.847656 375.378906 C 545.847656 468.917969 469.710938 545.019531 376.125 545.019531 Z M 435.210938 419.445312 C 435.210938 445.785156 414.371094 467.773438 386.9375 472.417969 L 387.300781 487.546875 C 387.445312 493.402344 382.8125 498.261719 376.957031 498.402344 C 376.867188 498.402344 376.78125 498.402344 376.695312 498.402344 C 370.957031 498.402344 366.234375 493.824219 366.097656 488.058594 L 365.722656 472.59375 C 349.011719 470.128906 338.738281 461.691406 328.28125 451.832031 C 324.019531 447.8125 323.824219 441.105469 327.84375 436.847656 C 331.863281 432.585938 338.574219 432.390625 342.839844 436.410156 C 354.585938 447.488281 361.804688 452.117188 376.125 452.117188 C 397.007812 452.117188 414 437.460938 414 419.445312 C 414 401.429688 397.007812 386.777344 376.125 386.777344 C 343.542969 386.777344 317.035156 362.609375 317.035156 332.902344 C 317.035156 306.554688 337.894531 284.5625 365.34375 279.929688 L 364.945312 263.210938 C 364.804688 257.355469 369.4375 252.5 375.292969 252.359375 C 381.144531 252.179688 386.011719 256.847656 386.152344 262.703125 L 386.570312 280.242188 C 401.277344 283.277344 420.121094 291.824219 428 303.804688 C 431.21875 308.695312 429.855469 315.269531 424.960938 318.484375 C 420.066406 321.703125 413.488281 320.339844 410.273438 315.449219 C 405.441406 308.101562 386.097656 300.234375 376.125 300.230469 C 355.238281 300.230469 338.25 314.886719 338.25 332.902344 C 338.25 350.917969 355.238281 365.574219 376.125 365.574219 C 408.707031 365.574219 435.210938 389.742188 435.210938 419.445312 Z M 435.210938 419.445312 " fill-opacity="1" fill-rule="nonzero"/></g></svg>